<?xml version="1.0" encoding="UTF-8" standalone="no"?>
<svg
   viewBox="0 0 512 512"
   version="1.1"
   id="svg1"
   sodipodi:docname="maximize_solid.svg"
   inkscape:version="1.4 (e7c3feb100, 2024-10-09)"
   xmlns:inkscape="http://www.inkscape.org/namespaces/inkscape"
   xmlns:sodipodi="http://sodipodi.sourceforge.net/DTD/sodipodi-0.dtd"
   xmlns="http://www.w3.org/2000/svg"
   xmlns:svg="http://www.w3.org/2000/svg">
  <defs
     id="defs1" />
  <sodipodi:namedview
     id="namedview1"
     pagecolor="#ffffff"
     bordercolor="#000000"
     borderopacity="0.25"
     inkscape:showpageshadow="2"
     inkscape:pageopacity="0.0"
     inkscape:pagecheckerboard="0"
     inkscape:deskcolor="#d1d1d1"
     inkscape:zoom="1.8984375"
     inkscape:cx="256"
     inkscape:cy="256"
     inkscape:window-width="2192"
     inkscape:window-height="1173"
     inkscape:window-x="1920"
     inkscape:window-y="0"
     inkscape:window-maximized="1"
     inkscape:current-layer="svg1" />
  <!--!Font Awesome Free 6.6.0 by @fontawesome - https://fontawesome.com License - https://fontawesome.com/license/free Copyright 2024 Fonticons, Inc.-->
  <path
     d="M200 32L56 32C42.7 32 32 42.7 32 56l0 144c0 9.7 5.8 18.5 14.8 22.2s19.3 1.7 26.2-5.2l40-40 79 79-79 79L73 295c-6.9-6.9-17.2-8.9-26.2-5.2S32 302.3 32 312l0 144c0 13.3 10.7 24 24 24l144 0c9.7 0 18.5-5.8 22.2-14.8s1.7-19.3-5.2-26.2l-40-40 79-79 79 79-40 40c-6.9 6.9-8.9 17.2-5.2 26.2s12.5 14.8 22.2 14.8l144 0c13.3 0 24-10.7 24-24l0-144c0-9.7-5.8-18.5-14.8-22.2s-19.3-1.7-26.2 5.2l-40 40-79-79 79-79 40 40c6.9 6.9 17.2 8.9 26.2 5.2s14.8-12.5 14.8-22.2l0-144c0-13.3-10.7-24-24-24L312 32c-9.7 0-18.5 5.8-22.2 14.8s-1.7 19.3 5.2 26.2l40 40-79 79-79-79 40-40c6.9-6.9 8.9-17.2 5.2-26.2S209.7 32 200 32z"
     id="path1"
     style="fill:#a2272c;fill-opacity:1" />
</svg>
