<?xml version="1.0" encoding="UTF-8"?>
<!-- Generator: Adobe Illustrator 28.3.0, SVG Export Plug-In . SVG Version: 6.00 Build 0)  -->
<svg version="1.1" id="Camada_1" xmlns="http://www.w3.org/2000/svg" xmlns:xlink="http://www.w3.org/1999/xlink" x="0px" y="0px" width="575.695px" height="384.338px" viewBox="0 0 575.695 384.338" enable-background="new 0 0 575.695 384.338" xml:space="preserve">
<g>
	<g>
		<g>
			<g>
				<path fill="#8D8D8D" d="M109.823,250.533c0,0-13.686,28.247-20.385,40.185c-6.696,11.936-6.406,19.802-7.279,30.283      c-0.874,10.484-1.716,27.969-0.073,30.321c3.348,4.798,5.945,7.671,5.815,9.497c-9.129,1.695-24.608,3.143-24.608,3.143      s1.854-5.775-2.409-8.413c-2.332-1.442,0.987-7.717,0.854-11.759c-0.129-4.042,0.458-29.607-1.728-40.694      c-0.228-6.392,3.161-28.429,4.727-31.56c1.565-3.131,19.435-54.913,19.435-54.913l20.609,2.166L109.823,250.533z"/>
				<path fill="none" stroke="#000000" stroke-linecap="round" stroke-linejoin="round" stroke-miterlimit="10" d="M109.823,250.533      c0,0-13.686,28.247-20.385,40.185c-6.696,11.936-6.406,19.802-7.279,30.283c-0.874,10.484-1.716,27.969-0.073,30.321      c3.348,4.798,5.945,7.671,5.815,9.497c-9.129,1.695-24.608,3.143-24.608,3.143s1.854-5.775-2.409-8.413      c-2.332-1.442,0.987-7.717,0.854-11.759c-0.129-4.042,0.458-29.607-1.728-40.694c-0.228-6.392,3.161-28.429,4.727-31.56      c1.565-3.131,19.435-54.913,19.435-54.913l20.609,2.166L109.823,250.533z"/>
			</g>
			<g>
				<path fill="#B35A32" d="M80.347,362.655c0,0,5.157-2.415,7.957-1.703c4.365,4.921,6.177,14.328,6.177,14.328      s-5.624,0.364-9.433-0.103C81.245,374.714,80.347,362.655,80.347,362.655z"/>
				<path fill="none" stroke="#000000" stroke-linecap="round" stroke-linejoin="round" stroke-miterlimit="10" d="M80.347,362.655      c0,0,5.157-2.415,7.957-1.703c4.365,4.921,6.177,14.328,6.177,14.328s-5.624,0.364-9.433-0.103      C81.245,374.714,80.347,362.655,80.347,362.655z"/>
				<path fill="#B35A32" d="M62.758,364.595c0,0,3.064,8.197,6.625,11.336c12.37,0.424,21.354-0.368,21.354-0.368      s-5.51-12.405-6.831-13.865C82.587,360.24,66.611,362.437,62.758,364.595z"/>
				<path fill="none" stroke="#000000" stroke-linecap="round" stroke-linejoin="round" stroke-miterlimit="10" d="M62.758,364.595      c0,0,3.064,8.197,6.625,11.336c12.37,0.424,21.354-0.368,21.354-0.368s-5.51-12.405-6.831-13.865      C82.587,360.24,66.611,362.437,62.758,364.595z"/>
			</g>
			<path fill="#EBEBEB" d="M430.239,23.137c0,0-32.299-6.211-81.99-4.14c-49.69,2.069-110.976,10.351-151.142,11.179     c-40.167,0.83-56.316-4.14-74.122-3.312c-17.807,0.826-53.831-1.656-65.012,0.826C46.792,30.177,16.06,85.188,27.33,132.044     c11.845,49.245,14.078,77.437,12.835,93.169c0,0-6.625,28.159-11.18,35.613c-4.554,7.454-2.071,13.666,1.657,21.532     c3.727,7.869,6.626,39.752,6.626,50.932c0,11.181,1.658,22.191,0.185,24.928c-2.987,5.547,2.626,5.486,2.88,7.322     c0.214,1.549,0.593,5.565,2.016,6.422c4.269,2.572,19.17-0.425,25.691-2.91c0.323-8.201-7.705-6.98-8.37-10.598     c-3.593-19.585-2.902-43.302-0.455-49.593c2.898-7.453,8.696-19.463,9.108-25.261c0.416-5.796,12.011-24.016,13.666-33.54     c1.657-9.523,4.554-19.462,9.11-25.674c-0.414,23.188,4.995,32.476,19.64,36.239c-0.419,7.95,3.557,22.386,6.067,1.256     c2.3-0.209,2.3-0.209,2.3-0.209s0.21,8.368,2.094,8.368c1.882,0,3.347-9.204,3.347-9.204l2.721,0.418     c0,0-0.42,13.808,2.718,13.808c3.139,0,3.767-14.645,3.767-14.645l11.924-2.72c0,0-1.045,13.806,1.884,13.387     c2.929-0.418,4.811-14.434,4.811-14.434s12.972-9.415,16.319-8.16c3.346,1.258,11.088,3.346,15.271,3.767     c4.185,0.419,11.716-0.418,14.016,0.838c2.303,1.254,14.018,8.367,21.549,6.483c7.531-1.881,11.506-4.811,14.853-5.229     c3.347-0.419,28.452-6.275,40.586-7.949c12.133-1.673,33.473-11.299,33.473-11.299s6.277,25.524,7.323,38.286     c1.046,12.76,5.229,27.402,7.321,36.4c2.092,8.996-1.137,43.965-1.137,46.268c0,2.302-1.749,5.06-0.493,7.358     c1.255,2.302,3.212,3.518,3.212,3.518l-0.324,5.767c0,0,12.816,1.96,23.903-2.64c0.73-5.703-4.387-8.192-5.06-10.978     c-5.537-22.92-2.122-34.903-0.775-39.67c1.595-5.647,8.708-11.088,8.08-28.241c-0.627-17.152-0.837-26.986,0.628-32.426     c1.466-5.44,3.557-14.435,3.557-14.435s9.625,8.368,15.691,11.507c-0.211,8.785,4.442,33.592,7.361,47.447     c2.918,13.859,3.541,44.603,2.446,46.608c-0.411,0.754-2.556,3.236-1.895,6.32c0.548,2.551,1.595,3.207,1.595,3.207l1.274,4.168     c0,0,19.876,2.478,25.797-2.086c-0.084-3.619-3.195-7.83-4.853-12.754c-1.656-4.924-3.827-32.772-1.816-38.684     c2.725-8.016,4.327-13.145,4.487-19.235c0.161-6.091,0.962-35.584,3.046-40.393c8.977-6.252,33.181-41.837,37.669-52.577     c4.489-10.739,9.458-22.922,13.305-33.502c3.848-10.577,13.498-19.275,23.099-26.307     C481.541,112.883,430.239,23.137,430.239,23.137z"/>
			<path fill="#2B2B2B" d="M459.366,129.153c0.107-2.484-0.841-7.343-0.841-13.332c0-5.986-0.002-7.454,0.421-11.184     c0.42-3.729,0.738-5.761,1.263-7.005c0.255-0.597,1.916-5.497,3.574-10.424c-14.886-31.429-33.544-64.071-33.544-64.071     s-16.029-3.075-42.852-4.176c5.112,10.238,11.635,23.109,12.623,24.112c1.663,1.683,5.349,1.57,5.138,4.395     c-0.211,2.826,0.316,4.069-1.999,4.407c-2.317,0.339-4.108,0.339-4.844,1.469c-0.737,1.13-1.579-1.016-3.371-0.567     c-1.788,0.453,1.368,3.956-2.947,2.262c-4.316-1.694-5.895-3.501-6.107-4.521c-0.209-1.015-3.472-8.924-5.263-8.812     c-1.789,0.114-2.212,0.452-4.424,0.679c-2.211,0.226-8-5.764-8.422-6.101c-0.421-0.339,3.581,0.224-2.734-1.243     c-6.318-1.469-5.792-2.599-7.161-1.469c-1.368,1.131-0.652,1.799-1.746,4.117c-1.096,2.323-0.36,1.984-1.096,2.323     c-0.738,0.338-0.947-4.633-1.265-5.877c-0.316-1.241,0.317-2.938-1.578-5.196c-1.387-1.653-4.23-6.98-5.745-9.862     c-14.571,0.648-30.088,1.805-45.752,3.142c-1.541,1.544-3.005,3.171-3.777,4.462c-2.092,3.493-1.679,3.841-3.208,7.343     c-1.528,3.503-3.109,7.229-4.16,7.683c-1.054,0.452-0.421-1.469-2.002-2.485c-1.579-1.017-1.579-1.242-4-2.146     c-2.422-0.903-1.79-3.051-0.526-3.954c1.264-0.904,2.501-0.091,2.947-2.034c0.448-1.943,1.369-2.6,0.422-4.745     c-0.31-0.701-0.721-1.711-1.135-2.762c-29.512,2.665-58.569,5.55-81.776,6.408c-2.689,3.468-5.409,6.879-6.895,8.474     c-3.62,3.886-6.034,6.153-8.448,6.153c-2.413,0-6.94-0.971-5.733-4.208c-2.11-1.621-6.033-3.238-6.033-3.238     s-5.792,1.157-13.688,1.723c-7.896,0.562-18.74,2.939-18.74,2.939s-0.631,3.388-1.79,3.5c-1.158,0.112-3.895-0.337-4.001,0.791     c-0.104,1.131-0.842,4.294-1.79,4.294c-0.947,0-3.051-5.76-8.105-3.503c-5.055,2.26-10.213,3.729-10.317,8.475     c-0.105,4.745-2.948,11.411-2.948,12.878c0,1.471,0,2.824,0,2.824s4.632,2.037,6.001,1.584c1.368-0.452,2.948-2.372,2.948-2.372     s0.631-1.243,0.841,0.565c0.212,1.807,0.843,3.84,0.527,5.874c-0.315,2.033-0.422,2.598-0.106,3.162     c0.317,0.565,1.58,1.697,2.317,0.789c0.737-0.902,0.737-2.936,2.633-1.466c1.893,1.466,4.526,1.693,4.948,1.807     c0.421,0.113,0.209,1.132,2.948-1.016c2.737-2.146,5.158-3.388,5.368-3.841c0.21-0.452,3.58-3.39,3.58-3.39     s-0.632,2.032,1.895,2.37c2.528,0.342,1.159-1.804,2.528,0.342c1.368,2.146,2,3.953,2,5.873c0,1.922,3.369,11.183,5.579,15.477     c2.212,4.292,9.688,7.572,10.95,9.152c1.263,1.582,4.633,6.666,4.105,9.378c-0.526,2.71-1.368,4.969-2,7.004     c-0.632,2.032,1.474,3.841,1.579,5.197c0.105,1.356,0.315,3.954,0.315,5.085c0,1.128,0.316,3.387-0.21,4.18     c-0.527,0.791-5.369-6.102-7.581-6.102c-2.209,0-4.947-1.354-5.79-0.112c-0.842,1.244-2.737,1.469-3.053,1.58     c-0.316,0.116-7.792,11.295-7.476,18.188c0.317,6.892,1.054,14.233,0.738,15.139c-0.316,0.903-0.844,2.824,0.945,3.954     c1.791,1.128,3.265,0.453,3.58,2.6c0.314,2.145,0.843,6.326,0.843,6.326s3.053-1.132,4.316,1.018     c1.264,2.146,2.453,2.708,2.806,2.373c0.354-0.34-1.121-2.713,1.933-3.617c3.054-0.904,3.58-1.241,5.158-1.241     c1.58,0,5.685,0.45,6.422-0.791c0.738-1.242,3.579-8.023,6.317-4.295c2.737,3.729,3.053,12.428,4.949,13.447     c1.895,1.015,4.422-0.341,4.947-0.681c0.526-0.338,4.424-1.014,5.475-0.678c1.054,0.34,5.896-2.484,5.896-2.484     s2.421-1.019,1.79,2.37c-0.634,3.391-0.737,3.729-0.737,4.408c0,0.678,1.58,1.581,2.001,1.694c0.42,0.112,3.157,0,3.157,0     s3.895-3.839,4.633-4.292c0.737-0.452,1.158,2.598,0,4.856c-1.158,2.257-4.843,11.977-3.895,13.56     c0.947,1.581,2.104,2.713,5.79,1.13c3.686-1.584,8.634-11.074,9.055-9.378c0.421,1.692-0.736,4.066,0,5.762     c0.736,1.692,6.001,2.373,6.001,2.373s1.788,3.84-2.211,6.324c-4.001,2.487-9.266,0.68-11.476,3.843     c-2.212,3.163-8.634,8.135-6.949,10.959c1.685,2.824,14.74,6.441,19.584,3.615c4.843-2.823,7.473-2.035,10.105-2.035     c2.632,0,7.369,0,9.159-1.92c1.791-1.921,8.634-7.682,9.475-11.521c0.845-3.841,0.107-15.028,2.526-18.53     c2.424-3.502,1.266-2.033,2.634-4.181c1.37-2.148,0.946-5.194,2.737-3.499c1.79,1.693,11.896-0.455,12.212-0.681     c0.316-0.228,3.264-2.709,4.424-2.938c1.157-0.225,3.368-0.225,4.211-1.694c0.842-1.469,1.685-5.085,3.052-3.73     c1.37,1.358,2.106,10.393,3.687,9.718c1.578-0.676,3.475-4.065,3.79-4.182c0.315-0.112,4.316-0.901,6.633-5.988     c2.316-5.082,12.633-19.881,14.001-23.836c1.37-3.955,1.793-11.3,2.001-12.088c0.21-0.791-4.526,2.823-3.79,0.338     c0.736-2.485,1.053-2.936,1.264-6.439c0.21-3.503,1.159-9.376,1.684-11.524c0.529-2.148,0.212-10.395-1.788-12.091     c-2.001-1.691-2.001-1.128-3.896,0.567c-1.895,1.696-8.525,7.682-9.053,7.118c-0.527-0.565-3.258-5.31-2.523-9.604     c0.733-4.296,6.209-8.134,6.734-11.186c0.526-3.05-1.37-7.683-0.633-10.056c0.738-2.371,8.951-8.136,9.371-8.136     c0.421,0,1.578-2.145,1.578-2.145s0.105,0.226,0.526,1.469c0.423,1.244,5.158,3.501,5.475,3.501c0.317,0,0.947-1.128,1.159-0.789     c0.21,0.338,0.526-0.678,0.632,2.823c0.105,3.503,1.368,10.735,0.738,13.898c-0.633,3.161-0.809,6.213,0.174,8.812     c0.983,2.597,3.508,7.793,3.508,7.793s2.633-0.225,4.212-3.389c1.58-3.164,6.737-11.409,7.477-14.233     c0.737-2.828,1.578-6.329,2.106-3.844c0.524,2.485-0.317,5.875-0.633,7.57c-0.315,1.694-1.896,9.265-1.578,11.3     c0.314,2.031,2.338,4.745,2.38,7.229c0.04,2.485,0.882,4.18-0.486,3.389c-1.368-0.791-2.843-4.856-2.843-4.856     s-0.525-1.02-2.632,2.373c-2.105,3.387-3.371,4.403-5.055,5.759c-1.684,1.356-2.315,0.225-3.264,2.827     c-0.946,2.597-2.21,4.178-2.948,7.567c-0.735,3.389-3.999,11.862-5.052,15.817c-1.053,3.951-4.423,9.829-4.423,13.557     c0,3.727,0.212,5.872,0.316,7.344c0.105,1.468,2.211-6.215,0.105,2.6c-2.105,8.811-1.474,9.261-2.527,10.167     c-1.053,0.903-1.896,1.469-3.369,3.616c-1.474,2.145-1.788,2.029-2.527,3.951c-0.736,1.922-1.156,4.181-1.156,4.181l4.107-1.016     c0,0,0.946,0.224-0.317,2.034c-1.264,1.808-1.895,1.919-1.685,2.599c0.21,0.677,2.631,1.806,2.737,1.242     c0.105-0.565,1.053-2.372,1.368-2.372c0.315,0,2.211,0,2.211,0s-2.949,1.808-4.212,4.294c-1.263,2.483-2.526,3.275-1.473,3.05     c1.053-0.226,0.631,1.242,3.684-2.261c3.054-3.503,10.107-9.151,13.267-12.655c3.157-3.501,4.842-4.291,5.157-3.274     c0.315,1.016,1.684,1.694,0.633,4.633c-1.054,2.938-3.054,3.275-1.369,4.518c1.685,1.241,1.052,1.809,4.634,0.453     c3.578-1.357,12.316-2.033,14.107-5.536c1.789-3.502-0.105-5.084,4.317-5.424c4.421-0.34,12.316-1.129,13.37-2.711     c1.052-1.581,5.474-7.793,6.001-7.683c0.526,0.112,3.686,4.742,5.896,3.952c2.211-0.788,4.108-9.602,6.527-6.212     c2.422,3.39,6.108,10.507,10.739,8.361c4.633-2.149,2.842-1.133,6.844-3.279c3.998-2.147,5.475-6.891,7.053-4.63     c1.581,2.258,4.528-5.874,6.108-2.485c1.577,3.389,4.421,9.605,5.999,10.395c1.581,0.788,4.422-1.356,8.632-3.503     c4.212-2.148,8.213-8.812,12.426-12.88c4.21-4.067,8.316-12.427,9.265-17.965c0.948-5.537-0.42-6.664,1.685-8.587     c2.105-1.921,3.37-1.807,2.316-4.971C459.789,133.786,459.263,131.637,459.366,129.153z M82.711,84.835     c-4.596-6.341-8.536-10.098-10.287-11.036c-1.751-0.939,7.005-1.177-3.501-3.054c-10.506-1.878-6.129-2.348-12.476,0     c-6.348,2.349-6.565,0-9.63,3.522c-3.064,3.522-8.316,11.744-8.099,14.092c0.22,2.348,0.657,3.991,2.19,8.222     c1.531,4.228,3.282,3.757,3.72,9.863c0.438,6.104-0.656,8.924,0.876,12.213c1.531,3.289,3.064,3.989,3.721,4.697     c0.656,0.702,2.405,0.467,3.501,1.877c1.095,1.41,1.532,4.228,1.532,5.402c0,1.176-2.189,1.409-2.846,1.645     c-0.656,0.235-2.845,0.47-1.751,4.698c1.095,4.227,1.533,3.289,3.284,7.046c1.75,3.756,2.626,7.28,4.595,10.098     c1.971,2.817,2.627,3.056,3.722,2.349c1.094-0.703,3.857-2.349,4.337-3.053c0.478-0.705,2.228-2.585,3.541-2.113     c1.313,0.47,7.88,3.055,7.88,3.055l7.004-0.237c0.656-0.232,2.188-1.878,3.721-9.159c1.531-7.28,2.188-10.806,1.75-12.918     c-0.438-2.112-2.493-5.469-2.67-9.781c-0.176-4.309,0.748-0.553,2.804-9.241c2.056-8.689,3.587-13.858,2.492-17.851     C91.028,91.178,87.307,91.179,82.711,84.835z"/>
			<path opacity="0.3" d="M481.826,136.815c-2.612-0.327-6.614-1.129-6.82-2.992c0,0-7.377,2.527-8.14-5.809     c-0.471,3.656,0.847,6.76,2.017,7.621c-5.851-0.749-7.376-3.38-7.93-6.013c0.323,3.948,2.83,7.404,2.83,7.404l-6.942,13.48     c0,0-18.256,20.049-24.241,9.807c-5.984-10.242-7.859-35.082-7.136-38.052c-2.696,8.574-0.339,33.586,6.28,45.12     c-4.504,4.425-6.941-4.185-13.218,2.09c-3.682,3.682-6.875,9.208-7.49,1.598c-0.672-8.329-2.374-9.48-3.229-21.865     c-0.843,1.132-2.979,12.051-4.344,19.396c0.984-6.432,2.024-16.369,0.793-24.676c-2.006,10.847-1.348,21.566-4.811,30.938     c-4.461-12.823-8.735-34.458-7.452-53.349c-0.429,6.328-2.31,27.939-0.232,44.317c-7.464-22.601-4.471-52.608-3.616-55.344     c-5.13,9.66-5.753,39.156-4.586,43.858c-3.108-11.542-3.677-37.189-6.599-47.021c-0.356,18.382-0.357,35.479-2.067,43.6     c-0.854-38.042-9.324-55.566-12.143-59.842c7.441,37.188,6.585,63.256,3.166,72.234c-3.419,8.981-8.426,18.38-7.204,24.366     c1.221,5.986-4.04,9.267-4.04,9.267s1.529-12.684-4.3-23.797c2.294,15.388,6.81,30.23,1.986,40.333     c-4.822,10.106-9.951,15.066-9.951,15.066l7.965-3.803c0,0-8.19,11.667-6.581,14.658c1.608,2.993-0.528,38.47,2.036,47.873     c2.564,9.404-4.879,29.923-9.493,30.348c0.516,3.848,0.516,3.848,0.516,3.848s1.625,25.86,5.558,35.581     c0.16,0.398,0.386,0.879,0.635,1.39c-5.319-22.496-1.97-34.315-0.635-39.037c1.595-5.647,8.708-11.088,8.08-28.241     c-0.627-17.152-0.837-26.986,0.628-32.426c1.466-5.44,3.557-14.435,3.557-14.435s9.625,8.368,15.691,11.507     c-0.211,8.785,4.442,33.592,7.361,47.447c2.918,13.859,3.719,43.941,2.624,45.947c-0.294,0.538-2.826,4.829-1.811,7.947     c0.564,1.748,1.334,2.241,1.334,2.241l0.787,2.575c0.236-0.011,0.835,1.833,0.835,1.833s17.756,3.604,25.449-2.326     c-1.725-8.824-4.966-7.65-5.674-16.736c-0.737-4.836-1.429-12.623-1.691-19.705c-0.379-6.405-0.352-11.92,0.696-14.996     c2.725-8.016,4.327-13.145,4.487-19.235c0.161-6.091,0.962-35.584,3.046-40.393c8.977-6.252,33.181-41.837,37.669-52.577     c4.489-10.739,9.458-22.922,13.305-33.502c3.848-10.577,13.498-19.275,23.099-26.307     C481.873,137.638,481.856,137.236,481.826,136.815z"/>
			<g>
				<path fill="#D5D8C8" d="M165.335,242.877c0,5.055-3.789,8.768-10.159,11.649c-6.37,2.881-15.319,4.93-25.641,6.658      c-21.515,3.604-35.798-8.197-35.798-18.308c0-5.058,2.725-13.031,7.921-19.74c5.196-6.709,12.864-12.154,22.75-12.154      c9.886,0,20.118,5.445,27.878,12.154C160.047,229.846,165.335,237.819,165.335,242.877z"/>
				<path fill="#D5D7C7" d="M101.512,223.806c1.623-2.154,3.541-4.051,5.73-5.709c4.655-3.527,10.363-5.97,17.166-5.97      c6.64,0,13.395,2.323,19.498,5.7c3.113,1.723,6.019,3.718,8.557,5.979c7.501,6.684,12.564,14.459,12.456,19.438      c-0.107,4.943-3.828,8.578-10.111,11.4c-6.31,2.829-15.146,4.844-25.327,6.545c-14.057,2.348-25.012-1.897-30.878-7.925      c-3.028-3.113-4.698-6.7-4.738-10.1C93.826,238.195,96.52,230.432,101.512,223.806z"/>
				<path fill="#D6D6C6" d="M101.366,224.476c1.6-2.182,3.537-3.974,5.782-5.553c4.701-3.306,10.406-5.652,17.261-5.652      c6.696,0,13.474,2.228,19.615,5.389c3.192,1.643,6.132,3.532,8.618,5.816c7.243,6.655,12.08,14.233,11.863,19.136      c-0.213,4.828-3.868,8.387-10.064,11.151c-6.25,2.776-14.972,4.758-25.013,6.431c-13.928,2.32-24.796-1.85-30.651-7.786      c-3.02-3.064-4.716-6.599-4.783-9.955C93.897,238.57,96.574,231.015,101.366,224.476z"/>
				<path fill="#D6D5C5" d="M101.22,225.146c1.576-2.212,3.53-3.897,5.834-5.397c4.742-3.086,10.449-5.334,17.355-5.334      c6.752,0,13.557,2.129,19.731,5.079c3.272,1.563,6.245,3.345,8.678,5.652c6.986,6.623,11.597,14.004,11.271,18.834      c-0.318,4.713-3.907,8.196-10.017,10.902c-6.19,2.724-14.798,4.671-24.698,6.318c-13.799,2.291-24.58-1.802-30.424-7.648      c-3.012-3.016-4.727-6.498-4.827-9.811C93.978,238.946,96.624,231.593,101.22,225.146z"/>
				<path fill="#D6D4C4" d="M101.073,225.815c1.553-2.242,3.519-3.819,5.886-5.24c4.777-2.869,10.493-5.016,17.449-5.016      c6.807,0,13.645,2.028,19.848,4.768c3.356,1.483,6.358,3.157,8.739,5.488c6.73,6.587,11.114,13.773,10.678,18.531      c-0.421,4.596-3.946,8.006-9.969,10.653c-6.13,2.671-14.624,4.585-24.384,6.204c-13.669,2.263-24.364-1.754-30.197-7.51      c-3.003-2.968-4.738-6.397-4.872-9.666C94.058,239.322,96.672,232.168,101.073,225.815z"/>
				<path fill="#D7D3C4" d="M100.927,226.485c1.531-2.273,3.506-3.741,5.938-5.084c4.805-2.654,10.536-4.697,17.544-4.697      c6.863,0,13.738,1.922,19.965,4.457c3.441,1.401,6.47,2.969,8.799,5.324c6.475,6.547,10.632,13.54,10.085,18.229      c-0.523,4.477-3.985,7.815-9.922,10.404c-6.07,2.619-14.451,4.499-24.069,6.091c-13.54,2.234-24.148-1.707-29.97-7.372      c-2.995-2.92-4.749-6.296-4.917-9.521C94.139,239.698,96.716,232.739,100.927,226.485z"/>
				<path fill="#D7D2C3" d="M100.781,227.155c1.508-2.305,3.491-3.664,5.99-4.928c4.828-2.442,10.579-4.379,17.638-4.379      c6.918,0,13.835,1.812,20.082,4.146c3.53,1.319,6.581,2.779,8.86,5.16c6.222,6.503,10.152,13.305,9.492,17.927      c-0.622,4.357-4.019,7.638-9.875,10.155c-6.004,2.58-14.277,4.412-23.755,5.977c-13.411,2.206-23.931-1.659-29.743-7.233      c-2.987-2.872-4.76-6.195-4.962-9.377C94.22,240.074,96.757,233.306,100.781,227.155z"/>
				<path fill="#D7D1C2" d="M100.634,227.825c1.485-2.338,3.472-3.587,6.042-4.771c4.845-2.234,10.623-4.061,17.733-4.061      c6.974,0,13.937,1.699,20.198,3.836c3.62,1.235,6.693,2.588,8.92,4.996c5.97,6.456,9.673,13.067,8.9,17.624      c-0.719,4.236-4.057,7.45-9.828,9.906c-5.944,2.53-14.103,4.326-23.441,5.864c-13.282,2.177-23.715-1.611-29.516-7.095      c-2.979-2.824-4.77-6.093-5.007-9.232C94.302,240.451,96.794,233.869,100.634,227.825z"/>
				<path fill="#D8D0C1" d="M100.488,228.494c1.463-2.372,3.451-3.51,6.094-4.615c4.857-2.03,10.666-3.742,17.827-3.742      c7.03,0,14.041,1.581,20.315,3.525c3.712,1.15,6.804,2.396,8.981,4.833c5.72,6.404,9.196,12.826,8.307,17.322      c-0.813,4.113-4.096,7.261-9.78,9.657c-5.883,2.48-13.929,4.24-23.126,5.75c-13.152,2.149-23.499-1.564-29.288-6.957      c-2.971-2.776-4.78-5.992-5.051-9.088C94.384,240.827,96.827,234.429,100.488,228.494z"/>
				<path fill="#D8CFC0" d="M100.342,229.164c1.44-2.406,3.427-3.435,6.145-4.459c4.864-1.831,10.709-3.424,17.921-3.424      c7.085,0,14.149,1.458,20.432,3.214c3.806,1.063,6.916,2.203,9.041,4.669c5.472,6.349,8.721,12.584,7.714,17.02      c-0.905,3.989-4.134,7.072-9.733,9.408c-5.823,2.429-13.755,4.154-22.812,5.636c-13.023,2.12-23.283-1.516-29.061-6.818      c-2.963-2.728-4.79-5.89-5.096-8.943C94.466,241.204,96.857,234.985,100.342,229.164z"/>
				<path fill="#D8CEBF" d="M100.195,229.834c1.418-2.442,3.401-3.362,6.197-4.302c4.867-1.636,10.753-3.106,18.016-3.106      c7.141,0,14.259,1.332,20.549,2.903c3.901,0.975,7.027,2.008,9.102,4.505c5.227,6.289,8.247,12.339,7.122,16.717      c-0.994,3.864-4.173,6.883-9.686,9.159c-5.762,2.378-13.582,4.067-22.498,5.523c-12.894,2.092-23.067-1.468-28.834-6.68      c-2.955-2.68-4.8-5.788-5.141-8.798C94.549,241.581,96.883,235.538,100.195,229.834z"/>
				<path fill="#D9CDBE" d="M100.049,230.503c1.395-2.479,3.372-3.291,6.249-4.146c4.866-1.447,10.796-2.788,18.11-2.788      c7.197,0,14.372,1.201,20.665,2.593c3.998,0.884,7.138,1.813,9.162,4.341c4.984,6.225,7.776,12.093,6.529,16.415      c-1.079,3.738-4.212,6.694-9.639,8.909c-5.702,2.328-13.408,3.981-22.183,5.409c-12.765,2.063-22.851-1.421-28.607-6.542      c-2.947-2.632-4.81-5.686-5.186-8.654C94.633,241.957,96.906,236.088,100.049,230.503z"/>
				<path fill="#D9CCBD" d="M99.903,231.173c1.372-2.516,3.342-3.221,6.301-3.99c4.862-1.263,10.839-2.469,18.205-2.469      c7.252,0,14.487,1.065,20.782,2.282c4.096,0.792,7.25,1.616,9.223,4.177c4.743,6.157,7.308,11.844,5.936,16.113      c-1.161,3.612-4.25,6.505-9.591,8.66c-5.641,2.277-13.234,3.895-21.869,5.296c-12.636,2.035-22.634-1.373-28.38-6.404      c-2.939-2.584-4.819-5.584-5.231-8.509C94.717,242.335,96.924,236.635,99.903,231.173z"/>
				<path fill="#D9CBBC" d="M99.756,231.843c1.349-2.555,3.311-3.155,6.353-3.833c4.855-1.083,10.882-2.151,18.299-2.151      c7.308,0,14.603,0.926,20.899,1.971c4.195,0.697,7.361,1.418,9.283,4.014c4.505,6.085,6.843,11.595,5.343,15.81      c-1.24,3.485-4.289,6.315-9.544,8.411c-5.581,2.226-13.06,3.808-21.555,5.182c-12.506,2.006-22.418-1.326-28.153-6.265      c-2.931-2.536-4.828-5.482-5.275-8.365C94.801,242.712,96.939,237.178,99.756,231.843z"/>
				<path fill="#DACABC" d="M99.61,232.513c1.325-2.594,3.278-3.09,6.405-3.677c4.846-0.909,10.926-1.833,18.394-1.833      c7.364,0,14.72,0.782,21.016,1.66c4.294,0.599,7.474,1.218,9.344,3.85c4.271,6.009,6.381,11.344,4.751,15.508      c-1.314,3.358-4.328,6.126-9.497,8.162c-5.521,2.175-12.886,3.722-21.24,5.069c-12.377,1.978-22.202-1.278-27.926-6.127      c-2.923-2.488-4.837-5.379-5.32-8.22C94.886,243.089,96.95,237.719,99.61,232.513z"/>
				<path fill="#DAC9BB" d="M99.463,233.182c1.301-2.634,3.244-3.029,6.457-3.521c4.836-0.74,10.969-1.515,18.488-1.515      c7.419,0,14.839,0.634,21.132,1.349c4.395,0.499,7.586,1.017,9.404,3.686c4.039,5.93,5.922,11.092,4.158,15.206      c-1.385,3.231-4.367,5.937-9.449,7.913c-5.46,2.124-12.713,3.636-20.926,4.955c-12.248,1.949-21.986-1.23-27.699-5.989      c-2.915-2.44-4.845-5.277-5.365-8.075C94.971,243.466,96.958,238.257,99.463,233.182z"/>
				<path fill="#DAC8BA" d="M99.317,233.852c1.276-2.675,3.21-2.971,6.509-3.365c4.824-0.576,11.012-1.196,18.582-1.196      c7.475,0,14.958,0.483,21.249,1.039c4.495,0.397,7.7,0.815,9.465,3.522c3.812,5.846,5.467,10.84,3.565,14.903      c-1.453,3.104-4.406,5.747-9.402,7.664c-5.4,2.072-12.539,3.549-20.611,4.842c-12.119,1.921-21.77-1.183-27.472-5.85      c-2.906-2.391-4.853-5.175-5.41-7.931C95.057,243.844,96.961,238.792,99.317,233.852z"/>
				<path fill="#DBC7B9" d="M99.171,234.522c1.25-2.717,3.337-2.133,6.561-3.208c4.582-1.528,11.056-0.878,18.677-0.878      c7.531,0,15.093,1.326,21.366,0.728c4.585-0.437,7.814,0.612,9.525,3.358c3.587,5.758,5.016,10.588,2.973,14.601      c-1.516,2.978-4.445,5.557-9.355,7.415c-5.34,2.021-12.365,3.463-20.297,4.728c-11.99,1.892-21.554-1.135-27.245-5.712      c-2.898-2.343-4.86-5.072-5.455-7.786C95.144,244.221,96.961,239.325,99.171,234.522z"/>
				<path fill="#DBC6B8" d="M99.024,235.192c1.223-2.76,3.278-2.068,6.613-3.052c4.611-1.36,11.099-0.56,18.771-0.56      c7.586,0,15.234,1.153,21.482,0.417c4.668-0.55,7.93,0.407,9.586,3.194c3.367,5.668,4.569,10.337,2.38,14.299      c-1.576,2.853-4.484,5.367-9.308,7.166c-5.28,1.969-12.191,3.377-19.983,4.614c-11.86,1.864-21.337-1.087-27.018-5.574      c-2.89-2.295-4.867-4.97-5.499-7.642C95.231,244.598,96.957,239.856,99.024,235.192z"/>
				<path fill="#DBC6B7" d="M98.878,235.861c1.195-2.804,3.216-2.012,6.665-2.896c4.64-1.188,11.142-0.242,18.866-0.242      c7.642,0,15.374,0.97,21.599,0.106c4.753-0.66,8.046,0.2,9.646,3.031c3.15,5.573,4.126,10.086,1.787,13.996      c-1.632,2.729-4.524,5.177-9.26,6.917c-5.22,1.918-12.018,3.29-19.668,4.501c-11.731,1.835-21.121-1.04-26.791-5.436      c-2.882-2.247-4.874-4.867-5.544-7.497C95.319,244.976,96.95,240.384,98.878,235.861z"/>
				<path fill="#DBC5B6" d="M98.732,236.531c1.166-2.849,3.155-1.966,6.717-2.739c4.669-1.013,11.186,0.077,18.96,0.077      c7.698,0,15.51,0.78,21.716-0.204c4.837-0.767,8.165-0.007,9.707,2.867c2.938,5.476,3.688,9.838,1.194,13.694      c-1.685,2.607-4.563,4.987-9.213,6.668c-5.161,1.866-11.844,3.204-19.354,4.387c-11.602,1.807-20.905-0.992-26.564-5.297      c-2.874-2.199-4.88-4.765-5.589-7.352C95.408,245.353,96.939,240.911,98.732,236.531z"/>
				<path fill="#DCC4B5" d="M98.585,237.201c1.136-2.895,3.093-1.93,6.769-2.583c4.698-0.834,11.229,0.395,19.054,0.395      c7.753,0,15.644,0.581,21.833-0.515c4.923-0.872,8.285-0.216,9.767,2.703c2.729,5.375,3.254,9.592,0.602,13.392      c-1.735,2.486-4.602,4.796-9.166,6.419c-5.101,1.814-11.67,3.118-19.04,4.274c-11.473,1.779-20.689-0.945-26.337-5.159      c-2.866-2.151-4.886-4.662-5.634-7.208C95.497,245.73,96.924,241.435,98.585,237.201z"/>
				<path fill="#DCC3B4" d="M98.439,237.871c1.103-2.941,3.033-1.904,6.821-2.427c4.726-0.652,11.272,0.713,19.149,0.713      c7.809,0,15.774,0.375,21.949-0.826c5.01-0.975,8.407-0.426,9.828,2.539c2.526,5.272,2.824,9.35,0.009,13.09      c-1.782,2.367-4.642,4.605-9.118,6.17c-5.041,1.761-11.496,3.031-18.725,4.16c-11.343,1.75-20.473-0.897-26.11-5.021      c-2.858-2.103-4.891-4.56-5.679-7.063C95.588,246.108,96.906,241.958,98.439,237.871z"/>
				<path fill="#DCC2B3" d="M98.293,238.54c1.069-2.989,2.976-1.888,6.873-2.27c4.752-0.467,11.316,1.032,19.243,1.032      c7.865,0,15.783-0.663,22.066-1.137c5.195-0.392,8.532-0.638,9.888,2.375c2.326,5.167,2.399,9.111-0.584,12.787      c-1.826,2.251-4.681,4.415-9.071,5.921c-4.981,1.709-11.322,2.945-18.411,4.047c-11.214,1.722-20.257-0.849-25.883-4.882      c-2.85-2.055-4.895-4.458-5.723-6.918C95.678,246.484,96.884,242.479,98.293,238.54z"/>
				<path fill="#DDC1B3" d="M98.146,239.21c1.032-3.038,2.946-2.618,6.925-2.114c4.747,0.601,11.359,1.35,19.338,1.35      c7.92,0,15.898-0.837,22.183-1.447c5.293-0.514,8.659-0.851,9.949,2.212c2.131,5.06,1.978,8.877-1.176,12.485      c-1.868,2.137-4.721,4.224-9.024,5.672c-4.922,1.656-11.149,2.859-18.096,3.933c-11.085,1.693-20.04-0.802-25.656-4.744      c-2.842-2.007-4.899-4.356-5.768-6.774C95.77,246.861,96.859,242.999,98.146,239.21z"/>
				<path fill="#DDC0B2" d="M98,239.88c0.993-3.087,2.917-2.587,6.977-1.958c4.744,0.735,11.402,1.668,19.432,1.668      c7.976,0,16.011-1.012,22.3-1.758c5.389-0.639,8.789-1.064,10.009,2.048c1.941,4.951,1.561,8.648-1.769,12.183      c-1.909,2.026-4.76,4.032-8.977,5.422c-4.862,1.603-10.975,2.772-17.782,3.82c-10.956,1.665-19.824-0.754-25.429-4.606      c-2.834-1.959-4.903-4.254-5.813-6.629C95.862,247.238,96.83,243.518,98,239.88z"/>
				<path fill="#DDBFB1" d="M97.853,240.55c0.95-3.137,2.891-2.559,7.029-1.801c4.744,0.868,11.445,1.986,19.526,1.986      c8.031,0,16.123-1.19,22.416-2.069c5.484-0.766,8.923-1.279,10.07,1.884c1.755,4.841,1.147,8.425-2.362,11.88      c-1.948,1.918-4.8,3.841-8.929,5.173c-4.803,1.55-10.801,2.686-17.468,3.706c-10.827,1.636-19.608-0.706-25.201-4.468      c-2.826-1.911-4.905-4.152-5.858-6.485C95.956,247.614,96.798,244.036,97.853,240.55z"/>
				<path fill="#DEBEB0" d="M97.707,241.219c0.903-3.189,2.866-2.533,7.081-1.645c4.745,1,11.489,2.305,19.621,2.305      c8.087,0,16.233-1.368,22.533-2.38c5.579-0.895,9.06-1.495,10.13,1.72c1.574,4.73,0.737,8.208-2.955,11.578      c-1.986,1.813-4.84,3.649-8.882,4.924c-4.744,1.497-10.627,2.6-17.153,3.592c-10.697,1.608-19.392-0.659-24.974-4.329      c-2.818-1.863-4.907-4.051-5.903-6.34C96.05,247.989,96.763,244.553,97.707,241.219z"/>
				<path fill="#DEBDAF" d="M97.561,241.889c0.852-3.241,2.843-2.509,7.133-1.489c4.748,1.13,11.532,2.623,19.715,2.623      c8.143,0,16.342-1.549,22.65-2.69c5.672-1.027,9.202-1.711,10.191,1.556c1.398,4.619,0.33,7.998-3.547,11.276      c-2.024,1.71-4.88,3.457-8.835,4.675c-4.685,1.443-10.453,2.513-16.839,3.479c-10.568,1.579-19.176-0.611-24.747-4.191      c-2.81-1.815-4.908-3.951-5.947-6.195C96.144,248.364,96.724,245.07,97.561,241.889z"/>
				<path fill="#DEBCAE" d="M97.414,242.559c0.796-3.294,2.822-2.488,7.185-1.332c4.754,1.259,11.575,2.941,19.81,2.941      c8.198,0,16.45-1.73,22.767-3.001c5.764-1.16,9.349-1.927,10.251,1.393c1.226,4.508-0.075,7.796-4.14,10.973      c-2.061,1.611-4.92,3.265-8.788,4.426c-4.625,1.389-10.28,2.427-16.525,3.365c-10.439,1.551-18.96-0.563-24.52-4.053      c-2.801-1.767-4.909-3.85-5.992-6.051C96.24,248.739,96.683,245.587,97.414,242.559z"/>
				<path fill="#DFBBAD" d="M97.268,243.229c0.734-3.347,2.803-2.468,7.237-1.176c4.762,1.387,11.619,3.259,19.904,3.259      c8.254,0,16.556-1.912,22.883-3.312c5.854-1.295,9.5-2.144,10.312,1.229c1.058,4.399-0.478,7.601-4.733,10.671      c-2.099,1.515-4.96,3.073-8.74,4.177c-4.566,1.334-10.106,2.341-16.21,3.252c-10.31,1.522-18.743-0.516-24.293-3.914      c-2.793-1.718-4.908-3.751-6.037-5.906C96.336,249.113,96.638,246.104,97.268,243.229z"/>
				<path fill="#DFBAAC" d="M97.122,243.898c0.664-3.402,2.785-2.449,7.288-1.02c4.773,1.515,11.662,3.578,19.998,3.578      c8.31,0,16.66-2.096,23-3.623c5.943-1.431,9.657-2.361,10.372,1.065c0.896,4.29-0.88,7.414-5.325,10.369      c-2.138,1.421-5,2.88-8.693,3.928c-4.507,1.279-9.932,2.255-15.896,3.138c-10.181,1.494-18.527-0.468-24.066-3.776      c-2.785-1.67-4.907-3.652-6.082-5.762C96.433,249.486,96.59,246.621,97.122,243.898z"/>
				<path fill="#DFB9AB" d="M96.975,244.568c0.586-3.456,2.77-2.432,7.34-0.864c4.785,1.643,11.705,3.896,20.093,3.896      c8.365,0,16.763-2.28,23.117-3.933c6.031-1.569,9.82-2.577,10.433,0.901c0.737,4.184-1.282,7.234-5.918,10.066      c-2.178,1.331-5.04,2.687-8.646,3.679c-4.449,1.224-9.758,2.168-15.582,3.025c-10.051,1.465-18.311-0.421-23.839-3.638      c-2.777-1.622-4.905-3.554-6.127-5.617C96.53,249.859,96.539,247.14,96.975,244.568z"/>
				<path fill="#E0B8AB" d="M96.829,245.238c0.498-3.511,2.756-2.417,7.392-0.707c4.8,1.77,11.749,4.214,20.187,4.214      c8.421,0,16.864-2.465,23.234-4.244c6.117-1.709,9.989-2.792,10.493,0.737c0.583,4.081-1.685,7.062-6.511,9.764      c-2.22,1.243-5.08,2.493-8.598,3.43c-4.39,1.168-9.584,2.082-15.267,2.911c-9.922,1.437-18.095-0.373-23.612-3.499      c-2.769-1.574-4.903-3.457-6.171-5.472C96.628,250.231,96.485,247.66,96.829,245.238z"/>
				<path fill="#E0B7AA" d="M96.683,245.908c0.398-3.565,2.745-2.402,7.444-0.551c4.817,1.897,11.792,4.532,20.282,4.532      c8.477,0,16.963-2.65,23.35-4.555c6.202-1.85,10.165-3.005,10.554,0.573c0.432,3.982-2.088,6.897-7.104,9.462      c-2.264,1.158-5.12,2.3-8.551,3.181c-4.331,1.112-9.411,1.996-14.953,2.798c-9.793,1.408-17.879-0.325-23.385-3.361      c-2.761-1.526-4.9-3.36-6.216-5.328C96.727,250.601,96.429,248.182,96.683,245.908z"/>
				<path fill="#E0B6A9" d="M96.536,246.577c0.283-3.617,2.735-2.388,7.496-0.395c4.836,2.024,11.835,4.851,20.376,4.851      c8.532,0,17.061-2.836,23.467-4.866c6.285-1.992,10.348-3.217,10.614,0.41c0.285,3.887-2.494,6.738-7.696,9.159      c-2.31,1.075-5.16,2.106-8.504,2.932c-4.272,1.056-9.237,1.909-14.638,2.684c-9.664,1.38-17.663-0.278-23.158-3.223      c-2.753-1.478-4.896-3.265-6.261-5.183C96.825,250.971,96.369,248.708,96.536,246.577z"/>
				<path fill="#E1B5A8" d="M96.39,247.247c0.152-3.667,2.726-2.374,7.548-0.238c4.858,2.152,11.878,5.169,20.47,5.169      c8.588,0,17.158-3.021,23.584-5.177c6.367-2.135,10.538-3.425,10.675,0.246c0.141,3.797-2.902,6.586-8.289,8.857      c-2.358,0.994-5.202,1.907-8.457,2.683c-4.215,0.993-9.063,1.823-14.324,2.57c-9.534,1.351-17.446-0.23-22.931-3.085      c-2.745-1.43-4.891-3.171-6.306-5.038C96.925,251.339,96.308,249.238,96.39,247.247z"/>
				<path fill="#E1B4A7" d="M158.844,247.917c0,3.712-3.313,6.439-8.882,8.555c-5.569,2.116-13.394,3.621-22.419,4.891      c-9.405,1.323-17.23-0.182-22.704-2.946c-2.737-1.382-4.886-3.079-6.351-4.894c-1.465-1.815-2.245-3.749-2.245-5.605      c0-3.713,2.72-2.362,7.6-0.082s11.922,5.487,20.565,5.487c8.644,0,17.252-3.208,23.7-5.487      C154.557,245.555,158.844,244.204,158.844,247.917z"/>
				<path fill="#E1B4A7" d="M96.244,247.917c1.354,1.504,2.941,3.119,4.996,4.47c1.549,1.018,3.226,1.868,5.134,2.652      c4.512,1.855,10.581,2.995,19.603,2.304c5.004-0.383,9.764-1.247,14.017-2.331c2.323-0.589,4.482-1.25,6.438-1.948      c1.603-0.572,3.09-1.159,4.433-1.741c2.635-1.136,4.684-2.313,6.096-3.048c1.173-0.611,1.883-0.745,1.883-0.357      c0-1.856-2.144-1.181-5.368-0.041"/>
				<path fill="#E1B4A7" d="M96.244,247.917c2.709,0.695,4.743,1.38,6.541,2.017c1.798,0.637,3.359,1.226,5.122,1.728      c3.526,1.004,7.858,1.661,16.501,1.661c4.322,0,8.635-0.802,12.674-1.889c2.019-0.543,3.97-1.158,5.819-1.779      c1.849-0.621,3.596-1.249,5.208-1.819c3.224-1.14,5.908-2.047,7.786-2.206c1.878-0.159,2.95,0.432,2.95,2.288"/>
			</g>
			<path fill="#E1B4A7" d="M107.079,259.491c1.152,0.426,2.367,0.805,3.66,1.135c-0.419,7.95,3.557,22.386,6.067,1.256     c2.3-0.209,2.3-0.209,2.3-0.209s0.21,8.368,2.094,8.368c1.882,0,3.347-9.204,3.347-9.204l2.721,0.418     c0,0-0.42,13.808,2.718,13.808c3.139,0,3.767-14.645,3.767-14.645l11.924-2.72c0,0-1.045,13.806,1.884,13.387     c2.929-0.418,4.811-14.434,4.811-14.434s2.993-2.172,6.474-4.288C158.8,252.356,117.461,245.546,107.079,259.491z"/>
			<path fill="none" stroke="#000000" stroke-linecap="round" stroke-linejoin="round" stroke-miterlimit="10" d="M91.1,224.387     c0,0,5.617-8.37,8.531-14.485c2.911-6.115,15.433-23.589,18.927-22.133c3.495,1.458,17.764,18.348,20.093,21.841"/>
			<path fill="none" stroke="#000000" stroke-linecap="round" stroke-linejoin="round" stroke-miterlimit="10" d="M152.629,221.84     c0,0,20.256,24.082,39.02,30.523"/>
			<path fill="none" stroke="#000000" stroke-linecap="round" stroke-linejoin="round" stroke-miterlimit="10" d="M308.437,235.101     c0,0-3.414-9.667-6.322-15.037c-2.909-5.37-7.832-21.255-7.832-28.192"/>
			<path fill="none" stroke="#000000" stroke-linecap="round" stroke-linejoin="round" stroke-miterlimit="10" d="M354.671,244.308     c0,0,1.591-12.69,2.038-19.922c0.446-7.23-0.447-14.93,6.04-18.351"/>
			<path fill="none" stroke="#000000" stroke-linecap="round" stroke-linejoin="round" stroke-miterlimit="10" d="M370.363,255.815     c0,0,5.141,2.411,13.195,0"/>
			<path fill="none" stroke="#000000" stroke-linecap="round" stroke-linejoin="round" stroke-miterlimit="10" d="M407.806,250.415     c0,0-3.665,3.211-8.362,4.33"/>
			<path opacity="0.3" d="M70.328,229.944l-0.11-0.23C70.217,229.714,70.245,229.805,70.328,229.944z"/>
			<polygon points="311.497,248.488 311.497,248.488 311.497,248.488    "/>
			<path opacity="0.3" d="M276.435,246.162c0.261-0.045,0.521-0.094,0.788-0.142c0.144-0.031,0.292-0.062,0.438-0.092     c0.25-0.049,0.5-0.103,0.755-0.157c0.157-0.035,0.316-0.07,0.477-0.107c0.251-0.056,0.504-0.115,0.757-0.175     c0.159-0.038,0.321-0.078,0.483-0.118c0.265-0.066,0.533-0.134,0.803-0.201c0.15-0.04,0.302-0.079,0.454-0.119     c0.29-0.075,0.584-0.156,0.876-0.236c0.139-0.038,0.273-0.075,0.412-0.112c0.332-0.093,0.668-0.19,1.005-0.287     c0.099-0.028,0.197-0.057,0.297-0.086c0.889-0.262,1.788-0.538,2.69-0.824c0.077-0.025,0.156-0.053,0.235-0.078     c0.363-0.114,0.728-0.232,1.092-0.354c0.13-0.044,0.26-0.086,0.391-0.13c0.318-0.106,0.635-0.212,0.952-0.32     c0.137-0.048,0.275-0.095,0.413-0.14c0.312-0.107,0.626-0.216,0.937-0.325c0.135-0.046,0.268-0.094,0.402-0.141     c0.31-0.108,0.619-0.219,0.928-0.329c0.134-0.047,0.268-0.096,0.399-0.145c0.318-0.112,0.636-0.227,0.95-0.344     c0.114-0.043,0.23-0.085,0.346-0.128c0.353-0.13,0.705-0.26,1.054-0.391c0.072-0.027,0.146-0.052,0.219-0.079     c0.85-0.318,1.681-0.636,2.487-0.949c0.091-0.036,0.18-0.07,0.271-0.105c0.294-0.115,0.586-0.229,0.871-0.341     c0.158-0.063,0.311-0.123,0.466-0.186c0.214-0.084,0.429-0.169,0.639-0.251c0.173-0.071,0.344-0.139,0.514-0.206     c0.186-0.075,0.37-0.15,0.55-0.224c0.174-0.069,0.349-0.14,0.521-0.209c0.166-0.068,0.33-0.136,0.493-0.201     c0.172-0.07,0.345-0.143,0.513-0.211c0.141-0.058,0.278-0.115,0.414-0.172c0.185-0.076,0.37-0.15,0.548-0.227     c0.085-0.034,0.165-0.069,0.248-0.102c1.878-0.784,3.331-1.415,4.151-1.776c-1.699-5.572-3.56-11.318-4.652-13.603     c-2.396-5.009-7.62-21.961-7.62-21.961s-3.382-17.694,2.747-43.576c-7.968,28.666-6.742,46.895-11.032,49.733     c-3.921,2.592-13.468-29.702-12.743-45.684c-2.3,11.162-7.753,33.726-14.167,45.684c-10.034,18.699-37.378,27.972-68.365,23.678     c-30.986-4.292-31.189-11.611-31.393-16.228c11.441,5.193,18.184,3.137,18.184,3.137s-27.582-8.661-36.776-8.204     c-1.658,0.082-2.998-0.065-4.095-0.354c8.881,10.616,25.998,30.418,0.893,47.75c-5.16,3.561-8.84,6.843-11.35,9.825     c0.154,4.042,0.727,9.422,2.685,9.422c3.139,0,3.767-14.645,3.767-14.645l11.924-2.72c0,0-1.045,13.806,1.884,13.387     c2.929-0.418,4.811-14.434,4.811-14.434s12.972-9.415,16.319-8.16c3.346,1.258,11.088,3.346,15.271,3.767     c4.185,0.419,11.716-0.418,14.016,0.838c2.303,1.254,14.018,8.367,21.549,6.483c7.531-1.881,11.506-4.811,14.853-5.229     c3.347-0.419,28.452-6.275,40.586-7.949c0.358-0.051,0.728-0.107,1.104-0.171C276.19,246.211,276.313,246.185,276.435,246.162z"/>
			<path fill="none" stroke="#000000" stroke-linecap="round" stroke-linejoin="round" stroke-miterlimit="10" d="M430.239,23.137     c0,0-32.299-6.211-81.99-4.14c-49.69,2.069-110.976,10.351-151.142,11.179c-40.167,0.83-56.316-4.14-74.122-3.312     c-17.807,0.826-53.831-1.656-65.012,0.826C46.792,30.177,16.06,85.188,27.33,132.044c11.845,49.245,14.078,77.437,12.835,93.169     c0,0-6.625,28.159-11.18,35.613c-4.554,7.454-2.071,13.666,1.657,21.532c3.727,7.869,6.626,39.752,6.626,50.932     c0,11.181,1.658,22.191,0.185,24.928c-2.987,5.547,2.626,5.486,2.88,7.322c0.214,1.549,0.593,5.565,2.016,6.422     c4.269,2.572,19.17-0.425,25.691-2.91c0.323-8.201-7.705-6.98-8.37-10.598c-3.593-19.585-2.902-43.302-0.455-49.593     c2.898-7.453,8.696-19.463,9.108-25.261c0.416-5.796,12.011-24.016,13.666-33.54c1.657-9.523,4.554-19.462,9.11-25.674     c-0.414,23.188,4.995,32.476,19.64,36.239c-0.419,7.95,3.557,22.386,6.067,1.256c2.3-0.209,2.3-0.209,2.3-0.209     s0.21,8.368,2.094,8.368c1.882,0,3.347-9.204,3.347-9.204l2.721,0.418c0,0-0.42,13.808,2.718,13.808     c3.139,0,3.767-14.645,3.767-14.645l11.924-2.72c0,0-1.045,13.806,1.884,13.387c2.929-0.418,4.811-14.434,4.811-14.434     s12.972-9.415,16.319-8.16c3.346,1.258,11.088,3.346,15.271,3.767c4.185,0.419,11.716-0.418,14.016,0.838     c2.303,1.254,14.018,8.367,21.549,6.483c7.531-1.881,11.506-4.811,14.853-5.229c3.347-0.419,28.452-6.275,40.586-7.949     c12.133-1.673,33.473-11.299,33.473-11.299s6.277,25.524,7.323,38.286c1.046,12.76,5.229,27.402,7.321,36.4     c2.092,8.996-1.137,43.965-1.137,46.268c0,2.302-1.749,5.06-0.493,7.358c1.255,2.302,3.212,3.518,3.212,3.518l-0.324,5.767     c0,0,12.816,1.96,23.903-2.64c0.73-5.703-4.387-8.192-5.06-10.978c-5.537-22.92-2.122-34.903-0.775-39.67     c1.595-5.647,8.708-11.088,8.08-28.241c-0.627-17.152-0.837-26.986,0.628-32.426c1.466-5.44,3.557-14.435,3.557-14.435     s9.625,8.368,15.691,11.507c-0.211,8.785,4.442,33.592,7.361,47.447c2.918,13.859,3.541,44.603,2.446,46.608     c-0.411,0.754-2.556,3.236-1.895,6.32c0.548,2.551,1.595,3.207,1.595,3.207l1.274,4.168c0,0,19.876,2.478,25.797-2.086     c-0.084-3.619-3.195-7.83-4.853-12.754c-1.656-4.924-3.827-32.772-1.816-38.684c2.725-8.016,4.327-13.145,4.487-19.235     c0.161-6.091,0.962-35.584,3.046-40.393c8.977-6.252,33.181-41.837,37.669-52.577c4.489-10.739,9.458-22.922,13.305-33.502     c3.848-10.577,13.498-19.275,23.099-26.307C481.541,112.883,430.239,23.137,430.239,23.137z"/>
			<path opacity="0.3" d="M91.079,226.649c0,0.245,0.004,0.482,0.005,0.726c0.002,0.488,0.005,0.978,0.015,1.453     c0.004,0.278,0.013,0.548,0.02,0.82c0.012,0.43,0.021,0.854,0.039,1.273c0.01,0.277,0.023,0.554,0.036,0.827     c0.021,0.402,0.04,0.801,0.064,1.194c0.016,0.265,0.033,0.527,0.052,0.789c0.029,0.39,0.059,0.775,0.093,1.156     c0.021,0.249,0.043,0.494,0.066,0.734c0.038,0.391,0.08,0.771,0.124,1.149c0.024,0.22,0.049,0.443,0.076,0.659     c0.053,0.413,0.109,0.816,0.171,1.215c0.024,0.167,0.047,0.338,0.074,0.504c0.086,0.548,0.179,1.086,0.28,1.609     c0.002,0.011,0.005,0.023,0.006,0.032c0.108,0.55,0.221,1.085,0.345,1.605c0.021,0.088,0.045,0.173,0.066,0.261     c0.102,0.418,0.206,0.832,0.317,1.235c0.04,0.141,0.082,0.275,0.123,0.413c0.101,0.341,0.203,0.679,0.311,1.009     c0.049,0.15,0.102,0.299,0.153,0.449c0.105,0.308,0.215,0.61,0.33,0.909c0.057,0.146,0.114,0.292,0.171,0.438     c0.118,0.293,0.24,0.579,0.365,0.859c0.06,0.137,0.121,0.273,0.185,0.408c0.133,0.283,0.27,0.563,0.41,0.836     c0.061,0.117,0.121,0.238,0.184,0.356c0.158,0.295,0.323,0.581,0.491,0.863c0.052,0.086,0.101,0.174,0.151,0.258     c0.218,0.354,0.441,0.699,0.676,1.032c0.005,0.009,0.011,0.018,0.016,0.025c6.975-26.208,18.74-54.416,36.47-49.293     c-7.281-8.224-15.492-14.773-15.492-14.773s-7.647,6.454-7.648,6.454c3.736-2.725,5.436-15.389,7.195-19.957     c1.756-4.563,6.007-15.924-1.573-17.713c-5.132-1.209-14.483,4.495-18.433,7.055c-8.973,5.816-8.295,18.287-6.541,27.474     c0.859,4.497,4.401,10.724,3.826,15.115c-0.615,4.691-6.771,11.677-9.386,15.729c-6.584,10.197-14.694,2.547-14.694,2.547     s5.338,7.65,6.725,7.65c-4.914,0-6.271-1.507-6.614-2.093l4.486,9.58c0,0-3.977,25.145-8.791,28.889     c-4.814,3.744-9.094,16.056-8.023,20.599c1.069,4.544-6.955,13.761-9.094,18.782c-1.841,4.318,2.844,14.559,8.363,26.985     c-0.376-11.848,0.46-22.1,1.946-25.918c2.898-7.453,8.696-19.463,9.108-25.261c0.416-5.796,12.011-24.016,13.666-33.54     c1.657-9.523,4.554-19.462,9.11-25.674C91.085,225.156,91.08,225.91,91.079,226.649z"/>
			<g>
				<path fill="#EBEBEB" d="M456.123,19.754c-3.25,2.726-5.288,6.948-8.994,3.358c-3.558-3.444-16.198-10.072-23.048-10.072      c-8.826,0-29.499,5.548-29.579,14.897c-0.086,9.977,17.94,20.326,25.807,21.52c12.476,1.889,11.702-4.329,19.716-2.405      c-1.763,2.886-0.32,1.072-0.32,1.072h0.962l-0.32,1.763c0,0,2.181,1.316,2.181,2.967c0,1.65-0.329,5.776-0.164,7.26      c0.164,1.484,3.794,9.896,3.794,11.714c0,1.812,4.618,19.63,12.042,32.005c7.424,12.37,16.498,22.765,16.498,27.218      c0,4.454,1.485,5.278,5.114,5.939c3.629,0.659,5.113,7.258,18.145,6.927c13.033-0.328,14.518-6.597,16.662-6.927      c2.146-0.33,6.766,0.164,7.754-3.961c0.989-4.123,3.135-14.352,0-23.919c-3.134-9.569-4.95-14.518-2.31-22.931      c2.64-8.414,9.734-22.271,10.724-27.715c2.952,0.078,13.016,0.971,23.131-2.01c11.369-3.35,21.278-10.893,21.278-16.543      c0-9.563-18.529-16.75-27.052-16.554c-10.457,0.241-14.505,4.04-19.504,4.586c-9.073,0.989-18.276-26.23-36.588-27.385      C473.739-0.596,460.953,15.702,456.123,19.754z"/>
				<path fill="#2B2B2B" d="M575.195,39.911c0-9.563-18.529-16.75-27.052-16.554c-10.457,0.241-14.505,4.04-19.504,4.586      c-6.257,0.684-12.574-12.046-21.897-20.395c0.198,0.831,0.523,1.618,1.026,2.312c2.714,3.742,1.927,11.197,2.731,14.093      c0.805,2.899,5.451,10.537,5.451,10.537s-2.569,10.273-3.664,12.38c-1.094,2.107,0.305,3.425,0,6.47      c-0.305,3.046-0.485,10.651,0,16.184c0.486,5.531,2.675,10.536,4.122,17.909c1.429,7.288,3.576,14.078,3.627,14.239      c-1.476-5.332-1.838-9.552,0.026-15.493c2.64-8.414,9.734-22.271,10.724-27.715c2.952,0.078,13.016,0.971,23.131-2.01      C565.286,53.103,575.195,45.56,575.195,39.911z"/>
				<path fill="#2B2B2B" d="M476.769,99.024l5.109-2.109l2.97-2.855c0.337-10.351-12.098-45.347-12.098-45.347l0.027-4.607      c0,0,0.89-2.788,0-6.711c-0.89-3.926-0.027-4.61-0.027-4.61s-3.52-2.803-5.885-8.225c-2.364-5.423,0-14.699,0-14.699l0,0      c-4.975,3.983-8.624,8.114-10.742,9.894c-3.25,2.726-5.288,6.948-8.994,3.358c-3.558-3.444-16.198-10.072-23.048-10.072      c-8.826,0-29.499,5.548-29.579,14.897c-0.086,9.977,17.94,20.326,25.807,21.52c12.476,1.889,11.702-4.329,19.716-2.405      c-1.763,2.886-0.32,1.072-0.32,1.072h0.962l-0.32,1.763c0,0,2.181,1.316,2.181,2.967c0,1.65-0.329,5.776-0.164,7.26      c0.164,1.484,3.794,9.896,3.794,11.714c0,1.288,2.335,10.666,6.352,20.425c3.345,2.774,8.987,7.355,11.274,8.614      c3.345,1.845,11.553,0,11.553,0L476.769,99.024z"/>
				<path opacity="0.5" d="M438.143,22.05c0,0-24.993-10.26-35.039,1.922c-6.279,7.614,24.15-0.642,23.724,3.206      c-0.428,3.848-5.985,11.114,0,11.541c5.985,0.429,10.045,3.85,0,9.833c13.252-3.634,23.528-11.665,21.62-16.029      C446.539,28.157,445.22,24.861,438.143,22.05z"/>
				<path fill="none" stroke="#000000" stroke-linecap="round" stroke-linejoin="round" stroke-miterlimit="10" d="M456.123,19.754      c-3.25,2.726-5.288,6.948-8.994,3.358c-3.558-3.444-16.198-10.072-23.048-10.072c-8.826,0-29.499,5.548-29.579,14.897      c-0.086,9.977,17.94,20.326,25.807,21.52c12.476,1.889,11.702-4.329,19.716-2.405c-1.763,2.886-0.32,1.072-0.32,1.072h0.962      l-0.32,1.763c0,0,2.181,1.316,2.181,2.967c0,1.65-0.329,5.776-0.164,7.26c0.164,1.484,3.794,9.896,3.794,11.714      c0,1.812,4.618,19.63,12.042,32.005c7.424,12.37,16.498,22.765,16.498,27.218c0,4.454,1.485,5.278,5.114,5.939      c3.629,0.659,5.113,7.258,18.145,6.927c13.033-0.328,14.518-6.597,16.662-6.927c2.146-0.33,6.766,0.164,7.754-3.961      c0.989-4.123,3.135-14.352,0-23.919c-3.134-9.569-4.95-14.518-2.31-22.931c2.64-8.414,9.734-22.271,10.724-27.715      c2.952,0.078,13.016,0.971,23.131-2.01c11.369-3.35,21.278-10.893,21.278-16.543c0-9.563-18.529-16.75-27.052-16.554      c-10.457,0.241-14.505,4.04-19.504,4.586c-9.073,0.989-18.276-26.23-36.588-27.385C473.739-0.596,460.953,15.702,456.123,19.754      z"/>
				<path fill="none" stroke="#000000" stroke-linecap="round" stroke-linejoin="round" stroke-miterlimit="10" d="M442.387,56.454      c0.092-12.572,6.06-20.794,6.06-20.794s-0.388-3.495-0.038-4.192c0.349-0.698-2.992-4.737-2.992-4.737      s-12.075-10.071-23.743-8.156"/>
				<path fill="none" stroke="#000000" stroke-linecap="round" stroke-linejoin="round" stroke-miterlimit="10" d="M530.786,58.464      c0,0-0.063-8.091-0.069-15.362c-0.007-8.442,4.517-10.937,8.536-12.508s25.863-1.555,33.368,5.417"/>
				<path d="M461.818,54.546c0,0,9.964,0,10.96,10.961C465.604,68.897,458.43,64.711,461.818,54.546z"/>
				<path d="M524.323,53.34c0,0-9.534,2.901-7.296,13.677C524.876,68.17,530.521,62.079,524.323,53.34z"/>
				<path fill="#D5D8C8" d="M465.81,58.457c0,0.562-0.453,1.016-1.014,1.016c-0.561,0-1.014-0.454-1.014-1.016      c0-0.559,0.453-1.013,1.014-1.013C465.357,57.444,465.81,57.898,465.81,58.457z"/>
				<path fill="#D5D8C8" d="M522.371,58.457c0,0.562-0.453,1.016-1.015,1.016c-0.56,0-1.013-0.454-1.013-1.016      c0-0.559,0.453-1.013,1.013-1.013C521.918,57.444,522.371,57.898,522.371,58.457z"/>
				<path opacity="0.5" d="M574.765,37.408c-1.334-2.177-4.945-4.46-13.275-6.254c-19.464-4.19-28.249-0.229-30.161,7.196      c-1.332,5.167-0.58,13.775-0.367,20.119c1.694,0.055,5.344,0.313,9.911,0.083c0.059-0.058,0.096-0.096,0.096-0.096      c1.912-2.426,10.724-4.562,10.699-7.128c-0.023-2.563-6.418-2.993-6.961-5.557c-0.542-2.551,27.639,0.192,28.937-1.639      c0.058-0.086,0.107-0.168,0.16-0.252c0.117-0.193,0.265-0.42,0.424-0.679c0.624-1.137,0.968-2.247,0.968-3.292      C575.195,39.056,575.041,38.221,574.765,37.408z"/>
				<g>
					<path opacity="0.3" d="M520.062,86.179c0.408-1.3,0.93-2.74,1.512-4.247c-5.079-5.338-9.174-10.803-9.449-14.774       c0,0,0.106-22.074-6.638-23.052c1.248,2.523,3.143,8.438,3.32,12.349c-1.821-4.83-1.821-4.83-1.821-4.83       s0.146,9.992,1.821,17.485c1.675,7.494,0.601,18.735,5.01,25.727c-0.587-5.243-0.587-5.243-0.587-5.243       s3.036,13.05,5.745,15.236c2.71,2.186,0.779,10.243-3.631,15.235c-4.411,4.995-4.862,8.785-9.857,7.143       c-4.995-1.645-8.744-0.396-10.492,1.603c-1.598,1.824-7.698,9.389-14.4,8.43c3.132,1.367,5.306,6.981,17.362,6.677       c13.033-0.328,14.518-6.597,16.662-6.927c2.146-0.33,6.766,0.164,7.754-3.961c0.989-4.123,3.135-14.352,0-23.919       C519.239,99.54,517.422,94.592,520.062,86.179z"/>
					<polygon opacity="0.5" points="478.686,136.757 478.686,136.758 478.692,136.758      "/>
				</g>
				<path opacity="0.3" d="M475.599,68.336c0,0,3.663,0.279,5.58-1.673c-4.815-1.035-8.401-7.19-8.401-7.19s2.397,5.681-1.21,9.075      c-2.704,2.545-7.355,1.075-10.264-0.271c-3.051-1.412-4.187-4.13-5.374-7.083c-2.044-5.079-0.212-11.271,2.398-15.786      c1.147-1.979,3.032-4.491,2.894-6.901c-1.067,1.183-1.901,2.615-2.976,3.782c-0.057-1.467,0.647-5.197-0.246-6.204      c-0.143,0.254-0.442,0.454-0.582,0.693c0.045-1.696-0.684-3.533-0.975-5.212c-0.198-1.15-0.277-2.508-0.708-3.589      c-0.898,0.891-1.238,2.826-1.805,4.021c-0.575,1.214-1.009,2.421-1.666,3.601c-1.137,2.042-2.613,3.882-3.95,5.75      c-2.783,3.884-4.642,8.622-4.677,13.497c0.386-1.201,1.168-2.24,1.816-3.314c0.008,1.584-0.517,3.085-0.594,4.606      c1.179-2.576,2.746-4.96,4.036-7.468c0.108,1.089-0.348,2.269-0.344,3.403c0.004,0.849,0.002,1.693,0,2.542      c-0.001,1.764,0.439,3.252,0.751,4.974c0.599,3.294,0.308,6.753,0.324,10.105c0.017,3.195-0.46,6.364-0.305,9.56      c0.192,3.976,1.542,8.095,2.736,11.86c1.392,4.392,3.778,8.78,6.139,12.717c7.424,12.37,16.498,22.765,16.498,27.218      c0,0.791,0.049,1.463,0.147,2.043c3.843-13.558,1.749-19.553,0.82-22.329c1.148,5.77,1.202,7.955-0.229,12.519      c-4.185-1.945-6.2-6.148-7.474-17.181c-1.273-11.033,2.546-11.458,2.335-14.429c-0.213-2.971,3.605-15.911,3.605-15.911      L475.599,68.336z"/>
			</g>
			<g>
				<path fill="#D46E45" d="M341.029,370.974c0,0,4.888-2.286,7.539-1.612c4.138,4.661,5.855,13.577,5.855,13.577      s-5.33,0.343-8.938-0.098C341.879,382.403,341.029,370.974,341.029,370.974z"/>
				
					<path fill="none" stroke="#000000" stroke-width="1.1934" stroke-linecap="round" stroke-linejoin="round" stroke-miterlimit="10" d="      M341.029,370.974c0,0,4.888-2.286,7.539-1.612c4.138,4.661,5.855,13.577,5.855,13.577s-5.33,0.343-8.938-0.098      C341.879,382.403,341.029,370.974,341.029,370.974z"/>
				<path fill="#D46E45" d="M324.362,372.816c0,0,2.902,7.767,6.275,10.742c11.725,0.4,20.237-0.349,20.237-0.349      s-5.222-11.756-6.475-13.139C343.152,368.688,328.011,370.766,324.362,372.816z"/>
				
					<path fill="none" stroke="#000000" stroke-width="1.1934" stroke-linecap="round" stroke-linejoin="round" stroke-miterlimit="10" d="      M324.362,372.816c0,0,2.902,7.767,6.275,10.742c11.725,0.4,20.237-0.349,20.237-0.349s-5.222-11.756-6.475-13.139      C343.152,368.688,328.011,370.766,324.362,372.816z"/>
			</g>
			<g>
				<path fill="#D46E45" d="M59.915,370.474c0,0,5.142-2.407,7.934-1.698c4.351,4.906,6.158,14.288,6.158,14.288      s-5.607,0.358-9.405-0.102C60.809,382.498,59.915,370.474,59.915,370.474z"/>
				<path fill="none" stroke="#000000" stroke-linecap="round" stroke-linejoin="round" stroke-miterlimit="10" d="M59.915,370.474      c0,0,5.142-2.407,7.934-1.698c4.351,4.906,6.158,14.288,6.158,14.288s-5.607,0.358-9.405-0.102      C60.809,382.498,59.915,370.474,59.915,370.474z"/>
				<path fill="#D46E45" d="M42.378,372.41c0,0,3.055,8.175,6.603,11.304c12.337,0.421,21.293-0.366,21.293-0.366      s-5.495-12.368-6.813-13.824C62.148,368.067,46.219,370.257,42.378,372.41z"/>
				<path fill="none" stroke="#000000" stroke-linecap="round" stroke-linejoin="round" stroke-miterlimit="10" d="M42.378,372.41      c0,0,3.055,8.175,6.603,11.304c12.337,0.421,21.293-0.366,21.293-0.366s-5.495-12.368-6.813-13.824      C62.148,368.067,46.219,370.257,42.378,372.41z"/>
			</g>
			<g>
				<path fill="#B35A32" d="M398.756,361.65c0,0,5.257-2.46,8.107-1.735c4.449,5.014,6.295,14.599,6.295,14.599      s-5.73,0.369-9.609-0.103C399.671,373.937,398.756,361.65,398.756,361.65z"/>
				<path fill="none" stroke="#000000" stroke-linecap="round" stroke-linejoin="round" stroke-miterlimit="10" d="M398.756,361.65      c0,0,5.257-2.46,8.107-1.735c4.449,5.014,6.295,14.599,6.295,14.599s-5.73,0.369-9.609-0.103      C399.671,373.937,398.756,361.65,398.756,361.65z"/>
				<path fill="#B35A32" d="M380.839,363.629c0,0,3.12,8.353,6.748,11.549c12.604,0.431,21.757-0.375,21.757-0.375      s-5.614-12.639-6.962-14.127C401.04,359.19,384.764,361.428,380.839,363.629z"/>
				<path fill="none" stroke="#000000" stroke-linecap="round" stroke-linejoin="round" stroke-miterlimit="10" d="M380.839,363.629      c0,0,3.12,8.353,6.748,11.549c12.604,0.431,21.757-0.375,21.757-0.375s-5.614-12.639-6.962-14.127      C401.04,359.19,384.764,361.428,380.839,363.629z"/>
			</g>
			<path opacity="0.5" fill="#FFFFFF" enable-background="new    " d="M68.07,35.32c0.428-2.472,17.822-2.924,29.864-2.259     c12.042,0.663,45.922,2.259,42.87,4.519c-3.051,2.262-25.047-0.267-38.053,0C89.746,37.846,67.268,39.972,68.07,35.32z"/>
			<path fill="#494949" d="M463.877,48.552c0,0-4.838,5.073-2.077,4.788c2.761-0.283,8.918,2.078,9.859,4.104     C470.476,53.367,466.219,48.422,463.877,48.552z"/>
			<path fill="#494949" d="M515.344,60.606c0,0,2.747-8.323,9.155-8.636c-1.72-1.564-4.155-2.196-4.155-2.196     S515.423,51.743,515.344,60.606z"/>
			<path d="M524.323,53.34c0,0,2.914-0.47,3.769-1.667c-0.94,2.222-3.593,3.519-3.593,3.519"/>
			<path d="M461.818,54.546c0,0-0.541,0.479-3.068,0.071c0.656,1.928,3.068,2.017,3.068,2.017"/>
			<path fill="#EBEBEB" d="M16.825,71.064c-7.685,21.482-4.299,75.863-3.931,89.356c0.149,5.429,0.305,13.039,0.266,20.815     c-0.587,3.184-4.536,24.574-6.918,37.5c-2.577,13.989-7.362,36.812-2.577,44.543c4.786,7.732-6.662,17.669-2.043,23.928     c4.62,6.257,14.926,7.73,16.032,13.619c0,0-0.879-5.646-3.361-7.333c-2.483-1.689-9.733-5.564-6.754-14.202     c0.993,6.85,6.059,13.603,12.017,16.981c5.96,3.377,8.045,4.271,8.143,11.522c0.596-8.541-1.686-12.615-5.461-14.401     c-3.775-1.788-6.854-7.847-7.052-11.321c2.184,5.065,6.555,9.234,9.336,10.527c2.78,1.29,4.071,5.463,4.071,5.463     s-2.186-9.04-6.059-12.516c3.874,3.378,6.059,6.655,6.059,6.655s-0.099-7.945-3.973-13.902c-3.873-5.962-7.746-8.145-4.767-13.31     c2.979-5.164,4.867-10.326,4.47-26.318c-0.398-15.989-4.47-42.704-3.874-54.521c-0.026,0.102-0.053,0.211-0.079,0.316     c0.586-9.888,0.753-20.906-0.273-30.467c-2.635-24.504-1.457-64.887,3.578-81.351c5.034-16.466,19.729-22.237,22.654-23.071     l5.87-16.793C52.201,32.784,24.508,49.582,16.825,71.064z M13.152,182.178"/>
			<path fill="none" stroke="#000000" stroke-linecap="round" stroke-linejoin="round" stroke-miterlimit="10" d="M52.201,32.784     c0,0-27.692,16.798-35.376,38.28c-7.685,21.482-4.299,75.863-3.931,89.356c0.149,5.429,0.305,13.039,0.266,20.815     c-0.587,3.184-4.536,24.574-6.918,37.5c-2.577,13.989-7.362,36.812-2.577,44.543c4.786,7.732-6.662,17.669-2.043,23.928     c4.62,6.257,14.926,7.73,16.032,13.619c0,0-0.879-5.646-3.361-7.333c-2.483-1.689-9.733-5.564-6.754-14.202     c0.993,6.85,6.059,13.603,12.017,16.981c5.96,3.377,8.045,4.271,8.143,11.522c0.596-8.541-1.686-12.615-5.461-14.401     c-3.775-1.788-6.854-7.847-7.052-11.321c2.184,5.065,6.555,9.234,9.336,10.527c2.78,1.29,4.071,5.463,4.071,5.463     s-2.186-9.04-6.059-12.516c3.874,3.378,6.059,6.655,6.059,6.655s-0.099-7.945-3.973-13.902c-3.873-5.962-7.746-8.145-4.767-13.31     c2.979-5.164,4.867-10.326,4.47-26.318c-0.398-15.989-4.47-42.704-3.874-54.521c-0.026,0.102-0.053,0.211-0.079,0.316     c0.586-9.888,0.753-20.906-0.273-30.467c-2.635-24.504-1.457-64.887,3.578-81.351c5.034-16.466,19.729-22.237,22.654-23.071      M13.152,182.178"/>
			<path fill="none" stroke="#000000" stroke-linecap="round" stroke-linejoin="round" stroke-miterlimit="10" d="M356.435,227.988     c0,0,21.028,10.989,33.507,9.114"/>
			<path fill="none" stroke="#000000" stroke-linecap="round" stroke-linejoin="round" stroke-miterlimit="10" d="M401.786,235.101     c0,0,15.3-6.309,23.596-18.475"/>
			<path fill="none" stroke="#000000" stroke-linecap="round" stroke-linejoin="round" stroke-miterlimit="10" d="M357.177,215.682     c0,0,8.439-8.846,17.035-9.646"/>
			<path fill="none" stroke="#000000" stroke-linecap="round" stroke-linejoin="round" stroke-miterlimit="10" d="M181.998,239.644     c0,0,34.517,14.534,83.566,0"/>
			<path fill="none" stroke="#000000" stroke-linecap="round" stroke-linejoin="round" stroke-miterlimit="10" d="M60.305,359.687     c0,0-2.939-2.072-3.979-4.581"/>
			<path fill="none" stroke="#000000" stroke-linecap="round" stroke-linejoin="round" stroke-miterlimit="10" d="M81.782,350.625     c0,0-2.88-2.014-2.88-4.079"/>
			<path fill="none" stroke="#000000" stroke-linecap="round" stroke-linejoin="round" stroke-miterlimit="10" d="M343.447,359.782     c0,0-4.021-2.647-4.316-4.05"/>
			<path fill="none" stroke="#000000" stroke-linecap="round" stroke-linejoin="round" stroke-miterlimit="10" d="M402.467,349.775     c0,0-3.584-1.434-3.711-3.506"/>
			<path fill="none" stroke="#000000" stroke-linecap="round" stroke-linejoin="round" stroke-miterlimit="10" d="M15.187,282.071     c0,0-2.793-7.24-1.742-12.577c1.049-5.338,9.186-16.014,9.186-26.074"/>
			<path fill="none" stroke="#000000" stroke-linecap="round" stroke-linejoin="round" stroke-miterlimit="10" d="M7.614,279.74     c0,0,3.03-5.174,4.08-15.409c1.049-10.237-3.236-28.085-0.35-45.146"/>
			<path fill="none" stroke="#000000" stroke-linecap="round" stroke-linejoin="round" stroke-miterlimit="10" d="M110.74,260.626     c0,0,2.246,0.521,3.087,0.65"/>
			
				<line fill="none" stroke="#000000" stroke-linecap="round" stroke-linejoin="round" stroke-miterlimit="10" x1="119.107" y1="261.673" x2="121.538" y2="261.276"/>
			
				<line fill="none" stroke="#000000" stroke-linecap="round" stroke-linejoin="round" stroke-miterlimit="10" x1="127.268" y1="261.255" x2="130.366" y2="260.951"/>
			
				<line fill="none" stroke="#000000" stroke-linecap="round" stroke-linejoin="round" stroke-miterlimit="10" x1="145.676" y1="257.698" x2="149.459" y2="256.74"/>
			<path fill="none" stroke="#000000" stroke-linecap="round" stroke-linejoin="round" stroke-miterlimit="10" d="M41.8,226.905     c0,0-1.248,22.55-5.731,34.942"/>
			<path fill="none" stroke="#000000" stroke-linecap="round" stroke-linejoin="round" stroke-miterlimit="10" d="M116.433,182.263     c0,0,5.379-21.146,12.384-25.961"/>
			<path fill="none" stroke="#000000" stroke-linecap="round" stroke-linejoin="round" stroke-miterlimit="10" d="M355.735,235.101     c0,0,11.199,5.482,16.3,15.314"/>
			<path fill="none" stroke="#000000" stroke-linecap="round" stroke-linejoin="round" stroke-miterlimit="10" d="M301.36,218.535     c0,0-11.645-7.259-17.549-1.908"/>
		</g>
	</g>
	<g>
		<path fill="#97212D" d="M331.666,96.571c-14.296-15.062-52.638-25.039-81.612-22.951c-28.973,2.086-60.27,4.173-87.394,8.346    c-27.125,4.173-47.99,16.691-49.033,28.689c0,0-23.474,46.424,15.649,68.854c0,0,20.343,46.425,56.856,47.989    c0,0,46.249,14.963,76.157-6.26c0,0,45.382-16.17,49.555-22.951c4.173-6.781,1.564-13.562,1.564-13.562s20.865,2.608,30.254-12.52    C353.052,157.079,360.876,127.346,331.666,96.571z"/>
		<path fill="none" stroke="#000000" stroke-miterlimit="10" d="M331.666,96.571c-14.296-15.062-52.638-25.039-81.612-22.951    c-28.973,2.086-60.27,4.173-87.394,8.346c-27.125,4.173-47.99,16.691-49.033,28.689c0,0-23.474,46.424,15.649,68.854    c0,0,20.343,46.425,56.856,47.989c0,0,46.249,14.963,76.157-6.26c0,0,45.382-16.17,49.555-22.951    c4.173-6.781,1.564-13.562,1.564-13.562s20.865,2.608,30.254-12.52C353.052,157.079,360.876,127.346,331.666,96.571z"/>
		<path fill="#A52D3E" d="M222.462,221.465c-17.531,0-32.359-4.689-32.507-4.737l-1.025-0.328l-1.085-0.049    c-31.027-1.33-49.691-42.8-49.876-43.218l-1.061-2.402l-2.283-1.317c-13.532-7.759-19.581-19.323-18.493-35.356    c0.844-12.442,5.953-22.847,6.004-22.948l0.697-1.378l0.134-1.539c0.474-5.445,15.007-17.279,42.279-21.475    c25.043-3.853,53.532-5.894,81.083-7.867l5.67-0.406c2.349-0.169,4.819-0.255,7.343-0.255c26.584,0,57.04,9.301,67.891,20.734    c11.604,12.225,17.755,25.177,18.283,38.494c0.508,12.829-4.343,22.683-7.28,27.414c-4.812,7.752-14.524,8.91-19.887,8.91l0,0    c-1.6,0-2.608-0.113-2.618-0.115l-13.787-1.58l5.337,12.324c0.156,0.526,0.881,3.361-0.67,6.207    c-4.071,3.675-26.647,13.204-45.636,19.97l-1.042,0.371l-0.902,0.641C249.767,218.132,237.464,221.465,222.462,221.465z"/>
		<path fill="#97212D" d="M143.63,163.895c0,0,7.339-10.758,3.388-27.041c0,0,5.976,4.648,8.077,12.973    c0,0,13.359,0.552,19.602,7.137C174.698,156.964,159.695,154.73,143.63,163.895z"/>
		
			<linearGradient id="SVGID_1_" gradientUnits="userSpaceOnUse" x1="-1882.0526" y1="-1748.684" x2="-1874.3643" y2="-1756.002" gradientTransform="matrix(0.9093 0.4161 -0.4161 0.9093 1135.6752 2537.949)">
			<stop offset="0" style="stop-color:#FFFFFF;stop-opacity:0"/>
			<stop offset="0.504" style="stop-color:#FFFFFF;stop-opacity:0.3"/>
			<stop offset="0.996" style="stop-color:#FFFFFF;stop-opacity:0"/>
		</linearGradient>
		<path fill="url(#SVGID_1_)" d="M150.756,166.426c-0.117-0.054-0.23-0.122-0.337-0.205c-0.724-0.567-0.851-1.614-0.282-2.34    c1.784-2.274,7.007-5.879,13.999-3.227c0.86,0.342,1.292,1.288,0.967,2.148c-0.325,0.859-1.287,1.293-2.146,0.967    c-6.477-2.457-10.161,2.123-10.197,2.168C152.274,166.555,151.441,166.738,150.756,166.426z"/>
		<path fill="#97212D" d="M207.48,117.886c0,0,13.929-6.981,31.876-3.951c0,0,8.877-9.776,19.253-9.747    c0,0-15.268-0.517-19.253,2.603C239.356,106.79,216.58,108.158,207.48,117.886z"/>
		<path fill="none" stroke="#000000" stroke-linecap="round" stroke-linejoin="round" stroke-miterlimit="10" d="M171.444,156.964    c0,0,3.575-19.502,18.3-29.874c14.725-10.372,35.355-15.938,49.612-13.155"/>
		<path fill="none" stroke="#000000" stroke-linecap="round" stroke-linejoin="round" stroke-miterlimit="10" d="M176.948,163.895    c0,0,12.581,10.222,15.726,29.093c3.146,18.871-6.541,34.511-6.541,34.511"/>
		<path fill="none" stroke="#000000" stroke-linecap="round" stroke-linejoin="round" stroke-miterlimit="10" d="M129.276,179.51    c0,0,9.143-20.435,35.484-22.546"/>
		<path fill="none" stroke="#000000" stroke-linecap="round" stroke-linejoin="round" stroke-miterlimit="10" d="M148.812,161.054    c0,0,4.105-11.002,0-20.789"/>
		<path fill="#AF3838" d="M343.663,172.206c1.946-3.135,3.819-6.906,5.315-11.176c3.114-17.205-16.831-19.65-29.532-22.65    c-12.706-3.002-16.051,12.399-18.308,18.584c-5.009,13.73,12.271,27.762,12.271,27.762S334.274,187.334,343.663,172.206z"/>
		<path fill="#C93F3F" d="M319.446,138.38c-12.706-3.002-16.051,12.399-18.308,18.584c-1.933,5.3-0.542,10.641,1.891,15.207    l12.702,1.455c0.01,0.002,1.018,0.115,2.618,0.115c5.362,0,15.075-1.158,19.887-8.91c2.107-3.396,5.191-9.439,6.583-17.317    C338.708,142.007,327.591,140.304,319.446,138.38z"/>
		<path fill="none" stroke="#000000" stroke-miterlimit="10" d="M313.409,184.725c0,0,20.865,2.608,30.254-12.52    c1.946-3.135,3.819-6.906,5.315-11.176"/>
		<path fill="none" stroke="#000000" stroke-miterlimit="10" d="M319.446,138.38c-12.706-3.002-16.051,12.399-18.308,18.584    c-5.009,13.73,12.271,27.762,12.271,27.762"/>
		
			<linearGradient id="SVGID_00000007427363002303169690000009677829742708096686_" gradientUnits="userSpaceOnUse" x1="309.6656" y1="148.5122" x2="317.3538" y2="141.1944">
			<stop offset="0" style="stop-color:#FFFFFF;stop-opacity:0"/>
			<stop offset="0.504" style="stop-color:#FFFFFF;stop-opacity:0.3"/>
			<stop offset="0.996" style="stop-color:#FFFFFF;stop-opacity:0"/>
		</linearGradient>
		<path fill="url(#SVGID_00000007427363002303169690000009677829742708096686_)" d="M309.275,150.535    c-0.129,0-0.259-0.015-0.39-0.046c-0.895-0.215-1.445-1.114-1.23-2.009c0.675-2.812,3.924-8.263,11.387-8.761    c0.924-0.047,1.712,0.634,1.772,1.551c0.061,0.918-0.633,1.711-1.55,1.773c-6.91,0.461-8.356,6.158-8.371,6.215    C310.709,150.022,310.028,150.535,309.275,150.535z"/>
		
			<linearGradient id="SVGID_00000176037619310937095360000015275201405136765329_" gradientUnits="userSpaceOnUse" x1="452.0434" y1="113.4496" x2="349.4084" y2="138.292">
			<stop offset="0" style="stop-color:#BD7670"/>
			<stop offset="0.6129" style="stop-color:#BD7670"/>
			<stop offset="0.8441" style="stop-color:#97212D"/>
		</linearGradient>
		
			<path fill="url(#SVGID_00000176037619310937095360000015275201405136765329_)" stroke="#000000" stroke-linecap="round" stroke-linejoin="round" stroke-miterlimit="10" d="    M347.306,125.389c0.342-0.042,28.716-1.911,38.576-5.048c3.46-1.101,9.391-5.137,15.671-9.409    c10.82-7.362,23.084-15.707,33.904-17.299c19.386-2.848,38.315,8.912,51.939,32.269l-8.638,5.039    c-11.46-19.647-26.714-29.639-41.847-27.413c-8.548,1.257-20.295,9.249-29.734,15.672c-7.198,4.898-13.416,9.128-18.264,10.671    c-10.74,3.417-38.339,9.67-39.77,9.847"/>
		<path fill="#AB4C5E" d="M204.427,209.632c-0.98,0.13-2.01,0.22-3.07,0.26c-1.92-1.78-3.26-3.51-4.22-5.23    c-0.64-1.12-1.1-2.24-1.45-3.35c-0.6-1.88-0.87-3.74-1.07-5.61c-0.06-0.62-0.12-1.25-0.18-1.87L204.427,209.632z"/>
		<path fill="#63101E" d="M247.397,171.042l-0.07,0.04h-0.08C247.287,171.082,247.347,171.062,247.397,171.042z"/>
		<path fill="#BD9E9B" stroke="#000000" stroke-linecap="round" stroke-linejoin="round" stroke-miterlimit="10" d="    M281.517,170.102c-0.33-0.15-0.23-0.14-0.12,0.02c0.08,0.01,0.15,0.01,0.2,0.01C281.567,170.122,281.547,170.112,281.517,170.102z    "/>
		<path fill="#BD9E9B" stroke="#000000" stroke-linecap="round" stroke-linejoin="round" stroke-miterlimit="10" d="    M247.247,171.082h0.08l0.07-0.04C247.347,171.062,247.287,171.082,247.247,171.082z"/>
		<g>
			<path fill="#BD7670" stroke="#000000" stroke-linecap="round" stroke-linejoin="round" stroke-miterlimit="10" d="     M164.887,111.412c-9.23,10.91-23.03,17.44-36.42,21.15c-1.07,0.3-2.14,0.58-3.2,0.83c-10.33,2.55-20.17,3.46-27.19,3.46     c-0.7,0-1.38-0.01-2.03-0.02c-5.81-0.16-9.58-1.85-11.21-5.03c-2.16-4.21,0.66-8.7,0.99-9.2l5.34,3.57     c-0.47,0.73-0.94,2.1-0.64,2.67c0.27,0.51,1.77,1.42,5.7,1.52c8.15,0.23,19.37-0.92,30.55-4.06c1.16-0.32,2.32-0.66,3.47-1.03     c11.44-3.65,22.49-9.46,29.77-18.06c6.26-7.4,9.18-15.64,8.02-22.63c-0.71-4.31-2.89-7.74-6.12-9.65     c-5.03-3-12.89-2.93-16.11,1.95l-5.33-3.59c4.24-6.43,14.89-9.76,24.69-3.94c4.82,2.87,8.17,8.03,9.18,14.16     C175.847,92.522,172.477,102.432,164.887,111.412z"/>
			<path fill="#BD7670" stroke="#000000" stroke-linecap="round" stroke-linejoin="round" stroke-miterlimit="10" d="     M102.63,130.894c-7.063,0-13.391-1.083-17.296-2.818c-3.34-1.485-5.294-3.49-5.809-5.958     c-1.944-9.324,9.938-15.443,10.444-15.699l2.863,5.781l-1.432-2.891l1.438,2.888c-2.073,1.06-7.818,4.909-7.051,8.59     c0.112,0.208,1.165,1.205,4.154,2.114c8.403,2.561,26.061,2.514,37.359-4.23c1.879-1.123,2.406-1.948,2.442-2.148     c-0.288-2.197-11.418-7.615-23.808-10.314l1.791-6.395c0.252,0.055,7.009,2.191,13.264,4.416     c9.595,3.414,14.383,6.998,15.069,11.281c0.364,2.266-0.296,5.617-5.503,8.725C122.568,129.005,111.958,130.894,102.63,130.894z"/>
			<path fill="#BD7670" stroke="#000000" stroke-linecap="round" stroke-linejoin="round" stroke-miterlimit="10" d="     M119.998,124.684c-3.342,0-6.872-0.141-10.578-0.374c-14.898-0.94-24.515-4.364-28.581-10.177     c-2.139-3.059-2.701-6.688-1.623-10.496c2.903-10.264,24.598-4.885,28.513-3.824l-1.791,6.395     c-8.927-2.405-19.89-3.188-20.567-0.795c-0.541,1.914-0.312,3.547,0.696,4.99c1.629,2.328,6.879,6.393,23.753,7.456     c22.925,1.443,33.497-1.541,37.708-10.653c3.748-8.114-2.801-12.709-3.559-13.205l3.426-5.459     c4.229,2.69,10.911,10.621,5.933,21.398C148.029,121.407,136.261,124.682,119.998,124.684z"/>
			<path fill="#BD7670" stroke="#000000" stroke-linecap="round" stroke-linejoin="round" stroke-miterlimit="10" d="     M125.14,120.493c-1.268,0-2.557-0.029-3.868-0.09c-12.173-0.551-23.747-3.636-30.205-8.049c-6.788-4.638-7.655-9.548-7.188-12.85     c1.017-7.184,8.87-12.164,15.288-14.25c10.838-3.516,43.933,2.254,45.035,2.455l-8.189,5.275     c-7.081-1.29-27.15-4.09-34.888-1.574c-5.852,1.9-10.44,5.688-10.91,9.008c-0.378,2.674,2.205,5.055,4.438,6.582     c11.435,7.811,42.429,10.07,53.065,1.609c5.685-4.523,8.653-8.793,8.585-12.348c-0.043-2.285-1.428-4.445-4.115-6.42     c-6.216-4.565-13.384-4.318-16.827-4.198c-0.523,0.019-0.969,0.034-1.329,0.034v-6.466c0.301,0,0.673-0.014,1.11-0.028     c3.838-0.135,12.813-0.443,20.811,5.432c5.474,4.02,6.692,8.485,6.75,11.521c0.11,5.738-3.6,11.643-11.024,17.55     C146.169,118.071,136.63,120.493,125.14,120.493z"/>
			<g>
				<g>
					<path fill="#BD7670" stroke="#000000" stroke-linecap="round" stroke-linejoin="round" stroke-miterlimit="10" d="       M127.787,114.175c-5.984,0-12.379-0.787-17.812-2.088c-10.718-2.564-19.861-8.48-22.75-14.723       c-1.618-3.498-0.971-6.227-0.142-7.9c3.323-6.714,22.659-10.332,34.628-9.137l-4.777,4.958       c-11.504,1.435-23.004,4.804-24.126,7.069c-0.107,0.216-0.432,0.873,0.215,2.271c0.76,1.641,2.487,3.52,5.001,5.315       c-1.49-1.73-1.885-3.824-1.081-5.77c2.962-7.172,21.116-7.956,21.299-7.965l0.245,6.461c-6.714,0.26-12.928,2.092-15.04,3.51       c4.475,3.043,22.966,6.08,27.155,4.872c0.922-0.265,2.103-0.713,3.354-1.188c4.679-1.772,9.516-3.604,12.658-1.039       c1.137,0.93,2.387,2.758,1.878,6.183c-0.229,1.541-1.064,3.762-3.742,5.592C141.049,113.124,134.691,114.175,127.787,114.175z        M98.023,99.94c0,0,5.466,3.707,10.149,4.94 M108.172,104.881c1.051,0.337,2.145,0.644,3.277,0.915       c11.604,2.777,25.211,2.524,29.714-0.553c0.605-0.415,0.941-0.816,0.997-1.197c0,0,0.001-0.006,0.002-0.01       c-1.527,0.197-4.327,1.258-5.959,1.878c-1.376,0.522-2.675,1.014-3.844,1.351C128.562,108.356,117.019,107.348,108.172,104.881       z"/>
				</g>
				<g>
					<g>
						<path fill="#BD7670" stroke="#000000" stroke-linecap="round" stroke-linejoin="round" stroke-miterlimit="10" d="        M144.713,77.456c1.991-0.146,4.049-0.297,5.95-0.082c0.76,0.085,1.36,0.259,1.844,0.483c1.213,0.036,2.375,0.126,3.473,0.284        c1.538,0.223,3.13,0.689,4.73,1.353c-0.374-3.056-2.621-7.791-9.341-8.544c-2.482-0.28-4.943-0.101-7.115,0.058        c-1.379,0.101-3.373,0.244-4.279,0.079c-0.744-7.205-9.362-7.18-16.291-7.151l-90.09,0.003v6.465h88.639l1.474-0.004        c3.668-0.01,9.799-0.032,9.91,1.436C134.103,78.227,140.748,77.748,144.713,77.456z"/>
						<path fill="#BD7670" stroke="#000000" stroke-linecap="round" stroke-linejoin="round" stroke-miterlimit="10" d="        M196.617,90.662c-3.76,0.31-6.02,1.61-7.25,2.95c-3.96,4.36-3.2,12.18-2.47,19.75c0.45,4.71,1.08,11.16-0.35,12.89        c-0.09,0.11-0.22,0.27-0.78,0.32c-0.91-1.41-0.97-7.14-1.01-10.98c-0.08-7.97-0.17-17.83-4.33-25.44        c-0.15-0.28-0.31-0.56-0.48-0.84c-0.41-0.68-0.81-1.32-1.22-1.92c-7.35-11.05-14.38-10.61-23.93-10        c-2.5,0.16-8.479,0.62-8.479,0.62c-1.26,0.07-2.53,0.17-3.84,0.28c-0.61-0.88-4.27-9.2-16.84-7.52        c-2.35,0.31-4.82,0.25-7.21,0.21c-6.11-0.09-14.48-0.21-15.27,8.6c-0.7,7.76-1.66,18.39,16.87,21.51        c6.39,1.07,13.2,1.31,19.44,0.68c0.87-0.08,1.73-0.18,2.57-0.3c1.91-0.27,3.62-0.6,5.12-1c2.77-0.72,4.86-1.65,6.27-2.78        c0.82-0.65,1.4-1.37,1.75-2.16c0.26-0.59,0.39-1.2,0.41-1.81c0.03-1.13-0.37-2.25-1.17-3.16c-3.06-3.49-12.48-3.28-16.59-2.01        c-3.97,1.24-12.81,0.6-17.49-0.75c-0.24-0.07-0.37-0.14-0.43-0.19c0.17-0.56,1.8-2.08,5.99-1.94        c4.68,0.18,9.71-0.27,14.58-0.71c2.01-0.18,3.97-0.35,5.84-0.48c0,0,8.5-0.62,8.78-0.64c7.99-0.5,11.89-0.37,16.26,5.23        c0.61,0.77,1.22,1.66,1.86,2.66c0.24,0.38,0.48,0.77,0.73,1.18c3.65,6.08,3.74,15.33,3.81,22.75        c0.08,7.42,0.13,13.28,3.41,16.24c0.87,0.79,2.34,1.68,4.48,1.68c0.24,0,0.49-0.01,0.75-0.04c2.26-0.2,4.18-1.18,5.54-2.83        c3.29-3.96,2.63-10.79,1.93-18.03c-0.5-5.19-1.19-12.29,0.69-14.36c0.16-0.18,0.6-0.66,2.06-0.66c2.19,0,2.99,0.7,3.49,1.39        l11.7-0.17C210.917,96.262,205.397,89.932,196.617,90.662z M139.707,94.732c1.31-0.4,3.05-0.57,4.73-0.57        c0.42,0,0.84,0.01,1.25,0.03c-2.93,0.76-7.26,1.38-12.34,1.45C135.767,95.552,137.987,95.272,139.707,94.732z M126.137,79.212        c-7.82-0.3-11.95,3.53-12.57,7.45c-0.521,3.33,1.54,6.35,5.01,7.36c1.54,0.44,3.39,0.81,5.38,1.1        c-0.95-0.1-1.91-0.25-2.88-0.41c-12.67-2.13-12.25-6.8-11.55-14.55c0.2-2.27,1.26-2.82,8.81-2.71        c2.48,0.03,5.29,0.07,8.06-0.26c6.54-0.79,8.64,1.24,8.76,1.36c0.02,0,0.38,0.32,0.41,0.34        C132.317,79.142,129.087,79.322,126.137,79.212z M139.907,78.522c-1.28,0.12-2.58,0.23-3.87,0.33l5.99-0.52        C141.327,78.392,140.617,78.462,139.907,78.522z"/>
						
							<linearGradient id="SVGID_00000056386614660830705350000007954964763036324749_" gradientUnits="userSpaceOnUse" x1="170.3398" y1="95.4378" x2="211.1138" y2="95.4378">
							<stop offset="0" style="stop-color:#BD7670"/>
							<stop offset="0.7042" style="stop-color:#BD7670"/>
							<stop offset="0.7567" style="stop-color:#B36B67"/>
							<stop offset="0.8498" style="stop-color:#994D4F"/>
							<stop offset="0.9719" style="stop-color:#6E1C28"/>
							<stop offset="1" style="stop-color:#63101E"/>
						</linearGradient>
						
							<line fill="url(#SVGID_00000056386614660830705350000007954964763036324749_)" stroke="#000000" stroke-linecap="round" stroke-linejoin="round" stroke-miterlimit="10" x1="124.814" y1="95.233" x2="133.35" y2="95.642"/>
					</g>
					<path fill="#965656" stroke="#000000" stroke-linecap="round" stroke-linejoin="round" stroke-miterlimit="10" d="       M35.346,67.171c0,1.785-0.784,3.232-1.752,3.232c-0.967,0-1.752-1.447-1.752-3.232c0-1.785,0.785-3.232,1.752-3.232       C34.562,63.938,35.346,65.386,35.346,67.171z"/>
					<path fill="#D8908D" d="M137.655,71.432c-0.365,0-0.705-0.231-0.829-0.6c-1.412-4.17-8.464-3.611-8.536-3.607       c-0.473,0.053-0.905-0.319-0.947-0.806c-0.041-0.487,0.315-0.915,0.797-0.957c0.346-0.034,8.489-0.683,10.344,4.8       c0.157,0.461-0.088,0.965-0.546,1.123C137.843,71.417,137.748,71.432,137.655,71.432z"/>
					<path fill="#D8908D" d="M167.239,74.747c-0.284,0-0.561-0.138-0.73-0.394c-1.921-2.911-6.345-4.044-6.39-4.054       c-0.47-0.118-0.756-0.598-0.641-1.07c0.115-0.476,0.59-0.76,1.059-0.648c0.207,0.051,5.126,1.301,7.429,4.791       c0.268,0.406,0.16,0.956-0.242,1.227C167.574,74.699,167.405,74.747,167.239,74.747z"/>
					<path fill="#D8908D" d="M153.225,93.028c-0.271,0-0.538-0.126-0.709-0.363c-1.052-1.461-4.186-1.727-5.308-1.7       c-0.479-0.013-0.883-0.378-0.894-0.866c-0.01-0.488,0.374-0.893,0.857-0.902c0.5-0.02,4.985-0.037,6.761,2.428       c0.284,0.395,0.197,0.949-0.194,1.235C153.583,92.973,153.403,93.028,153.225,93.028z"/>
					<path fill="#D8908D" d="M88.51,94.8c-0.399,0-0.761-0.278-0.854-0.688c-0.89-3.936,1.845-6.201,1.961-6.295       c0.379-0.305,0.929-0.241,1.231,0.138c0.302,0.38,0.242,0.935-0.132,1.241c-0.083,0.068-1.992,1.692-1.352,4.521       c0.108,0.476-0.187,0.95-0.658,1.06C88.641,94.792,88.575,94.8,88.51,94.8z"/>
					<path fill="#D8908D" d="M143.591,109.639c-0.283,0-0.561-0.138-0.73-0.394c-0.268-0.406-0.159-0.956,0.244-1.227       c1.634-1.101,1.652-3.175,1.652-3.194c0-0.489,0.394-0.885,0.876-0.885c0.484,0,0.876,0.396,0.876,0.885       c0,0.123-0.027,3.046-2.434,4.666C143.926,109.592,143.758,109.639,143.591,109.639z"/>
					<path fill="#D8908D" d="M105.833,78.188c-0.061,0-0.122-0.006-0.184-0.019c-0.474-0.104-0.774-0.573-0.673-1.051       c0.702-3.312,3.71-3.814,3.837-3.834c0.476-0.074,0.925,0.258,0.999,0.741c0.072,0.479-0.253,0.931-0.728,1.007       c-0.095,0.018-1.953,0.367-2.396,2.457C106.601,77.903,106.239,78.188,105.833,78.188z"/>
					<path fill="#D8908D" d="M100.189,99.025c-0.247,0-0.492-0.104-0.666-0.31c-1.254-1.479-0.726-3.259-0.271-3.992       c0.257-0.415,0.797-0.539,1.207-0.281c0.408,0.258,0.534,0.799,0.282,1.213c-0.066,0.111-0.597,1.073,0.113,1.909       c0.314,0.371,0.271,0.93-0.096,1.247C100.593,98.955,100.391,99.025,100.189,99.025z"/>
					<path fill="#D8908D" d="M116.147,88.705c-0.409,0-0.774-0.29-0.857-0.711c-0.566-2.854,1.104-4.806,1.175-4.887       c0.32-0.365,0.874-0.401,1.235-0.079c0.362,0.322,0.397,0.879,0.083,1.244l0,0c-0.048,0.057-1.166,1.402-0.775,3.374       c0.094,0.479-0.213,0.946-0.687,1.042C116.262,88.699,116.204,88.705,116.147,88.705z"/>
					<path fill="#D8908D" d="M88.316,107.871c-0.215,0-0.431-0.079-0.601-0.242c-1.912-1.823-2.555-4.249-2.581-4.351       c-0.122-0.473,0.157-0.955,0.624-1.078c0.468-0.121,0.946,0.158,1.07,0.629c0.005,0.02,0.553,2.049,2.09,3.515       c0.351,0.335,0.367,0.896,0.035,1.249C88.782,107.778,88.549,107.871,88.316,107.871z"/>
					<path fill="#D8908D" d="M81.505,111.999c-0.306,0-0.603-0.161-0.763-0.449c-1.429-2.551-0.51-5.938-0.47-6.082       c0.13-0.471,0.614-0.736,1.077-0.611c0.466,0.132,0.738,0.619,0.609,1.09c-0.009,0.027-0.759,2.829,0.308,4.732       c0.237,0.426,0.09,0.966-0.332,1.207C81.8,111.962,81.652,111.999,81.505,111.999z"/>
					<path fill="#D8908D" d="M84.423,125.661c-0.127,0-0.258-0.028-0.381-0.088c-3.227-1.574-3.589-4.895-3.604-5.035       c-0.048-0.485,0.302-0.918,0.784-0.967c0.476-0.051,0.907,0.303,0.958,0.787l0,0c0.011,0.101,0.299,2.487,2.623,3.621       c0.436,0.213,0.619,0.741,0.41,1.182C85.062,125.476,84.749,125.661,84.423,125.661z"/>
				</g>
			</g>
		</g>
		
			<linearGradient id="SVGID_00000163038847939549245670000007394597890604199076_" gradientUnits="userSpaceOnUse" x1="248.4849" y1="165.378" x2="251.0732" y2="96.9074">
			<stop offset="0" style="stop-color:#771522"/>
			<stop offset="0.996" style="stop-color:#BD7670"/>
		</linearGradient>
		<path fill="url(#SVGID_00000163038847939549245670000007394597890604199076_)" d="M313.957,192.712c0,0.01,0.01,0.01,0.01,0.01    c-0.02,0.1-0.05,0.21-0.07,0.31c-0.04,0.21-0.09,0.42-0.14,0.63c-0.05,0.21-0.1,0.42-0.16,0.64c-0.07,0.23-0.15,0.47-0.23,0.72    c-0.06,0.19-0.13,0.38-0.2,0.57c-0.11,0.3-0.24,0.6-0.38,0.9c-0.07,0.14-0.12,0.29-0.19,0.44c-0.23,0.45-0.47,0.9-0.75,1.36    c-0.13,0.21-0.27,0.43-0.42,0.64c-4.65,6.76-18.49,16.26-36.17,21.29c-8.75,2.49-36.05,10.18-60.85-1.75    c-2.9-1.4-5.77-3.07-8.57-5.04c-0.87-0.61-1.72-1.24-2.57-1.91c-0.54-0.43-1.04-0.85-1.51-1.28c-0.1-0.08-0.2-0.17-0.3-0.26    c-0.03-0.03-0.07-0.06-0.1-0.09l-0.01-0.01c-0.47-0.43-0.9-0.86-1.3-1.29c-0.02-0.02-0.04-0.05-0.06-0.07    c-1.71-1.83-2.85-3.63-3.63-5.41c-0.02-0.05-0.04-0.1-0.06-0.16c-0.11-0.25-0.21-0.51-0.31-0.76c-0.01-0.02-0.01-0.04-0.02-0.05    c-0.26-0.72-0.47-1.43-0.65-2.14c-0.01-0.07-0.03-0.15-0.05-0.22c-0.09-0.4-0.17-0.8-0.25-1.19c-0.02-0.12-0.04-0.24-0.06-0.35    c-0.04-0.28-0.09-0.57-0.13-0.85c-0.04-0.29-0.08-0.57-0.11-0.86c-0.02-0.15-0.04-0.31-0.06-0.46c-0.01-0.12-0.03-0.25-0.04-0.37    c-0.01-0.14-0.03-0.29-0.04-0.43c-0.07-0.65-0.13-1.31-0.19-1.96c-0.03-0.25-0.05-0.49-0.08-0.74c-0.03-0.29-0.07-0.59-0.1-0.89    c-0.05-0.35-0.1-0.71-0.15-1.06c-0.31-2.07-0.82-4.15-1.86-6.28c-3.37-6.86-7.98-7.23-9.43-14.14    c-3.16-15.04,3.78-19.72,3.78-22.21c0-6.61-0.75-10.17,0.22-16.41c0.42-2.74,1.27-5.57,2.35-8.42c0.2-0.52,0.4-1.05,0.62-1.57    c2.72-6.71,6.55-13.47,9.13-19.47c0.04-0.24,0.08-0.47,0.12-0.7c0-0.01,0-0.02,0-0.02c0.64-3.56,1.87-6.45,4.44-7.32    c3.45-0.91,7.41,0.97,9.15,3.98c3.22,6.65-1.69,15.17-3.6,21.49c-0.45,1.38-0.88,2.7-0.94,4.11c0,0.37,0.09,0.76,0.21,1.1    c2.29,6.44,1.12,13.81-2.62,19.47c-0.29,0.44-0.52,0.95-0.54,1.49c-0.05,0.68,0.17,1.38,0.59,1.93c1.3,1.66,2.45,3.58,3.31,5.54    c1.75,3.96,2.57,8.21,2.81,12.44c0.19,1.76-0.06,3.6,0.06,5.35c0.01,0.16,0.02,0.33,0.04,0.49c0.16,0.7,0.56,1.13,0.76,1.16    c1.5,0.29,2.98,0.68,4.43,1.17c3.3,1.11,6.43,2.74,9.1,4.98c0.63,0.44,1.39,0.63,2.15,0.58c0.79-0.04,1.58-0.34,2.21-0.87    c1.59-1.34,3.23-2.63,4.9-3.87c0.19-0.14,0.38-0.28,0.58-0.42c1.5-1.1,3.04-2.17,4.62-3.17c0.86-0.56,1.73-1.09,2.61-1.61    c0.24-0.14,0.51-0.29,0.78-0.45c1.18,0,2.36,0.01,3.54,0.02c2.46,0,4.93,0.02,7.39,0.03c7.4,0.04,14.85,0.07,22.16-1.11    c4.95-0.81,9.93-2.17,14.91-2.21c1.13-0.01,2.27,0.06,3.4,0.21c2.42-2.67,4.3-5.67,5.67-8.84c-4.88,13.7,12.3,27.65,12.3,27.65    S314.747,188.222,313.957,192.712z"/>
		
			<linearGradient id="SVGID_00000100354461163274099250000004223102276479352488_" gradientUnits="userSpaceOnUse" x1="190.6618" y1="139.0382" x2="189.7794" y2="107.8029">
			<stop offset="0" style="stop-color:#63101E"/>
			<stop offset="0.996" style="stop-color:#9A4649"/>
		</linearGradient>
		<path fill="url(#SVGID_00000100354461163274099250000004223102276479352488_)" d="M201.757,210.242c-0.1-0.08-0.2-0.17-0.3-0.26    c-0.03-0.03-0.07-0.06-0.1-0.09l-0.01-0.01c-0.47-0.43-0.9-0.86-1.3-1.29c-0.02-0.02-0.04-0.05-0.06-0.07    c-1.71-1.83-2.85-3.63-3.63-5.41c-0.02-0.05-0.04-0.1-0.06-0.16c-0.11-0.25-0.21-0.51-0.31-0.76c-0.01-0.02-0.01-0.04-0.02-0.05    c-0.26-0.72-0.47-1.43-0.65-2.14c-0.01-0.07-0.03-0.15-0.05-0.22c-0.09-0.4-0.17-0.8-0.25-1.19c-0.02-0.12-0.04-0.24-0.06-0.35    c-0.04-0.28-0.09-0.57-0.13-0.85c-0.04-0.29-0.08-0.57-0.11-0.86c-0.02-0.15-0.04-0.31-0.06-0.46c-0.01-0.12-0.03-0.25-0.04-0.37    c-0.01-0.14-0.03-0.29-0.04-0.43c-0.07-0.65-0.13-1.31-0.19-1.96c-0.03-0.25-0.05-0.49-0.08-0.74c-0.03-0.29-0.07-0.59-0.1-0.89    c-0.05-0.35-0.1-0.71-0.15-1.06c-0.31-2.07-0.82-4.15-1.86-6.28c-3.37-6.86-7.98-7.23-9.43-14.14    c-3.16-15.04,3.78-19.72,3.78-22.21c0-6.61-0.75-10.17,0.22-16.41c0.42-2.74,1.27-5.57,2.35-8.42c0.2-0.52,0.4-1.05,0.62-1.57    c2.72-6.71,6.55-13.47,9.13-19.47c0.04-0.24,0.08-0.47,0.12-0.7c0.09,0.88-0.03,1.99-0.18,2.88c-0.68,4.03-2.87,7.43-4.92,10.88    c-2.56,4.32-4.83,8.88-5.91,13.78c-1.08,4.9-0.91,10.2,1.25,14.73c0.52,1.08,1.16,2.17,1.2,3.37c0.08,1.77-1.14,3.3-2.13,4.78    c-3.37,5.03-4.68,11.51-3.07,17.36c0.76,2.78,2.22,5.45,4.54,7.16c3.18,2.35,7.83,2.47,11.13,0.3c-3.9,5.85-5.16,13.25-4.08,20.2    C197.547,201.592,199.307,206.112,201.757,210.242z"/>
		<path fill="#63101E" d="M313.957,192.712c0,0.01,0.01,0.01,0.01,0.01c-0.02,0.1-0.05,0.21-0.07,0.31    c-0.04,0.21-0.09,0.42-0.14,0.63c-0.05,0.21-0.1,0.42-0.16,0.64c-0.07,0.23-0.15,0.47-0.23,0.72c-0.06,0.19-0.13,0.38-0.2,0.57    c-0.11,0.3-0.24,0.6-0.38,0.9c-0.07,0.14-0.12,0.29-0.19,0.44c-0.23,0.45-0.47,0.9-0.75,1.36c-0.13,0.21-0.27,0.43-0.42,0.64    c-4.65,6.76-18.49,16.26-36.17,21.29c-8.75,2.49-36.05,10.18-60.85-1.75c3.83,1.53,7.85,2.6,11.95,3.16    c10.54,1.42,21.23-0.46,31.66-2.56c8.61-1.73,17.2-3.62,25.59-6.2c7.51-2.3,15.6-5.83,18.68-13.05c0.63-1.49,1.02-3.13,0.74-4.72    c-0.57-3.14-3.6-5.28-6.66-6.19c-9.5-2.82-19.84,2.91-29.48,0.63c-6.48-1.53-12.47-5.92-18.2-9.15c-4.05-2.28-8.53-4-12.66-6.19    c1.5-1.1,3.04-2.17,4.62-3.17c0.86-0.56,1.73-1.09,2.61-1.61c0.24-0.14,0.51-0.29,0.78-0.45c1.18,0,2.36,0.01,3.54,0.02    c2.46,0,4.93,0.02,7.39,0.03c7.4,0.04,14.85,0.07,22.16-1.11c4.95-0.81,9.93-2.17,14.91-2.21c1.13-0.01,2.27,0.06,3.4,0.21    c2.42-2.67,4.3-5.67,5.67-8.84c-4.88,13.7,12.3,27.65,12.3,27.65S314.747,188.222,313.957,192.712z"/>
		<path fill="none" stroke="#000000" stroke-miterlimit="10" d="M200.692,96.377c-0.929,1.487-1.48,3.505-1.82,5.743    c-2.587,6.001-6.411,12.766-9.134,19.472v0c-0.216,0.524-0.422,1.047-0.62,1.569c-1.08,2.852-1.926,5.681-2.351,8.421    c-0.97,6.24-0.22,9.8-0.22,16.41c0,2.49-6.94,7.17-3.78,22.21c1.45,6.91,6.06,7.28,9.43,14.14c1.044,2.126,1.55,4.21,1.861,6.276    c0.053,0.356,0.103,0.712,0.146,1.068c0.036,0.296,0.071,0.592,0.103,0.888c0.026,0.246,0.052,0.492,0.076,0.738    c0.065,0.654,0.126,1.308,0.193,1.961c0.014,0.143,0.028,0.287,0.042,0.43c0.013,0.123,0.03,0.246,0.044,0.369    c0.017,0.153,0.037,0.306,0.055,0.459c0.035,0.288,0.073,0.576,0.114,0.864c0.04,0.282,0.084,0.563,0.131,0.845    c0.02,0.117,0.038,0.234,0.06,0.35c0.072,0.396,0.156,0.793,0.248,1.19c0.018,0.074,0.035,0.148,0.053,0.222    c0.173,0.71,0.384,1.422,0.647,2.137c0.006,0.017,0.013,0.033,0.02,0.05c0.095,0.255,0.195,0.511,0.304,0.767    c0.022,0.051,0.047,0.103,0.069,0.154c0.777,1.779,1.917,3.579,3.624,5.413c0.022,0.023,0.042,0.047,0.064,0.07    c0.401,0.428,0.831,0.857,1.297,1.289c0.003,0.003,0.006,0.006,0.01,0.01c0.032,0.03,0.068,0.06,0.101,0.089    c0.557,0.511,1.152,1.024,1.809,1.541c0.849,0.667,1.704,1.305,2.566,1.912c26.73,18.843,59.639,9.57,69.424,6.789    c17.684-5.027,31.521-14.533,36.168-21.286c0.15-0.218,0.291-0.433,0.421-0.645c0.28-0.455,0.524-0.91,0.745-1.363    c0.073-0.148,0.129-0.294,0.196-0.441c0.135-0.298,0.268-0.596,0.379-0.891c0.074-0.194,0.135-0.386,0.2-0.578    c0.081-0.242,0.162-0.482,0.229-0.72c0.061-0.215,0.113-0.426,0.164-0.638c0.05-0.211,0.098-0.42,0.139-0.627    c0.021-0.103,0.051-0.209,0.069-0.31c-0.004-0.003-0.008-0.005-0.013-0.007c0.788-4.488-0.547-7.993-0.547-7.993    s-17.18-13.95-12.3-27.65c-1.366,3.167-3.248,6.175-5.667,8.841c-1.138-0.151-2.275-0.221-3.403-0.211    c-4.98,0.04-9.96,1.4-14.91,2.21c-7.31,1.18-14.76,1.15-22.16,1.11c-2.46-0.01-4.93-0.03-7.39-0.03    c-1.18-0.01-2.36-0.02-3.54-0.02c-0.27,0.16-0.54,0.31-0.78,0.45c-0.88,0.52-1.75,1.05-2.61,1.61c-1.78,1.13-3.51,2.34-5.2,3.59    c-1.67,1.24-3.31,2.53-4.9,3.87c-0.63,0.53-1.42,0.83-2.21,0.87c-0.76,0.05-1.52-0.14-2.15-0.58c-2.67-2.24-5.8-3.87-9.1-4.98    c-1.45-0.49-2.93-0.88-4.43-1.17c-0.2-0.03-0.6-0.46-0.76-1.16c-0.02-0.16-0.03-0.33-0.04-0.49c-0.12-1.75,0.13-3.59-0.06-5.35    c-0.24-4.23-1.06-8.48-2.81-12.44c-0.86-1.96-2.01-3.88-3.31-5.54c-0.42-0.55-0.64-1.25-0.59-1.93c0.02-0.54,0.25-1.05,0.54-1.49    c3.74-5.66,4.91-13.03,2.62-19.47c-0.12-0.34-0.21-0.73-0.21-1.1c0.06-1.41,0.49-2.73,0.94-4.11c1.91-6.32,6.82-14.84,3.6-21.49    c-0.87-1.505-2.295-2.727-3.934-3.46l-2.696-1.865"/>
		<path fill="#CC7186" d="M309.837,137.552c-3.54,3.54-3.54,5.11-7.87,17.3c-0.13,0.36-0.26,0.72-0.4,1.08    c-2.57,6.66-7.35,12.74-14.63,16.54c-1.35,0.71-2.78,1.34-4.3,1.88h-0.01c-0.88,0.31-1.79,0.6-2.73,0.85    c-4.12,1.09-8.8,1.58-14.1,1.27c-20.44-1.18-36.56-12.58-39.31-29.88c-0.18-1.1-0.31-2.19-0.39-3.25    c-1.21-15.63,7.49-27.18,20.42-36.06c14.52-9.98,40.74-3.88,44.84,1.57C302.587,113.252,309.227,132.902,309.837,137.552z"/>
		<path fill="none" stroke="#000000" stroke-linecap="round" stroke-linejoin="round" stroke-miterlimit="10" d="M348.978,161.03    c1.218-6.726-1.09-11.197-5.111-14.327"/>
		<path fill="none" stroke="#000000" stroke-linecap="round" stroke-linejoin="round" stroke-miterlimit="10" d="M305.075,145.931    c0,0,3.056-6.585,8.334-7.936"/>
		<path fill="none" stroke="#000000" stroke-linecap="round" stroke-linejoin="round" stroke-miterlimit="10" d="M291.357,108.852    c-10.07-6.79-31.04-9.8-44.84-1.57c-13.47,8.03-21.7,20.33-20.42,36.06c0.08,1.06,0.21,2.15,0.39,3.25    c2.75,17.3,18.87,28.7,39.31,29.88c5.3,0.31,9.98-0.18,14.1-1.27c0.94-0.26,1.85-0.54,2.73-0.85h0.01    c1.52-0.54,2.95-1.17,4.3-1.88c7.25-3.82,12.02-9.89,14.63-16.54c0.14-0.36,0.27-0.72,0.4-1.08c4.33-12.19,4.33-13.76,7.87-17.3"/>
		
			<linearGradient id="SVGID_00000062170451874813786690000002122808632160994962_" gradientUnits="userSpaceOnUse" x1="249.6317" y1="115.6842" x2="257.3198" y2="108.3663">
			<stop offset="0" style="stop-color:#FFFFFF;stop-opacity:0"/>
			<stop offset="0.504" style="stop-color:#FFFFFF;stop-opacity:0.3"/>
			<stop offset="0.996" style="stop-color:#FFFFFF;stop-opacity:0"/>
		</linearGradient>
		<path fill="url(#SVGID_00000062170451874813786690000002122808632160994962_)" d="M249.241,117.707    c-0.129,0-0.259-0.015-0.39-0.046c-0.895-0.215-1.445-1.114-1.23-2.009c0.675-2.812,3.924-8.263,11.387-8.761    c0.924-0.047,1.712,0.634,1.773,1.551c0.062,0.918-0.633,1.711-1.55,1.773c-6.91,0.461-8.356,6.158-8.371,6.215    C250.676,117.194,249.994,117.707,249.241,117.707z"/>
		<path d="M317.061,184.895c0.007,0,0.014,0,0.02,0l0,0C317.075,184.895,317.068,184.895,317.061,184.895z"/>
		<path fill="#771522" d="M182.657,169.632c-0.09-0.4-0.16-0.8-0.22-1.18C182.557,168.652,182.637,169.032,182.657,169.632z"/>
		<path fill="#943848" d="M235.197,201.242c0.25,0.32,0.51,0.64,0.78,0.96C235.567,202.072,235.337,201.672,235.197,201.242z"/>
		<g>
			<path fill="#E1B4A7" d="M514.849,137.262c0.594-0.114,1.192-0.214,1.773-0.429c8.982-3.331,2.534-12.673,3.461-18.966     c0.258-1.742,0.631-3.738,0.367-5.614c-1.443-10.255-14.508-1.295-19.994-1.295c-4.709,0-14.986-6.057-19.028-1.975     c-1.861,1.883-1.293,6.303-2.065,8.636c-0.866,2.612-3.429,4.414-3.895,7.028c-1.083,6.074,2.881,12.934,8.112,15.869     c4.019,2.255,8.192,3.601,12.846,3.481c4.022-0.101,8.152-0.747,11.738-2.664c1.773-0.95,3.085-2.565,4.821-3.49     C513.582,137.523,514.212,137.385,514.849,137.262z"/>
			<path fill="#EDC5BC" d="M520.48,114.786c0.068-0.848,0.088-1.701-0.029-2.533c-1.443-10.255-14.508-1.295-19.994-1.295     c-4.709,0-14.986-6.057-19.028-1.975c-1.848,1.869-1.304,6.237-2.053,8.582c1.115-0.726,2.103-1.658,2.414-2.779     c0.832-2.997,4.096-2.969,9.291-0.818c5.195,2.151,11.951,3.011,16.732,0C512.587,110.96,518.875,108.833,520.48,114.786z"/>
			<path fill="#CCA097" d="M482.591,117.617c0,0-0.831,10.822,4.012,11.155c4.844,0.333,5.427-8.294,3.325-9.976     C487.827,117.115,482.591,117.617,482.591,117.617z"/>
			<path fill="#CCA097" d="M511.294,118.85c0,0-3.69,3.762-1.195,8.258c2.494,4.495,10.898-1.041,7.445-7.68L511.294,118.85z"/>
			<path fill="#CCA097" d="M487.958,137.008c-3.35,2.157-8.163,0.466-8.163,0.466l0,0c1.131,1.227,2.413,2.273,3.786,3.043     c0.871,0.489,1.752,0.926,2.643,1.325c3.235-1.559,7.528-3.225,11.636-3.55c4.181-0.33,8.862,0.586,12.417,1.547     c0.874-0.723,1.724-1.471,2.71-1.995c0.596-0.32,1.227-0.459,1.863-0.582c0,0-1.399-0.214-5.865-1.597     C504.519,134.289,491.308,134.854,487.958,137.008z"/>
			<path fill="none" stroke="#000000" stroke-linecap="round" stroke-linejoin="round" stroke-miterlimit="10" d="M514.849,137.262     c0.594-0.114,1.192-0.214,1.773-0.429c8.982-3.331,2.534-12.673,3.461-18.966c0.258-1.742,0.631-3.738,0.367-5.614     c-1.443-10.255-14.508-1.295-19.994-1.295c-4.709,0-14.986-6.057-19.028-1.975c-1.861,1.883-1.293,6.303-2.065,8.636     c-0.866,2.612-3.429,4.414-3.895,7.028c-1.083,6.074,2.881,12.934,8.112,15.869c4.019,2.255,8.192,3.601,12.846,3.481     c4.022-0.101,8.152-0.747,11.738-2.664c1.773-0.95,3.085-2.565,4.821-3.49C513.582,137.523,514.212,137.385,514.849,137.262z"/>
			<path stroke="#000000" stroke-linecap="round" stroke-linejoin="round" stroke-miterlimit="10" d="M483.865,115.685     c0,0,7.443,1.49,6.699,5.585c-0.744,4.092-5.768,4.465-6.699,2.234C482.935,121.27,481.536,114.995,483.865,115.685z"/>
			<path stroke="#000000" stroke-linecap="round" stroke-linejoin="round" stroke-miterlimit="10" d="M516.427,114.016     c0,0-8.561,5.949-5.769,9.3c2.791,3.35,6.886,0.559,6.886-1.116C517.544,120.525,517.37,113.309,516.427,114.016z"/>
			<path fill="none" stroke="#000000" stroke-linecap="round" stroke-linejoin="round" stroke-miterlimit="10" d="M479.794,137.473     c0,0,4.814,1.691,8.163-0.466c3.351-2.153,16.561-2.719,21.026-1.343c4.466,1.383,5.865,1.597,5.865,1.597"/>
		</g>
	</g>
</g>
</svg>