<?xml version="1.0" encoding="UTF-8" standalone="no"?>
<svg
   viewBox="0 0 640 640"
   version="1.1"
   id="svg1"
   sodipodi:docname="volume_high_solid.svg"
   inkscape:version="1.4 (e7c3feb100, 2024-10-09)"
   width="640"
   height="640"
   xmlns:inkscape="http://www.inkscape.org/namespaces/inkscape"
   xmlns:sodipodi="http://sodipodi.sourceforge.net/DTD/sodipodi-0.dtd"
   xmlns="http://www.w3.org/2000/svg"
   xmlns:svg="http://www.w3.org/2000/svg">
  <defs
     id="defs1" />
  <sodipodi:namedview
     id="namedview1"
     pagecolor="#ffffff"
     bordercolor="#000000"
     borderopacity="0.25"
     inkscape:showpageshadow="2"
     inkscape:pageopacity="0.0"
     inkscape:pagecheckerboard="0"
     inkscape:deskcolor="#d1d1d1"
     inkscape:zoom="0.67119902"
     inkscape:cx="496.12707"
     inkscape:cy="394.81584"
     inkscape:window-width="2192"
     inkscape:window-height="1173"
     inkscape:window-x="1920"
     inkscape:window-y="0"
     inkscape:window-maximized="1"
     inkscape:current-layer="svg1" />
  <!--!Font Awesome Free 6.6.0 by @fontawesome - https://fontawesome.com License - https://fontawesome.com/license/free Copyright 2024 Fonticons, Inc.-->
  <path
     d="M 533.6,96.529109 C 598.5,149.22911 640,229.82911 640,320.02911 c 0,90.2 -41.5,170.7 -106.4,223.5 -10.3,8.4 -25.4,6.8 -33.8,-3.5 -8.4,-10.3 -6.8,-25.4 3.5,-33.8 54.2,-44 88.7,-111 88.7,-186.2 0,-75.2 -34.5,-142.2 -88.7,-186.3 -10.3,-8.4 -11.8,-23.5 -3.5,-33.800001 8.3,-10.3 23.5,-11.8 33.8,-3.5 z m -60.5,74.500001 c 43.2,35.2 70.9,88.9 70.9,149 0,60.1 -27.7,113.8 -70.9,149 -10.3,8.4 -25.4,6.8 -33.8,-3.5 -8.4,-10.3 -6.8,-25.4 3.5,-33.8 32.5,-26.4 53.2,-66.6 53.2,-111.7 0,-45.1 -20.7,-85.3 -53.2,-111.8 -10.3,-8.4 -11.8,-23.5 -3.5,-33.8 8.3,-10.3 23.5,-11.8 33.8,-3.5 z m -60.5,74.5 c 21.5,17.6 35.4,44.4 35.4,74.5 0,30.1 -13.9,56.9 -35.4,74.5 -10.3,8.4 -25.4,6.8 -33.8,-3.5 -8.4,-10.3 -6.8,-25.4 3.5,-33.8 10.8,-8.8 17.7,-22.2 17.7,-37.2 0,-15 -6.9,-28.4 -17.7,-37.3 -10.3,-8.4 -11.8,-23.5 -3.5,-33.8 8.3,-10.3 23.5,-11.8 33.8,-3.5 z M 301.1,98.829109 c 11.5,5.200001 18.9,16.600001 18.9,29.200001 v 384 c 0,12.6 -7.4,24 -18.9,29.2 -11.5,5.2 -25,3.1 -34.4,-5.3 l -134.9,-119.9 H 64 c -35.3,0 -64,-28.7 -64,-64 v -64 c 0,-35.3 28.7,-64 64,-64 h 67.8 l 134.9,-119.9 c 9.4,-8.400001 22.9,-10.400001 34.4,-5.300001 z"
     id="path1"
     style="fill:#a2272c;fill-opacity:1;fill-rule:nonzero" />
</svg>
