<?xml version="1.0" encoding="UTF-8" standalone="no"?>
<svg
   viewBox="0 0 576 576"
   version="1.1"
   id="svg1"
   sodipodi:docname="volume_xmark_solid.svg"
   inkscape:version="1.4 (e7c3feb100, 2024-10-09)"
   width="576"
   height="576"
   xmlns:inkscape="http://www.inkscape.org/namespaces/inkscape"
   xmlns:sodipodi="http://sodipodi.sourceforge.net/DTD/sodipodi-0.dtd"
   xmlns="http://www.w3.org/2000/svg"
   xmlns:svg="http://www.w3.org/2000/svg">
  <defs
     id="defs1" />
  <sodipodi:namedview
     id="namedview1"
     pagecolor="#ffffff"
     bordercolor="#000000"
     borderopacity="0.25"
     inkscape:showpageshadow="2"
     inkscape:pageopacity="0.0"
     inkscape:pagecheckerboard="0"
     inkscape:deskcolor="#d1d1d1"
     inkscape:zoom="0.94921875"
     inkscape:cx="361.34979"
     inkscape:cy="269.69547"
     inkscape:window-width="2192"
     inkscape:window-height="1173"
     inkscape:window-x="1920"
     inkscape:window-y="0"
     inkscape:window-maximized="1"
     inkscape:current-layer="svg1" />
  <!--!Font Awesome Free 6.6.0 by @fontawesome - https://fontawesome.com License - https://fontawesome.com/license/free Copyright 2024 Fonticons, Inc.-->
  <path
     d="m 272.46066,87.819622 c 10.40617,4.705399 17.10231,15.021078 17.10231,26.422618 v 347.47557 c 0,11.40155 -6.69614,21.71723 -17.10231,26.42262 -10.40617,4.7054 -22.62211,2.80515 -31.12802,-4.79588 L 119.26375,374.84892 H 57.912594 C 25.970179,374.84892 0,348.87874 0,316.93633 v -57.9126 C 0,227.08132 25.970179,201.11114 57.912594,201.11114 H 119.26375 L 241.33264,92.615509 c 8.50591,-7.601028 20.72185,-9.410796 31.12802,-4.795887 z m 112.11516,119.625708 49.76864,49.76863 49.76863,-49.76863 c 8.50591,-8.50591 22.26016,-8.50591 30.67558,0 8.41542,8.50591 8.50591,22.26015 0,30.67557 l -49.76864,49.76864 49.76864,49.76864 c 8.50591,8.50591 8.50591,22.26015 0,30.67557 -8.50591,8.41543 -22.26015,8.50592 -30.67558,0 l -49.76863,-49.76863 -49.76864,49.76863 c -8.50591,8.50592 -22.26015,8.50592 -30.67558,0 -8.41542,-8.50591 -8.50591,-22.26015 0,-30.67557 l 49.76864,-49.76864 -49.76864,-49.76864 c -8.50591,-8.50591 -8.50591,-22.26015 0,-30.67557 8.50591,-8.41543 22.26016,-8.50591 30.67558,0 z"
     id="path1"
     style="fill:#a2272c;fill-opacity:1;stroke-width:0.904884" />
</svg>
