<?xml version="1.0" encoding="UTF-8" standalone="no"?>
<svg
   viewBox="0 0 576 576"
   version="1.1"
   id="svg1"
   sodipodi:docname="star_solid_red.svg"
   inkscape:version="1.4 (e7c3feb100, 2024-10-09)"
   width="576"
   height="576"
   xmlns:inkscape="http://www.inkscape.org/namespaces/inkscape"
   xmlns:sodipodi="http://sodipodi.sourceforge.net/DTD/sodipodi-0.dtd"
   xmlns="http://www.w3.org/2000/svg"
   xmlns:svg="http://www.w3.org/2000/svg">
  <defs
     id="defs1" />
  <sodipodi:namedview
     id="namedview1"
     pagecolor="#ffffff"
     bordercolor="#000000"
     borderopacity="0.25"
     inkscape:showpageshadow="2"
     inkscape:pageopacity="0.0"
     inkscape:pagecheckerboard="0"
     inkscape:deskcolor="#d1d1d1"
     inkscape:zoom="0.94921875"
     inkscape:cx="387.68724"
     inkscape:cy="370.83128"
     inkscape:window-width="2192"
     inkscape:window-height="1173"
     inkscape:window-x="1920"
     inkscape:window-y="0"
     inkscape:window-maximized="1"
     inkscape:current-layer="svg1" />
  <!--!Font Awesome Free 6.6.0 by @fontawesome - https://fontawesome.com License - https://fontawesome.com/license/free Copyright 2024 Fonticons, Inc.-->
  <path
     d="m 316.72818,49.971341 c -5.3,-11 -16.5,-18 -28.8,-18 -12.3,0 -23.4,7 -28.8,18 l -64.3,132.299999 -143.600005,21.2 c -12,1.8 -22,10.2 -25.7,21.7 -3.7,11.5 -0.7,24.2 7.9,32.7 l 104.200005,103.1 -24.6,145.7 c -2,12 3,24.2 12.9,31.3 9.9,7.1 23,8 33.8,2.3 l 128.3,-68.5 128.3,68.5 c 10.8,5.7 23.9,4.9 33.8,-2.3 9.9,-7.2 14.9,-19.3 12.9,-31.3 l -24.7,-145.7 104.2,-103.1 c 8.6,-8.5 11.7,-21.2 7.9,-32.7 -3.8,-11.5 -13.7,-19.9 -25.7,-21.7 l -143.7,-21.2 z"
     id="path1"
     style="fill:#a2272c;fill-opacity:1" />
</svg>
