<?xml version="1.0" encoding="UTF-8" standalone="no"?>
<svg
   viewBox="0 0 576 576"
   version="1.1"
   id="svg1"
   sodipodi:docname="star_regular_red.svg"
   inkscape:version="1.4 (e7c3feb100, 2024-10-09)"
   width="576"
   height="576"
   xmlns:inkscape="http://www.inkscape.org/namespaces/inkscape"
   xmlns:sodipodi="http://sodipodi.sourceforge.net/DTD/sodipodi-0.dtd"
   xmlns="http://www.w3.org/2000/svg"
   xmlns:svg="http://www.w3.org/2000/svg">
  <defs
     id="defs1" />
  <sodipodi:namedview
     id="namedview1"
     pagecolor="#ffffff"
     bordercolor="#000000"
     borderopacity="0.25"
     inkscape:showpageshadow="2"
     inkscape:pageopacity="0.0"
     inkscape:pagecheckerboard="0"
     inkscape:deskcolor="#d1d1d1"
     inkscape:zoom="0.47460938"
     inkscape:cx="788.01645"
     inkscape:cy="490.93004"
     inkscape:window-width="2192"
     inkscape:window-height="1173"
     inkscape:window-x="1920"
     inkscape:window-y="0"
     inkscape:window-maximized="1"
     inkscape:current-layer="svg1" />
  <!--!Font Awesome Free 6.6.0 by @fontawesome - https://fontawesome.com License - https://fontawesome.com/license/free Copyright 2024 Fonticons, Inc.-->
  <path
     d="m 288.00866,31.980697 c 9.2,0 17.6,5.2 21.6,13.5 l 68.6,141.300003 153.2,22.6 c 9,1.3 16.5,7.6 19.3,16.3 2.8,8.7 0.5,18.1 -5.9,24.5 l -111.1,110.2 26.2,155.6 c 1.5,9 -2.2,18.1 -9.7,23.5 -7.5,5.4 -17.3,6 -25.3,1.7 l -137,-73.2 -136.8,73.1 c -8.1,4.3 -17.9,3.7 -25.3,-1.7 -7.4,-5.4 -11.2,-14.5 -9.7,-23.5 l 26.2,-155.6 -111.099995,-110.1 c -6.5,-6.4 -8.7,-15.9 -5.9,-24.5 2.8,-8.6 10.3,-14.9 19.3,-16.3 l 153.199995,-22.6 68.6,-141.300003 c 4.1,-8.3 12.4,-13.5 21.6,-13.5 z m 0,79.000003 -52.5,108.2 c -3.5,7.1 -10.2,12.1 -18.1,13.3 l -118.299995,17.4 85.899995,85.1 c 5.5,5.5 8.1,13.3 6.8,21 l -20.3,119.7 105.2,-56.2 c 7.1,-3.8 15.6,-3.8 22.6,0 l 105.2,56.2 -20.2,-119.6 c -1.3,-7.7 1.2,-15.5 6.8,-21 l 85.9,-85.1 -118.3,-17.5 c -7.8,-1.2 -14.6,-6.1 -18.1,-13.3 z"
     id="path1"
     style="fill:#a2272c;fill-opacity:1" />
</svg>
