<?xml version="1.0" encoding="UTF-8"?>
<svg xmlns="http://www.w3.org/2000/svg" xmlns:xlink="http://www.w3.org/1999/xlink" height="513.5" preserveAspectRatio="xMidYMid meet" version="1.0" viewBox="-8.8 -2.3 385.9 513.5" width="385.9" zoomAndPan="magnify"><g id="change1_1"><path d="M68.9,308.6c11.7-26.4,66.3-48.1,69.1-79.2c6.2-69.1-41.2-79.2-69.1-126.6S46.4,3.3,75.1,0.2 c23.4-2.5,21.7,23,20.8,38.5s12.5,58.5,42.7,53.9c31.2-4.7,31.2-68.4,126.8-52.8c111.7,18.1,106.6,163.7,104.9,190.3 c-3.1,46.6-40.2,191-209.7,194.2c-55.2,1-76.1-26.4-97.1-24.9c-21,1.6-9.6,42.5-7,80c1.6,22.5-50.5,31.8-54.4,0 S-8.8,322.5,68.9,308.6z" fill="#F27587"/></g><g id="change2_1"><path d="M179.2,400.3c-7,0-12.7-5.5-13-12.5c-0.3-7.2,5.3-13.3,12.5-13.6c57.9-2.5,89.6-33.4,100.6-46.5 c4.6-5.5,12.9-6.3,18.4-1.7c5.5,4.6,6.3,12.9,1.7,18.4c-27.9,33.4-71.4,53.8-119.5,55.9C179.6,400.3,179.4,400.3,179.2,400.3z" fill="#F9B2C2"/></g></svg>