<svg xmlns="http://www.w3.org/2000/svg" xmlns:xlink="http://www.w3.org/1999/xlink" preserveAspectRatio="xMidYMid meet" version="1.0" viewBox="-1.2 -0.7 319.8 382.6" zoomAndPan="magnify" style="fill: rgb(0, 0, 0);" original_string_length="38919"><g id="__id42_st2ai59nls"><path d="M311.9055,138.454l-26.1376,5.2784c-2.4426,0.4932-4.8727-0.8993-5.6821-3.2561l-10.7475-31.2956 l43.243-7.0928c1.4388-7.8316,0.5721-15.0969-4.392-21.3559h-41.2163l39.1893-13.5135c2.9453-8.6428,0.9928-16.7339-5.4055-24.3245 l-48.2478,8.8846c-2.1111-4.364-5.1541-9.2974-9.3885-13.3246c-5.5316-5.2454-14.2556-9.9434-26.3193-12.7389l3.835-14.7334 c-4.8427-7.0336-11.6344-8.599-19.7455-6.4625l-4.8457,18.6156c-2.1082-0.0718-4.287-0.0891-6.5236-0.0609l0.0002-21.3604 c-6.1654-2.1616-12.9442-2.4047-20.5695,0v23.1912c-2.4039,0.4494-4.7179,0.9748-6.9381,1.5715l-5.6247-22.3475 c-7.9644-1.4545-14.2832,1.36-19.7961,6.265l6.0691,24.1122c-9.5647,5.6853-16.0164,12.7247-19.5282,19.2295 c-2.7142,5.0322-4.429,11.416-5.1811,18.2046c-2.242-2.3191-10.5242-11.8321-15.1695-30.1387c-5.4055-21.3014,0-32.1122,0-32.1122 c-7.8952-3.7532-15.4766-4.1402-22.6352,0L74.0669,33.338L54.8101,9.6893C43.236,7.4703,33.35,9.6707,27.4451,22.2913 c0,0,37.5001,33.0063,41.5541,50.2361c0.7503,3.1878,1.3586,6.9892,1.8536,11.0649l-46.1081,8.076 c-2.1111,5.5529-1.2389,9.5902,2.1618,12.3428l45.0999-7.8993c0.1581,2.3013,0.292,4.5866,0.4034,6.8052l-44.6065,7.8129 c-1.1449,4.624-0.7851,8.8368,2.162,12.3428l32.2025-5.6403c-4.7943,4.5028-9.4289,9.9358-13.7915,16.4797 c-7.1213,10.682-10.9066,21.6419-12.5282,32.1637l-22.086-12.1369c-8.4826,4.9798-12.693,12.5128-12.4198,22.7254l28.17,15.1851 l-25.3331-0.4921c-5.2822,6.987-5.3996,15.1659-1.2408,24.332l38.4479-0.9652c3.4544,9.5757,6.9901,15.4721,6.9901,15.4721 c5.6668,28.0189,22.5832,50.1664,44.2718,67.1189l-0.0002,36.2734c13.0632,6.4008,26.1263,6.4008,39.1894,0v-12.8413 c25.6084,11.6992,52.4734,18.3251,73.6488,20.5984v35.6983c13.063,4.8794,26.1263,4.8794,39.1893,0v-38.835 c30.2085-11.3417,44.995-40.6903,45.9314-96.8639c0.3641-21.8515-2.6742-37.0287-6.7168-47.5069l19.9073,6.7813 c4.3178-6.3376,8.1072-13.0272,6.081-23.5924l-24.3242-7.0946l31.4189-6.0811C318.563,152.4077,315.9028,144.8237,311.9055,138.454z M197.444,54.9012c7.5185,0.2846,12.8126,1.9144,16.5419,3.9713l-52.8915,9.7397C167.5832,58.3581,180.0923,54.2537,197.444,54.9012 z" style="fill: rgb(223, 121, 123);"/></g><g id="__id43_st2ai59nls"><path d="M215.858,200.1274c-3.4855,7.7141-10.0498,16.6563-0.7964,22.4062c1.0862,0.675,2.2273,1.2354,3.3878,1.7546 c1.5006-3.2461,4.2263-5.9836,7.6353-7.1279c4.078-1.3689,9.8681-0.8005,12.865,2.6054c1.1324,1.2869-0.3165,3.1383-1.8292,2.34 c-1.5426-0.8139-2.9335-1.7206-4.6794-2.0639c-1.643-0.323-3.3793-0.2915-4.9802,0.2278c-2.6838,0.8706-4.94,2.7374-6.1908,5.2232 c2.2706,0.9524,4.5203,1.9427,6.5108,3.4614c3.5628,2.7184,5.8045,7.281,4.3265,11.7143c-0.74,2.2202-4.1174,1.1106-3.4458-1.1179 c0.5475-1.8167,0.1935-3.3945-0.6551-4.7591l-0.9738,1.248c-0.3045,0.3903-0.6207,0.7702-0.9371,1.151 c-0.3307,0.3981-0.6447,0.812-1.0276,1.161c-0.3298,0.3004-0.6668,0.4815-1.1125,0.5169c-0.3374,0.0266-0.679-0.1041-0.9496-0.2917 c-0.6436-0.4464-0.8644-1.3057-0.5098-2.0104c0.2556-0.5079,0.6211-0.9606,0.9537-1.4205c0.2744-0.3794,0.5473-0.759,0.8344-1.1291 c0.4547-0.5864,0.9093-1.1729,1.3641-1.7594c-1.7916-1.4014-3.9961-2.4467-5.7515-3.1703 c-3.9783-1.6398-8.2014-3.1543-11.1021-6.5087c-0.6942-0.8028-1.2192-1.678-1.6332-2.591 c-0.1129,0.0368-0.2299,0.0568-0.3424,0.0968c-0.2077,0.0739-0.4098,0.1581-0.6134,0.2422 c-0.0152,0.0062-0.0201,0.008-0.0316,0.0126c-0.013,0.0077-0.0231,0.0138-0.0457,0.0263c-0.1066,0.059-0.2158,0.113-0.3223,0.1719 c-0.43,0.238-0.8413,0.5105-1.2293,0.8123c-0.0746,0.0582-0.1616,0.1507-0.2488,0.2046c-0.0021,0.0018-0.004,0.0036-0.006,0.0054 c-0.1804,0.1679-0.3547,0.3426-0.5222,0.5236c-0.2898,0.3134-0.5296,0.6649-0.7964,0.9938c0.0669-0.0749,0.0887-0.0858-0.1133,0.145 l0.0008-0.0012c0.0046-0.0074,0.0125-0.0161,0.0179-0.024c-0.0122,0.0141-0.0225,0.03-0.0348,0.044 c0.0089-0.0099,0.0082-0.0098,0.0161-0.0189c-0.0667,0.1063-0.1315,0.2139-0.1944,0.3227 c-0.1262,0.2186-0.2365,0.4445-0.3535,0.6679c-0.0632,0.1209-0.1315,0.2392-0.1941,0.3605 c-0.0183,0.0353-0.1125,0.2684-0.1611,0.3368c-0.0078,0.0218-0.0157,0.0434-0.0232,0.0653 c-0.0436,0.125-0.0838,0.2514-0.1293,0.3758c-0.0782,0.2141-0.1902,0.4137-0.2762,0.6235 c-0.0046,0.0165-0.0101,0.0363-0.0149,0.0558c-0.0811,0.3354-0.1589,0.6649-0.2575,0.9963 c-0.2005,0.6733-0.7805,1.111-1.4772,1.1414c-0.6336,0.0277-1.3614-0.4999-1.4775-1.1343 c-0.5381-2.9389,0.7424-5.8755,2.8364-7.9255c1.4304-1.4003,3.1044-2.3898,4.9924-2.8585 c-0.2273-2.1398,0.0259-4.3623,0.5966-6.4672c0.7149-2.6357,1.9736-5.0426,3.2286-7.4522 c-16.8609,4.8965-33.1969-1.7102-33.1969-1.7102c45.3722-30.3975,17.4672-66.4814,11.4423-73.3844 c3.6142-3.5789,8.3056-6.1138,13.6812-6.9955l36.0027-5.9053c16.7267,23.3651,9.2984,59.102,9.2984,59.102 s14.2715,6.1644,16.5637,32.6223c-24.8649,8.0682-40.6386-10.3215-40.6386-10.3215 C220.7738,197.5398,218.3295,198.9753,215.858,200.1274z" style="fill: rgb(162, 39, 44);"/></g><g id="__id44_st2ai59nls"><path d="M119.6307,97.3269c-2.0485-7.8994-2.6125-16.9541-1.6779-25.3867 c-2.242-2.3191-10.5242-11.8321-15.1695-30.1387c-5.4055-21.3014,0-32.1122,0-32.1122c-7.8952-3.7532-15.4766-4.1402-22.6352,0 L74.0669,33.338L54.8101,9.6893C43.236,7.4703,33.35,9.6707,27.4451,22.2913c0,0,37.5001,33.0063,41.5541,50.2361 c0.7503,3.1878,1.3586,6.9892,1.8536,11.0649l-46.1081,8.076c-2.1111,5.5529-1.2389,9.5902,2.1618,12.3428l45.0999-7.8993 c0.1581,2.3013,0.292,4.5866,0.4034,6.8052l-44.6065,7.8129c-1.1449,4.624-0.7851,8.8368,2.162,12.3428l32.2025-5.6403 C81.0938,99.6569,102.5172,96.4524,119.6307,97.3269z M73.7956,67.7747c-1.6413-3.2937-2.9927-6.709-4.7368-9.9575 c-1.6226-3.0222-3.4348-5.9374-5.4116-8.7402c-4.0888-5.7971-8.8372-11.1047-14.1211-15.8367 c-1.5312-1.3712,0.5587-3.6786,2.1182-2.3687c5.6417,4.7383,10.6529,10.2006,14.8667,16.2464 c2.0928,3.0024,4.0055,6.1361,5.7258,9.3663c1.6901,3.1737,3.4283,6.5236,4.3975,9.9989 C77.0949,68.1346,74.6088,69.4064,73.7956,67.7747z M79.5904,82.1893c-0.0702,0.5456-0.218,1.0652-0.7448,1.3546 c-0.3614,0.1986-0.7659,0.2822-1.1744,0.1831c-1.2407-0.3011-1.3033-1.7257-1.3886-2.7593 c-0.0594-0.7206-0.1293-1.4413-0.1706-2.1632c-0.0855-1.4924-0.1627-2.9854-0.2439-4.4781 c-0.0522-0.9558,0.5076-1.7473,1.4772-1.9148c0.8689-0.1502,1.8591,0.5823,1.9151,1.4773c0.0918,1.4757,0.1869,2.9512,0.2757,4.4271 c0.0458,0.7621,0.062,1.5265,0.0892,2.2894C79.6445,81.1429,79.6597,81.6527,79.5904,82.1893z M92.6481,297.315 c11.9715,9.3574,25.3956,17.1304,39.1893,23.432v12.8413c-13.0632,6.4008-26.1262,6.4008-39.1894,0L92.6481,297.315z M308.1891,80.732h-41.2163l39.1893-13.5135c2.9453-8.6428,0.9928-16.7339-5.4055-24.3245l-48.2478,8.8846 c0.0002,0.0005,0.0003,0.0009,0.0006,0.0014l-38.5147,7.0969c-0.0029-0.0016-0.006-0.0029-0.0089-0.0045l-52.8915,9.7397 c-0.0009,0.0012-0.0017,0.0023-0.0025,0.0035c-1.8778,2.9528-3.2635,6.4235-4.1052,10.4382 c-1.5012,7.118-0.8554,13.0586,0.4635,17.6291l0.0152,0.0322l-0.0009,0.0007l0.0013,0.0024c0,0-15.4774,3.0346-28.418,20.2238 c-1.7107,2.2723-3.379,4.7818-4.9592,7.5749l-0.0022,0.0019c-12.0693-8.361-28.9539-6.1837-46.0199,8.5514 c-3.5355,3.0434-6.8248,6.6695-9.7386,10.982c-2.3052,3.406-4.1055,6.8897-5.4393,10.3734 c-0.4792,13.5722,3.5743,28.3486,18.9336,39.0587c3.471,2.4194,6.3342,4.7592,8.6666,6.9993 c2.5613,1.9023,5.061,3.8907,7.475,6.0004c9.9276,8.6762,17.8219,19.2844,21.0942,32.1982 c1.4422,5.6921,2.4344,12.1434,6.4272,16.7181c0.0591,0.0677,0.1236,0.128,0.1837,0.1943c1.4498-1.6819,2.6927-3.5434,4.2159-5.1659 c1.8803-2.0031,4.2643-3.2827,6.9448-3.8544c2.6578-0.5668,5.4673-0.4817,8.1323-0.0175c2.9407,0.5121,6.1815,1.3655,8.8206,2.7845 c1.2332,0.663,0.6108,2.9545-0.841,2.7008c-1.7048-0.2977-3.3533-0.8618-5.0152-1.3782c-0.1113,1.9385,0.7171,3.6743,1.8765,5.3084 c1.2342,1.7397,2.718,3.3292,4.4693,4.555c2.9327,2.0527,6.8109,2.5577,9.4716,5.0146c0.8744,0.8074,2.4338,2.3873,1.6572,3.6804 c-0.7297,1.2155-1.9753,0.6396-2.7308-0.125c-1.1034-1.1169-2.4989-1.8646-3.9299-2.4843c-0.3584-0.1552-0.719-0.3043-1.0796-0.4533 c-1.5801,2.8106-3.6224,5.9985-2.9964,9.3505c0.2438,1.3039,0.841,2.4066,1.9473,3.1613c1.1461,0.7816,2.4843,1.2385,3.6079,2.0583 c1.4225,1.0382,2.287,2.4062,2.7517,4.0989c0.3797,1.3829,0.3595,2.9631,1.0238,4.2532c1.2486,2.4246,4.8628,2.4801,7.2126,2.6436 c1.8461,0.1285,1.6479,3.2902-0.1831,3.2262c-3.2648-0.114-6.9704-0.4892-9.1988-3.1967c-1.1368-1.3813-1.5192-3.1094-1.9179-4.8073 c-0.4155-1.7693-1.0135-2.8543-2.6315-3.7482c-1.5241-0.8421-3.1344-1.4954-4.312-2.8384c-1.1706-1.3351-1.8315-3.0353-2.0276-4.786 c-0.4456-3.9762,1.4022-7.594,3.5864-10.789c-0.2657-0.1299-0.5329-0.2562-0.7936-0.398c-1.7538-0.9542-3.3442-2.2263-4.7366-3.6531 c-2.6214-2.6869-5.5583-6.9983-4.5621-10.961c-2.426-0.4255-4.9269-0.4994-7.2967,0.2715c-2.1283,0.6923-3.8829,1.858-5.3497,3.5475 c-1.2242,1.41-2.2896,2.9051-3.5413,4.2609c3.9533,2.7749,9.045,3.8772,13.6061,5.1717c2.0083,0.5701,1.6066,3.5668-0.5506,3.2623 c-0.7487-0.1057-1.5036-0.2256-2.2598-0.3584c-0.8113,1.7412-1.4503,3.5811-1.8009,5.463 c-0.2036,1.0925-0.4588,2.3278-0.2542,3.4355c0.1295,0.7013,0.467,1.4075,1.1076,1.5573c2.0747,0.485,1.5205,3.4439-0.5748,3.2324 c-1.6746-0.169-3.0897-1.4437-3.6523-2.9973c-0.5335-1.4729-0.5032-3.0396-0.3024-4.5734c0.313-2.3916,1.011-4.686,2.0637-6.834 c-4.8626-1.2012-9.5431-3.2364-12.9356-6.9934c-4.3057-4.7682-5.6864-11.117-7.1926-17.1704 c-0.4211-1.6929-0.9039-3.3484-1.4481-4.9725c-0.2921,0.3582-0.5671,0.7305-0.8214,1.1126c-0.2537,0.3813-0.4812,0.7737-0.71,1.1698 c-0.0059,0.0101-0.003,0.004-0.0074,0.0117c-0.0035,0.0075-0.0003,0.002-0.0047,0.0116c-0.0449,0.0975-0.0941,0.193-0.1394,0.2904 c-0.0904,0.1948-0.1763,0.3917-0.2574,0.5907c-0.1729,0.4245-0.3214,0.8583-0.4564,1.2963 c-0.0645,0.2092-0.1195,0.4207-0.1788,0.6313c-0.0171,0.0607-0.0256,0.0895-0.0313,0.1067 c-0.0074,0.0347-0.0182,0.0837-0.0335,0.1519c0.0093-0.0413-0.0579,0.2505-0.0781,0.3377 c-0.0481,0.2112-0.1625,0.8472-0.2118,1.2244c-0.0667,0.5071-0.116,1.0085-0.2092,1.5117c-0.2787,1.5066-2.6155,1.4165-2.935-0.0137 c-0.4953-2.2168,0.0144-4.6891,0.9291-6.7351c0.9013-2.0158,2.1784-3.7345,3.8464-5.1777 c-1.3148-3.2077-2.9238-6.2836-4.9322-9.2279c-2.6704-3.915-5.7626-7.396-9.1052-10.6174 c3.4643,13.1434-14.9266,18.2095-24.3109,6.2968c0,0-2.6938,33.4511,49.3284,68.5858 c27.9212,18.843,51.9833,23.6605,68.3008,24.0749c9.6612,0.2461,15.1911-10.8266,9.2078-18.4027 c-22.5056-28.5271-38.11-56.834-48.0433-84.6362c4.9529-4.002,12.2255-10.9537,18.0725-20.9234 c6.0215-10.2674,10.5267-23.7317,9.4025-40.4903c-0.5181-7.7235,2.4243-14.9352,7.5602-20.021 c3.6142-3.5789,8.3056-6.1138,13.6812-6.9955l36.0027-5.9053l24.3799-3.9989l7.0441-1.1554l43.243-7.0928 C314.0199,94.2562,313.1532,86.9909,308.1891,80.732z M101.7656,195.401c-29.0479-33.4511,6.0868-80.4095,22.3268-70.878 c8.651,5.9702,14.8282,17.3407,16.8614,33.3475c2.1241,16.6932,6.0998,33.6453,12.2383,50.7918 C149.1386,211.7704,127.874,225.4332,101.7656,195.401z M170.0115,164.2707c-0.0035,0.0156-0.007,0.0311-0.0103,0.0466 c-0.0046,0.0587-0.0096,0.1175-0.0147,0.1762c-0.0057,0.0697-0.0112,0.1395-0.0174,0.2092 c-0.0237,0.266-0.0449,0.3596-0.0955,0.4773c-0.0047,0.0142-0.0119,0.0276-0.0168,0.0417c-0.0098,0.0213-0.025,0.0526-0.0372,0.0775 c-0.0164,0.0405-0.0376,0.0794-0.0571,0.119c-0.0258,0.0552-0.0471,0.1006-0.0669,0.1394 c-0.0103,0.0172-0.0147,0.0364-0.0256,0.0534c-0.0085,0.0099-0.0169,0.0197-0.0255,0.0296 c-0.0057,0.0078-0.0079,0.0147-0.0142,0.023c-0.0164,0.0215-0.0329,0.0429-0.0495,0.0641 c-0.0046,0.0058-0.0046,0.0062-0.0085,0.0114c0.0101-0.015,0.0229-0.0365,0.0348-0.0552l-0.2537,0.294 c-0.1799,0.172-0.388,0.2871-0.6241,0.3453c-0.1431,0.0694-0.2939,0.0996-0.4525,0.0906c-0.2318,0.0351-0.46,0.0115-0.6845-0.0708 c-0.141-0.0673-0.2817-0.1348-0.4227-0.2022c-0.2156-0.1298-0.3829-0.3023-0.5021-0.5177c-0.1513-0.1873-0.2463-0.4022-0.2852-0.645 c-0.018-0.1899-0.036-0.3799-0.0541-0.5697c-0.0055-0.0291-0.0112-0.0581-0.0164-0.0872c-0.0876-0.3223-0.092-0.6456-0.0133-0.9701 c0.084-0.3344,0.246-0.6256,0.486-0.8737c0.1764-0.1956,0.387-0.3333,0.6317-0.4132c0.2207-0.1161,0.4581-0.1712,0.7127-0.1653 c0.3363-0.0035,0.6521,0.0752,0.9476,0.236c0.1374,0.1018,0.2748,0.2037,0.412,0.3055c0.2466,0.2415,0.4166,0.5282,0.5097,0.8602 C170.0856,163.6228,170.0899,163.9461,170.0115,164.2707z M183.703,120.3378c-4.7817,2.6822-8.623,6.7736-10.4611,11.9868 c-2.448,6.9425-0.3742,13.8833,0.1421,20.9276c0.1355,1.8501-2.5613,2.3447-3.1505,0.6204 c-2.4502-7.1693-3.4424-15.8869-0.8184-23.1307c2.169-5.9878,6.7661-11.144,12.634-13.6617 C184.2013,116.1569,185.7669,119.1801,183.703,120.3378z" style="fill: rgb(86, 95, 166);"/></g><g id="__id45_st2ai59nls"><path d="M311.9055,138.454l-26.1376,5.2784c-2.4426,0.4932-4.8727-0.8993-5.6821-3.2561l-10.7475-31.2956 l-7.0441,1.1554c15.8068,26.7263,3.9882,61.0761,3.9882,61.0761s10.3999,3.744,17.6077,22.4257l19.9073,6.7813 c4.3178-6.3376,8.1072-13.0272,6.081-23.5924l-24.3242-7.0946l31.4189-6.0811C318.563,152.4077,315.9028,144.8237,311.9055,138.454z M300.3248,180.0923l0.3105-0.3946c0.2432-0.2346,0.5284-0.3928,0.8559-0.4747c0.1584-0.018,0.3171-0.036,0.4755-0.054 c0.2491-0.0055,0.4815,0.0487,0.6973,0.1626c0.2395,0.0784,0.4455,0.2134,0.618,0.4051c0.1866,0.1781,0.3156,0.388,0.3867,0.6297 c0.1075,0.2191,0.1549,0.453,0.142,0.7018c-0.0177,0.191-0.0359,0.3819-0.0545,0.5728c-0.009,0.0931-0.0183,0.1862-0.0277,0.2793 c-0.0033,0.0331-0.0092,0.0663-0.013,0.0996c0.0013-0.0036,0.0016-0.0054,0.0029-0.0091c-0.0006,0.0076-0.0038,0.0142-0.0044,0.0218 c-0.0144,0.1231-0.0384,0.2441-0.0751,0.3617c-0.0092,0.03-0.015,0.0609-0.0258,0.0903c-0.0017,0.0043-0.0019,0.0091-0.0038,0.0134 c-0.0112,0.0266-0.0224,0.0533-0.0338,0.0798c-0.0057,0.0132-0.0112,0.0264-0.0169,0.0395 c-0.0367,0.0861-0.0447,0.0905-0.0384,0.0534c-0.0335,0.0669-0.0577,0.1372-0.1003,0.2011 c-0.1062,0.1191-0.2123,0.2382-0.3184,0.3573c-0.1805,0.1671-0.3876,0.2774-0.6219,0.3312 c-0.1423,0.0663-0.2915,0.0937-0.448,0.0824c-0.2294,0.0311-0.4543,0.0042-0.6747-0.0805c-0.1382-0.0688-0.276-0.1375-0.4142-0.2062 c-0.2109-0.1315-0.3734-0.3046-0.4875-0.5192c-0.1465-0.1872-0.2371-0.4009-0.2716-0.6413 c-0.0095-0.0609-0.0121-0.1234-0.0177-0.1848c-0.0295-0.3329-0.0575-0.6651-0.0982-0.9976 C300.0736,180.6839,300.1594,180.377,300.3248,180.0923z M301.8513,147.4205c-2.4279,0.8331-4.8846,1.5585-7.351,2.2691 c-2.7207,0.7838-5.4565,1.6563-8.2619,2.082c-1.9625,0.2978-2.5626-2.5136-0.8416-3.2675c2.5714-1.1266,5.337-1.8348,8.0273-2.6161 c2.5295-0.7346,5.0616-1.4418,7.6218-2.0618c0.9696-0.2348,1.9848,0.4337,2.1998,1.3945 C303.4796,146.2656,302.7913,147.098,301.8513,147.4205z M41.3862,214.724l-38.4479,0.9652 c-4.1588-9.166-4.0413-17.345,1.2408-24.332l25.3331,0.4921l-28.17-15.1851c-0.2732-10.2126,3.9372-17.7456,12.4198-22.7254 l22.086,12.1369C32.907,185.1584,37.0832,202.7964,41.3862,214.724z M236.8905,340.6694c2.7052-0.6956,5.2912-1.5244,7.785-2.4607 v38.835c-13.063,4.8794-26.1263,4.8794-39.1893,0v-35.6983C218.7645,342.771,229.8098,342.4901,236.8905,340.6694z M232.1513,282.8297c-14.1809-15.4241-38.0098-44.5497-55.3633-82.2097c0,0,16.3359,6.6067,33.1969,1.7102 c-1.2551,2.4097-2.5137,4.8165-3.2286,7.4522c-0.5707,2.1049-0.8239,4.3274-0.5966,6.4672c-1.888,0.4687-3.562,1.4583-4.9924,2.8585 c-2.094,2.05-3.3745,4.9865-2.8364,7.9255c0.116,0.6344,0.8439,1.1619,1.4775,1.1343c0.6967-0.0303,1.2767-0.4681,1.4772-1.1414 c0.0986-0.3313,0.1764-0.6609,0.2575-0.9963c0.0047-0.0195,0.0103-0.0393,0.0149-0.0558c0.086-0.2098,0.1979-0.4094,0.2762-0.6235 c0.0455-0.1244,0.0857-0.2507,0.1293-0.3758c0.0076-0.0219,0.0155-0.0435,0.0232-0.0653c0.0485-0.0684,0.1428-0.3015,0.1611-0.3368 c0.0626-0.1213,0.1309-0.2396,0.1941-0.3605c0.117-0.2234,0.2273-0.4493,0.3535-0.6679c0.0629-0.1088,0.1277-0.2163,0.1944-0.3227 c0.202-0.2309,0.1802-0.22,0.1133-0.145c0.2669-0.3289,0.5067-0.6804,0.7964-0.9938c0.1674-0.181,0.3418-0.3557,0.5222-0.5236 c0.0021-0.0018,0.004-0.0036,0.006-0.0054c0.0873-0.054,0.1742-0.1465,0.2488-0.2046c0.388-0.3018,0.7993-0.5743,1.2293-0.8123 c0.1066-0.059,0.2158-0.113,0.3223-0.1719c0.0226-0.0125,0.0327-0.0187,0.0457-0.0263c0.0115-0.0047,0.0164-0.0064,0.0316-0.0126 c0.2036-0.0841,0.4057-0.1683,0.6134-0.2422c0.1126-0.0401,0.2295-0.06,0.3424-0.0968c0.414,0.913,0.939,1.7883,1.6332,2.591 c2.9007,3.3544,7.1239,4.8689,11.1021,6.5087c1.7554,0.7236,3.9599,1.7689,5.7515,3.1703 c-0.4548,0.5865-0.9095,1.1729-1.3641,1.7594c-0.2871,0.3701-0.5599,0.7496-0.8344,1.1291 c-0.3326,0.4599-0.6981,0.9126-0.9537,1.4205c-0.3546,0.7047-0.1337,1.5639,0.5098,2.0104 c0.2706,0.1876,0.6123,0.3183,0.9496,0.2917c0.4456-0.0353,0.7827-0.2164,1.1125-0.5169c0.3829-0.349,0.6969-0.7629,1.0276-1.161 c0.3165-0.3808,0.6327-0.7606,0.9371-1.151l0.9738-1.248c0.8486,1.3646,1.2026,2.9424,0.6551,4.7591 c-0.6716,2.2285,2.7058,3.3381,3.4458,1.1179c1.478-4.4333-0.7637-8.9959-4.3265-11.7143c-1.9905-1.5187-4.2402-2.509-6.5108-3.4614 c1.2508-2.4858,3.507-4.3526,6.1908-5.2232c1.601-0.5193,3.3372-0.5509,4.9802-0.2278c1.7459,0.3433,3.1368,1.25,4.6794,2.0639 c1.5127,0.7982,2.9616-1.0531,1.8292-2.34c-2.9969-3.4059-8.7869-3.9744-12.865-2.6054c-3.409,1.1443-6.1347,3.8818-7.6353,7.1279 c-1.1605-0.5192-2.3016-1.0797-3.3878-1.7546c-9.2533-5.7499-2.6891-14.6921,0.7964-22.4062 c2.4715-1.1521,4.9159-2.5876,7.2797-4.3897c0,0,15.7738,18.3897,40.6386,10.3215c0.3367,3.8851,0.4145,8.1977,0.1554,12.9894 c-1.2174,22.5209-8.0941,45.4044-13.4037,60.0903C247.7436,286.8703,237.707,288.8776,232.1513,282.8297z M202.8905,223.2208 l-0.0008,0.0012c-0.0079,0.0091-0.0073,0.009-0.0161,0.0189c0.0123-0.014,0.0226-0.0299,0.0348-0.044 C202.903,223.2048,202.8951,223.2134,202.8905,223.2208z M176.788,200.6201c-1.928-4.187-3.7738-8.4822-5.5204-12.8731 c6.0215-10.2674,10.5267-23.7317,9.4025-40.4903c-0.5181-7.7235,2.4243-14.9352,7.5602-20.021 C194.2552,134.1386,222.1602,170.2226,176.788,200.6201z M197.444,54.9012c7.5185,0.2846,12.8126,1.9144,16.5419,3.9713 c0.0028,0.0016,0.006,0.0029,0.0089,0.0045l38.5147-7.0969c-0.0003-0.0005-0.0005-0.0009-0.0006-0.0014 c-2.1111-4.364-5.1541-9.2974-9.3885-13.3246c-5.5316-5.2454-14.2556-9.9434-26.3193-12.7389l3.835-14.7334 c-4.8427-7.0336-11.6344-8.599-19.7455-6.4625l-4.8457,18.6156c-2.1082-0.0718-4.287-0.0891-6.5236-0.0609l0.0002-21.3604 c-6.1654-2.1616-12.9442-2.4047-20.5695,0v23.1912c-2.4039,0.4494-4.7179,0.9748-6.9381,1.5715l-5.6247-22.3475 c-7.9644-1.4545-14.2832,1.36-19.7961,6.265l6.0691,24.1122c-9.5647,5.6853-16.0164,12.7247-19.5282,19.2295 c-2.7142,5.0322-4.429,11.416-5.1811,18.2046c-0.9346,8.4326-0.3706,17.4874,1.6779,25.3867 c0.5593,2.1565,1.2219,4.2311,2.0011,6.1774c2.0817,5.1992,4.7828,9.73,7.4159,13.4378 c12.9407-17.1893,28.418-20.2238,28.418-20.2238l-0.0013-0.0024l-0.0117-0.0235c-0.0009-0.003-0.0016-0.0065-0.0025-0.0095 c-1.3189-4.5705-1.9647-10.511-0.4635-17.6291c0.8417-4.0147,2.2274-7.4854,4.1052-10.4382 c0.0008-0.0012,0.0016-0.0023,0.0025-0.0035C167.5832,58.3581,180.0923,54.2537,197.444,54.9012z M203.4092,10.0873 c2.1721,0,2.6366,3.3922,0.4376,3.3922C201.6747,13.4795,201.2102,10.0873,203.4092,10.0873z M141.1571,16.4159 c-0.2665-0.8446,0.1499-1.782,1.0061-2.0809s1.7578,0.1857,2.0809,1.0061c0.7466,1.8959,1.52,3.7771,2.2475,5.6807 c0.688,1.7998,1.524,3.7185,1.7624,5.6407c0.0952,0.7666-0.3763,1.4644-1.0598,1.7704c-0.6229,0.2789-1.6126,0.0485-1.9739-0.5572 c-1.0307-1.7286-1.6383-3.7252-2.261-5.6311C142.3273,20.3105,141.7692,18.3563,141.1571,16.4159z M129.2947,74.758 c-2.1247,0-2.4657-3.3138-0.3203-3.3138C131.0993,71.4442,131.4401,74.758,129.2947,74.758z M162.1871,34.6856 c-7.2426,2.758-14.7713,5.4994-20.8534,10.4493c-2.7215,2.215-5.1067,4.9602-6.8014,8.0379 c-0.8616,1.5649-1.5701,3.2114-2.0219,4.942c-0.497,1.9041-0.6229,3.8464-1.0257,5.7552c-0.3196,1.5154-2.6353,1.6292-3.0408,0.1044 c-1.0244-3.8513,0.3454-8.2262,2.0781-11.6756c1.7519-3.4883,4.2652-6.617,7.2009-9.1795 c6.7061-5.8538,15.1631-8.883,23.5433-11.4538C163.227,31.0639,164.0693,33.9689,162.1871,34.6856z M78.4177,124.547 c-4.4739,3.5242-8.5797,7.9954-12.0499,12.5084c-6.0402,7.8555-10.2942,17.2254-12.0254,26.9946 c-0.9469,5.3439-1.2424,10.8471-0.7884,16.2581c0.4667,5.5625,1.7804,10.8449,3.4011,16.1667 c0.9049,2.9706-3.2639,4.8688-4.5355,1.899c-2.5477-5.9505-3.6284-12.7185-4.0102-19.1414 c-0.6704-11.2775,1.5788-22.7527,6.5358-32.9099c2.41-4.9385,5.4619-9.5933,8.9977-13.798 c3.5642-4.2388,7.6201-7.5408,12.1455-10.6851C77.9387,120.5539,80.2519,123.102,78.4177,124.547z M61.2593,207.6359 c0.1182,1.0123-0.6654,2.3202-1.7944,2.3202c-1.114,0-2.177-0.5659-2.3202-1.7945c-0.1181-1.0123,0.6655-2.3202,1.7946-2.3202 C60.0531,205.8414,61.1161,206.4073,61.2593,207.6359z M277.9698,205.4048c1.9804,10.2451,2.3481,20.6864,1.131,31.0519 c-0.6093,5.1883-1.6098,10.3357-3.0164,15.3673c-1.4114,5.0491-3.1197,10.2385-5.7468,14.7933 c-1.0549,1.8288-4.352,0.8571-3.6319-1.3173c1.8392-5.5523,3.9942-10.9352,5.4126-16.6286 c2.3944-9.6122,3.3312-19.5584,2.8193-29.4494c-0.5285-10.2112-2.7411-19.9857-5.6397-29.7559 c-0.5868-1.9779,2.567-2.9084,3.3775-1.1004C275.1145,193.8078,276.8384,199.5516,277.9698,205.4048z M264.4732,273.938 c2.4081,0,2.3353,3.7328-0.0683,3.7328C261.9967,277.6707,262.0696,273.938,264.4732,273.938z M215.6913,327.8877 c-0.0108-0.0247-0.0297-0.0442-0.0427-0.0674c-0.0177-0.0256-0.0221-0.0564-0.0419-0.0811 C215.6349,327.7887,215.6632,327.8381,215.6913,327.8877z M271.0085,300.7447c-4.1444,0.3603-8.8076-0.4433-11.4041,3.579 c-2.077,3.2174-3.2979,6.7997-6.7804,8.8226c0.2642,0.2281,0.5267,0.4564,0.7906,0.6776c0.4031,0.3379,0.7982,0.6837,1.1921,1.0325 c0.7781,0.6892,1.7361,1.4312,2.0479,2.4682c0.1543,0.5135,0.1374,0.9828-0.141,1.4478c-0.2469,0.4127-0.7352,0.8224-1.2519,0.8123 c-0.6543-0.0129-1.2095-0.169-1.7574-0.5511c-0.2631-0.1834-0.5135-0.3601-0.7583-0.5616 c-0.2041-0.1679-0.3993-0.3464-0.5971-0.5216c-0.433-0.3835-0.8657-0.7663-1.2887-1.1606 c-0.4325-0.4031-0.8651-0.8064-1.2971-1.2099c-0.317-0.2959-0.6344-0.6051-0.9379-0.9255 c-2.4238,0.5192-4.9829,0.4843-7.4298,0.1765c-2.3299-0.2931-4.6171-0.8559-6.9277-1.2625 c-2.6388-0.4644-5.0812-0.5573-7.7412-0.2856c-0.0692,0.0071-0.1322,0-0.1985-0.0002c-0.1464,0.6782-0.2963,1.3554-0.4499,2.0294 c-0.5533,2.4266-1.3434,4.9182-3.3486,6.5503c-2.0956,1.7054-4.8504,1.9596-7.4481,1.968 c-0.8929,0.0028-1.7858-0.0072-2.6786-0.0085c0.1647,0.2851,0.3388,0.5652,0.5236,0.8386c0.1916,0.2837,0.4025,0.5559,0.5941,0.8394 c0.0493,0.0606,0.0983,0.1216,0.148,0.1819c0.1152,0.1397,0.2352,0.2749,0.353,0.4124c0.2612,0.305,0.5048,0.6248,0.7645,0.9311 c0.1301,0.1536,0.2627,0.3052,0.3976,0.4547c0.0604,0.067,0.1243,0.1314,0.1788,0.2035c0.0359,0.041,0.0601,0.0897,0.0865,0.1371 c0.405,0.5856,0.319,1.3882-0.0841,1.9435c-0.4,0.551-1.3648,0.8362-1.977,0.4912c-1.5793-0.8899-2.8206-2.1756-3.7539-3.726 c-0.3946-0.6554-0.7266-1.3411-1.0001-2.0556c-0.0832-0.2173-0.1427-0.4432-0.2175-0.6644 c-1.063-0.0057-2.1259-0.0041-3.1889-0.0102c-3.5359-0.0201-7.0657-0.0663-10.5947-0.1363c-1.5483,3.3546-3.672,6.67-7.1519,8.2103 c-3.6438,1.6127-8.2692,0.5671-9.8705-3.3492c-0.6885-1.6838,1.9987-3.0133,2.8767-1.4214 c0.6071,1.1004,1.6662,1.7104,2.6655,1.9131c1.2459,0.2528,2.4037-0.0729,3.5603-0.7262c1.8322-1.0348,3.0523-2.8491,4.0979-4.7292 c-1.9431-0.0497-3.8855-0.0886-5.8302-0.1563c-1.9255-0.0671-1.8699-3.3167,0.0354-3.3616 c7.4475-0.1753,14.8766-0.3145,22.3293-0.3052c3.0076,0.0037,6.06,0.1637,9.062-0.0363c2.6081-0.1738,4.2106-1.0885,5.0322-3.6265 c0.8486-2.6218,1.2808-5.5169,1.6536-8.2406c0.2395-1.7489,0.3538-3.515,0.2861-5.2733c-0.6833,0.1107-1.3754,0.1916-2.0542,0.269 c-1.1041,0.126-2.2104,0.2065-3.322,0.1574c-0.7817-0.0345-1.4339-0.5343-1.5518-1.3254c-0.1138-0.7639,0.3517-1.4972,1.0965-1.7213 c1.0064-0.3029,2.052-0.481,3.0938-0.606c0.7664-0.092,1.5409-0.1773,2.315-0.2348c-0.4825-2.1301-1.4334-4.2029-2.8923-5.8376 c-1.7785-1.993-4.2886-2.7282-6.6725-3.7309c-2.3078-0.9707-4.4998-2.2968-5.7522-4.5464c-1.1637-2.09-1.3992-4.4261-0.148-6.5238 c1.0427-1.748,3.9696-0.3107,3.2008,1.5632c-1.2652,3.084,2.5084,5.005,4.8205,5.929c2.8146,1.1248,5.4448,2.2198,7.5545,4.4754 c3.8281,4.0929,4.8673,9.9713,4.4481,15.3855c-0.0888,1.1458-0.2455,2.2862-0.426,3.4237c2.8309-0.4193,5.6594-0.054,8.4727,0.4539 c0.5505-0.8859,1.0644-1.7938,1.5262-2.7293c0.2858-0.5791,0.5508-1.1692,0.8107-1.7603c0.3579-0.8138,0.6513-1.6803,1.1133-2.4431 c0.4181-0.6901,1.33-0.8997,2.0592-0.68c0.7323,0.2207,1.2717,1.0698,1.1858,1.8213c-0.1829,1.6014-0.9166,3.1728-1.6512,4.5898 c-0.344,0.6635-0.7207,1.3072-1.1221,1.9352c0.3879,0.0696,0.7759,0.1408,1.163,0.2027c3.6238,0.5798,8.0764,0.767,11.0501-1.7803 c1.4787-1.2667,2.2859-3.1277,3.2164-4.7909c1.0132-1.8111,2.2001-3.4494,3.8918-4.6859c3.3075-2.4177,8.1717-2.7245,12.0744-1.9565 C272.9109,297.7741,272.9615,300.575,271.0085,300.7447z" style="fill: rgb(201, 79, 82);"/></g><g id="__id46_st2ai59nls"><path d="M101.7656,195.401c-29.0479-33.4511,6.0868-80.4095,22.3268-70.878 c8.651,5.9702,14.8282,17.3407,16.8614,33.3475c2.1241,16.6932,6.0998,33.6453,12.2383,50.7918 C149.1386,211.7704,127.874,225.4332,101.7656,195.401z M75.8681,74.3264c0.0813,1.4927,0.1584,2.9856,0.2439,4.4781 c0.0413,0.7219,0.1111,1.4425,0.1706,2.1632c0.0854,1.0337,0.148,2.4583,1.3886,2.7593c0.4085,0.0991,0.813,0.0156,1.1744-0.1831 c0.5267-0.2895,0.6746-0.809,0.7448-1.3546c0.0692-0.5366,0.0541-1.0464,0.0348-1.5838c-0.0272-0.7629-0.0433-1.5274-0.0892-2.2894 c-0.0888-1.4759-0.1839-2.9514-0.2757-4.4271c-0.056-0.895-1.0462-1.6275-1.9151-1.4773 C76.3757,72.5792,75.8159,73.3706,75.8681,74.3264z M166.3283,164.4083c0.018,0.1899,0.036,0.3799,0.0541,0.5697 c0.0389,0.2428,0.1339,0.4577,0.2852,0.645c0.1192,0.2154,0.2865,0.388,0.5021,0.5177c0.141,0.0674,0.2817,0.1349,0.4227,0.2022 c0.2245,0.0823,0.4528,0.1059,0.6845,0.0708c0.1586,0.009,0.3094-0.0212,0.4525-0.0906c0.2362-0.0582,0.4442-0.1733,0.6241-0.3453 l0.2537-0.294c-0.0119,0.0186-0.0247,0.0401-0.0348,0.0552c0.004-0.0052,0.004-0.0056,0.0085-0.0114 c0.0166-0.0212,0.0331-0.0426,0.0495-0.0641c0.0063-0.0083,0.0085-0.0152,0.0142-0.023c0.0085-0.0099,0.0169-0.0197,0.0255-0.0296 c0.0109-0.017,0.0153-0.0362,0.0256-0.0534c0.0198-0.0387,0.0411-0.0842,0.0669-0.1394c0.0195-0.0396,0.0406-0.0785,0.0571-0.119 c0.0122-0.0249,0.0274-0.0562,0.0372-0.0775c0.0049-0.0141,0.012-0.0274,0.0168-0.0417c0.0506-0.1178,0.0718-0.2114,0.0955-0.4773 c0.0062-0.0696,0.0117-0.1394,0.0174-0.2092c0.0051-0.0587,0.0101-0.1175,0.0147-0.1762c0.0033-0.0156,0.0068-0.0311,0.0103-0.0466 c0.0784-0.3246,0.0741-0.6478-0.0133-0.9701c-0.0931-0.332-0.263-0.6187-0.5097-0.8602c-0.1372-0.1018-0.2746-0.2037-0.412-0.3055 c-0.2955-0.1609-0.6113-0.2395-0.9476-0.236c-0.2545-0.0059-0.492,0.0492-0.7127,0.1653c-0.2447,0.0798-0.4553,0.2175-0.6317,0.4132 c-0.24,0.2481-0.402,0.5394-0.486,0.8737c-0.0787,0.3245-0.0743,0.6478,0.0133,0.9701 C166.3171,164.3502,166.3228,164.3792,166.3283,164.4083z M171.2072,291.7255c-2.3498-0.1635-5.964-0.219-7.2126-2.6436 c-0.6643-1.2901-0.644-2.8703-1.0238-4.2532c-0.4646-1.6926-1.3292-3.0606-2.7517-4.0989 c-1.1235-0.8198-2.4617-1.2767-3.6079-2.0583c-1.1063-0.7546-1.7035-1.8574-1.9473-3.1613c-0.626-3.352,1.4163-6.5399,2.9964-9.3505 c0.3606,0.149,0.7212,0.2981,1.0796,0.4533c1.431,0.6197,2.8264,1.3674,3.9299,2.4843c0.7555,0.7646,2.0011,1.3405,2.7308,0.125 c0.7765-1.2932-0.7828-2.873-1.6572-3.6804c-2.6608-2.4569-6.5389-2.9619-9.4716-5.0146c-1.7513-1.2257-3.2351-2.8152-4.4693-4.555 c-1.1594-1.6341-1.9878-3.3699-1.8765-5.3084c1.6618,0.5164,3.3103,1.0805,5.0152,1.3782c1.4519,0.2537,2.0742-2.0378,0.841-2.7008 c-2.6391-1.419-5.8799-2.2723-8.8206-2.7845c-2.665-0.4642-5.4746-0.5493-8.1323,0.0175c-2.6805,0.5717-5.0645,1.8513-6.9448,3.8544 c-1.5232,1.6225-2.766,3.484-4.2159,5.1659c-0.0601-0.0663-0.1246-0.1265-0.1837-0.1943c-3.9928-4.5747-4.985-11.026-6.4272-16.7181 c-3.2722-12.9138-11.1666-23.522-21.0942-32.1982c-2.414-2.1098-4.9137-4.0982-7.475-6.0004 c-2.3324-2.2401-5.1957-4.5799-8.6666-6.9993c-15.3593-10.7101-19.4128-25.4865-18.9336-39.0587 c-12.1476,31.2237,10.7877,63.5999,11.5,64.597c0,0.013,0,0.013,0.013,0.0259c9.3844,11.9126,27.7753,6.8465,24.3109-6.2968 c3.3426,3.2214,6.4348,6.7024,9.1052,10.6174c2.0083,2.9443,3.6173,6.0203,4.9322,9.2279c-1.668,1.4433-2.9452,3.1619-3.8464,5.1777 c-0.9147,2.0461-1.4244,4.5184-0.9291,6.7351c0.3195,1.4301,2.6563,1.5203,2.935,0.0137c0.0931-0.5032,0.1424-1.0047,0.2092-1.5117 c0.0493-0.3772,0.1638-1.0132,0.2118-1.2244c0.0202-0.0872,0.0874-0.379,0.0781-0.3377c0.0153-0.0682,0.0261-0.1172,0.0335-0.1519 c0.0057-0.0172,0.0142-0.046,0.0313-0.1067c0.0593-0.2107,0.1143-0.4221,0.1788-0.6313c0.135-0.438,0.2835-0.8718,0.4564-1.2963 c0.0811-0.1989,0.1669-0.3959,0.2574-0.5907c0.0454-0.0974,0.0945-0.1929,0.1394-0.2904c0.0044-0.0096,0.0013-0.004,0.0047-0.0116 c0.0044-0.0077,0.0016-0.0016,0.0074-0.0117c0.2288-0.3962,0.4562-0.7885,0.71-1.1698c0.2544-0.3821,0.5293-0.7545,0.8214-1.1126 c0.5441,1.6241,1.0269,3.2796,1.4481,4.9725c1.5063,6.0534,2.887,12.4022,7.1926,17.1704c3.3925,3.757,8.073,5.7922,12.9356,6.9934 c-1.0527,2.148-1.7507,4.4424-2.0637,6.834c-0.2008,1.5338-0.2311,3.1005,0.3024,4.5734c0.5626,1.5536,1.9777,2.8282,3.6523,2.9973 c2.0953,0.2115,2.6495-2.7475,0.5748-3.2324c-0.6406-0.1498-0.9781-0.856-1.1076-1.5573c-0.2046-1.1077,0.0506-2.3429,0.2542-3.4355 c0.3506-1.8819,0.9896-3.7218,1.8009-5.463c0.7563,0.1328,1.5111,0.2527,2.2598,0.3584c2.1573,0.3045,2.559-2.6922,0.5506-3.2623 c-4.5611-1.2946-9.6528-2.3968-13.6061-5.1717c1.2517-1.3558,2.3171-2.851,3.5413-4.2609c1.4667-1.6896,3.2213-2.8552,5.3497-3.5475 c2.3697-0.7709,4.8707-0.697,7.2967-0.2715c-0.9963,3.9627,1.9407,8.2741,4.5621,10.961c1.3924,1.4269,2.9828,2.6989,4.7366,3.6531 c0.2607,0.1418,0.5278,0.268,0.7936,0.398c-2.1841,3.1949-4.032,6.8128-3.5864,10.789c0.1962,1.7507,0.857,3.451,2.0276,4.786 c1.1776,1.343,2.7879,1.9962,4.312,2.8384c1.618,0.8939,2.216,1.9789,2.6315,3.7482c0.3987,1.6979,0.7811,3.4261,1.9179,4.8073 c2.2284,2.7075,5.9339,3.0826,9.1988,3.1967C172.8551,295.0157,173.0534,291.854,171.2072,291.7255z M182.0491,117.0802 c-5.8679,2.5178-10.465,7.6739-12.634,13.6617c-2.6239,7.2438-1.6318,15.9615,0.8184,23.1307 c0.5892,1.7243,3.286,1.2297,3.1505-0.6204c-0.5163-7.0444-2.5901-13.9852-0.1421-20.9276 c1.8381-5.2132,5.6794-9.3046,10.4611-11.9868C185.7669,119.1801,184.2013,116.1569,182.0491,117.0802z M69.0588,57.8172 c1.744,3.2485,3.0955,6.6638,4.7368,9.9575c0.8132,1.6317,3.2993,0.36,2.8386-1.2915c-0.9692-3.4753-2.7074-6.8252-4.3975-9.9989 c-1.7203-3.2302-3.633-6.364-5.7258-9.3663c-4.2138-6.0458-9.225-11.5081-14.8667-16.2464 c-1.5595-1.3099-3.6494,0.9974-2.1182,2.3687c5.2839,4.7319,10.0324,10.0396,14.1211,15.8367 C65.6241,51.8798,67.4362,54.7949,69.0588,57.8172z" style="fill: rgb(136, 147, 230);"/></g><g id="__id47_st2ai59nls"><path d="M157.4527,96.6924c-0.0009-0.003-0.0016-0.0065-0.0025-0.0095l0.0152,0.0322l-0.0009,0.0007 L157.4527,96.6924z M203.8468,13.4795c2.199,0,1.7345-3.3922-0.4376-3.3922C201.2102,10.0873,201.6747,13.4795,203.8468,13.4795z M142.9593,22.2447c0.6227,1.9059,1.2302,3.9025,2.261,5.6311c0.3612,0.6056,1.351,0.8361,1.9739,0.5572 c0.6836-0.306,1.155-1.0038,1.0598-1.7704c-0.2384-1.9222-1.0744-3.8409-1.7624-5.6407c-0.7275-1.9036-1.5009-3.7848-2.2475-5.6807 c-0.3231-0.8205-1.2247-1.3051-2.0809-1.0061s-1.2726,1.2363-1.0061,2.0809C141.7692,18.3563,142.3273,20.3105,142.9593,22.2447z M131.4847,63.8699c0.4028-1.9087,0.5287-3.8511,1.0257-5.7552c0.4518-1.7306,1.1604-3.3771,2.0219-4.942 c1.6947-3.0777,4.0799-5.823,6.8014-8.0379c6.0821-4.9499,13.6108-7.6913,20.8534-10.4493c1.8822-0.7167,1.0399-3.6216-0.921-3.0201 c-8.3802,2.5708-16.8372,5.6-23.5433,11.4538c-2.9357,2.5625-5.4489,5.6912-7.2009,9.1795 c-1.7326,3.4494-3.1025,7.8243-2.0781,11.6756C128.8494,65.4992,131.1651,65.3853,131.4847,63.8699z M129.2947,74.758 c2.1454,0,1.8046-3.3138-0.3203-3.3138C126.829,71.4442,127.17,74.758,129.2947,74.758z M303.2456,145.2207 c-0.215-0.9608-1.2302-1.6292-2.1998-1.3945c-2.5602,0.6199-5.0923,1.3271-7.6218,2.0618 c-2.6903,0.7813-5.4559,1.4895-8.0273,2.6161c-1.7209,0.7539-1.1208,3.5653,0.8416,3.2675c2.8054-0.4257,5.5413-1.2982,8.2619-2.082 c2.4665-0.7106,4.9232-1.436,7.351-2.2691C302.7913,147.098,303.4796,146.2656,303.2456,145.2207z M303.6686,180.3664 c-0.0711-0.2416-0.2001-0.4516-0.3867-0.6297c-0.1725-0.1917-0.3784-0.3267-0.618-0.4051 c-0.2158-0.1139-0.4482-0.1681-0.6973-0.1626c-0.1584,0.018-0.3171,0.036-0.4755,0.054c-0.3275,0.0819-0.6127,0.2401-0.8559,0.4747 l-0.3105,0.3946c-0.1654,0.2847-0.2512,0.5916-0.2572,0.9207c0.0406,0.3325,0.0686,0.6647,0.0982,0.9976 c0.0056,0.0614,0.0082,0.1239,0.0177,0.1848c0.0345,0.2404,0.1251,0.4541,0.2716,0.6413c0.1141,0.2145,0.2766,0.3876,0.4875,0.5192 c0.1382,0.0687,0.276,0.1375,0.4142,0.2062c0.2204,0.0847,0.4453,0.1116,0.6747,0.0805c0.1565,0.0114,0.3057-0.016,0.448-0.0824 c0.2343-0.0538,0.4414-0.1641,0.6219-0.3312c0.1061-0.119,0.2122-0.2382,0.3184-0.3573c0.0425-0.0639,0.0667-0.1341,0.1003-0.2011 c-0.0063,0.0371,0.0017,0.0327,0.0384-0.0534c0.0057-0.0131,0.0112-0.0263,0.0169-0.0395c0.0114-0.0266,0.0226-0.0532,0.0338-0.0798 c0.0019-0.0043,0.0021-0.0091,0.0038-0.0134c0.0107-0.0294,0.0166-0.0604,0.0258-0.0903c0.0367-0.1176,0.0607-0.2386,0.0751-0.3617 c0.0006-0.0076,0.0038-0.0142,0.0044-0.0218c-0.0013,0.0036-0.0016,0.0055-0.0029,0.0091c0.0038-0.0333,0.0096-0.0665,0.013-0.0996 c0.0093-0.0931,0.0186-0.1862,0.0277-0.2793c0.0186-0.1909,0.0368-0.3818,0.0545-0.5728 C303.8236,180.8194,303.7762,180.5855,303.6686,180.3664z M283.89,193.8379c4.0426,10.4782,7.0809,25.6554,6.7168,47.5069 c-0.9364,56.1736-15.7229,85.5222-45.9314,96.8639c-2.4938,0.9363-5.0798,1.7651-7.785,2.4607 c-7.0807,1.8207-18.1259,2.1015-31.4043,0.676c-21.1754-2.2733-48.0404-8.8991-73.6488-20.5984 c-13.7937-6.3017-27.2178-14.0746-39.1893-23.432c-21.6886-16.9525-38.605-39.0999-44.2718-67.1189 c0,0-3.5358-5.8965-6.9901-15.4721c-4.303-11.9277-8.4792-29.5657-5.5381-48.6483c1.6217-10.5218,5.4069-21.4816,12.5282-32.1637 c4.3626-6.5439,8.9972-11.9769,13.7915-16.4797c18.926-17.7755,40.3493-20.98,57.4629-20.1055 c0.5593,2.1565,1.2219,4.2311,2.0011,6.1774c2.0817,5.1992,4.7828,9.73,7.4159,13.4378c-1.7107,2.2723-3.379,4.7818-4.9592,7.5749 l-0.0022,0.0019c-12.0693-8.361-28.9539-6.1837-46.0199,8.5514c-3.5355,3.0434-6.8248,6.6695-9.7386,10.982 c-2.3052,3.406-4.1055,6.8897-5.4393,10.3734c-12.1476,31.2237,10.7877,63.5999,11.5,64.597c0,0.013,0,0.013,0.013,0.0259 c0,0-2.6938,33.4511,49.3284,68.5858c27.9212,18.843,51.9833,23.6605,68.3008,24.0749c9.6612,0.2461,15.1911-10.8266,9.2078-18.4027 c-22.5056-28.5271-38.11-56.834-48.0433-84.6362c4.9529-4.002,12.2255-10.9537,18.0725-20.9234 c1.7466,4.3909,3.5924,8.6861,5.5204,12.8731c17.3535,37.66,41.1824,66.7856,55.3633,82.2097 c5.5557,6.0479,15.5923,4.0406,18.3767-3.6909c5.3097-14.6859,12.1863-37.5694,13.4037-60.0903 c0.2591-4.7917,0.1813-9.1042-0.1554-12.9894c-2.2923-26.4578-16.5637-32.6223-16.5637-32.6223s7.4283-35.7369-9.2984-59.102 l24.3799-3.9989c15.8068,26.7263,3.9882,61.0761,3.9882,61.0761S276.6823,175.1562,283.89,193.8379z M56.9552,196.4748 c-1.6207-5.3218-2.9344-10.6042-3.4011-16.1667c-0.454-5.411-0.1586-10.9142,0.7884-16.2581 c1.7312-9.7692,5.9852-19.1391,12.0254-26.9946c3.4702-4.513,7.576-8.9842,12.0499-12.5084c1.8341-1.445-0.479-3.993-2.3293-2.7076 c-4.5254,3.1443-8.5813,6.4463-12.1455,10.6851c-3.5358,4.2047-6.5876,8.8595-8.9977,13.798 c-4.957,10.1572-7.2062,21.6325-6.5358,32.9099c0.3818,6.4229,1.4625,13.1909,4.0102,19.1414 C53.6913,201.3436,57.8601,199.4454,56.9552,196.4748z M61.2593,207.6359c-0.1432-1.2287-1.2062-1.7945-2.3201-1.7945 c-1.1291,0-1.9127,1.3079-1.7946,2.3202c0.1432,1.2287,1.2062,1.7945,2.3202,1.7945 C60.5939,209.9561,61.3775,208.6482,61.2593,207.6359z M264.4049,277.6707c2.4036,0,2.4764-3.7328,0.0683-3.7328 C262.0696,273.938,261.9967,277.6707,264.4049,277.6707z M271.0793,297.4138c-3.9027-0.768-8.7669-0.4612-12.0744,1.9565 c-1.6917,1.2365-2.8786,2.8749-3.8918,4.6859c-0.9305,1.6632-1.7377,3.5242-3.2164,4.7909 c-2.9738,2.5473-7.4263,2.3601-11.0501,1.7803c-0.3872-0.0619-0.7751-0.133-1.163-0.2027c0.4014-0.6281,0.7781-1.2717,1.1221-1.9352 c0.7346-1.417,1.4683-2.9884,1.6512-4.5898c0.0858-0.7515-0.4536-1.6006-1.1858-1.8213c-0.7293-0.2197-1.6411-0.0101-2.0592,0.68 c-0.4619,0.7628-0.7553,1.6292-1.1133,2.4431c-0.2599,0.5911-0.5248,1.1812-0.8107,1.7603 c-0.4618,0.9355-0.9757,1.8434-1.5262,2.7293c-2.8133-0.5079-5.6418-0.8731-8.4727-0.4539c0.1805-1.1375,0.3372-2.2779,0.426-3.4237 c0.4193-5.4142-0.62-11.2926-4.4481-15.3855c-2.1097-2.2556-4.7399-3.3506-7.5545-4.4754c-2.3122-0.924-6.0857-2.8449-4.8205-5.929 c0.7688-1.874-2.1581-3.3113-3.2008-1.5632c-1.2513,2.0977-1.0157,4.4338,0.148,6.5238c1.2524,2.2496,3.4444,3.5756,5.7522,4.5464 c2.384,1.0027,4.8941,1.7379,6.6725,3.7309c1.459,1.6347,2.4099,3.7075,2.8923,5.8376c-0.7742,0.0575-1.5486,0.1428-2.315,0.2348 c-1.0418,0.125-2.0874,0.3031-3.0938,0.606c-0.7448,0.2242-1.2103,0.9575-1.0965,1.7213c0.1179,0.791,0.7701,1.2909,1.5518,1.3254 c1.1117,0.0491,2.218-0.0314,3.322-0.1574c0.6788-0.0774,1.3709-0.1583,2.0542-0.269c0.0677,1.7583-0.0466,3.5244-0.2861,5.2733 c-0.3728,2.7237-0.805,5.6188-1.6536,8.2406c-0.8216,2.538-2.4241,3.4527-5.0322,3.6265c-3.0021,0.2-6.0544,0.04-9.062,0.0363 c-7.4527-0.0092-14.8818,0.1299-22.3293,0.3052c-1.9053,0.0449-1.9609,3.2945-0.0354,3.3616 c1.9448,0.0677,3.8872,0.1067,5.8302,0.1563c-1.0456,1.8801-2.2657,3.6944-4.0979,4.7292c-1.1566,0.6533-2.3144,0.979-3.5603,0.7262 c-0.9993-0.2027-2.0585-0.8127-2.6655-1.9131c-0.878-1.5919-3.5652-0.2624-2.8767,1.4214c1.6013,3.9163,6.2267,4.9619,9.8705,3.3492 c3.4798-1.5403,5.6035-4.8558,7.1519-8.2103c3.529,0.07,7.0587,0.1162,10.5947,0.1363c1.063,0.0061,2.126,0.0045,3.1889,0.0102 c0.0748,0.2212,0.1344,0.4471,0.2175,0.6644c0.2735,0.7145,0.6055,1.4002,1.0001,2.0556c0.9333,1.5504,2.1746,2.8362,3.7539,3.726 c0.6123,0.345,1.5771,0.0598,1.977-0.4912c0.4031-0.5553,0.4891-1.3579,0.0841-1.9435c0.013,0.0233,0.0319,0.0427,0.0427,0.0674 c-0.0281-0.0496-0.0564-0.099-0.0846-0.1485c0.0198,0.0247,0.0242,0.0555,0.0419,0.0811c-0.0264-0.0473-0.0506-0.096-0.0865-0.1371 c-0.0545-0.0721-0.1184-0.1365-0.1788-0.2035c-0.1349-0.1495-0.2675-0.3011-0.3976-0.4547 c-0.2597-0.3062-0.5033-0.626-0.7645-0.9311c-0.1178-0.1375-0.2378-0.2728-0.353-0.4124c-0.0497-0.0603-0.0986-0.1212-0.148-0.1819 c-0.1916-0.2835-0.4025-0.5558-0.5941-0.8394c-0.1848-0.2734-0.3589-0.5535-0.5236-0.8386 c0.8929,0.0013,1.7858,0.0114,2.6786,0.0085c2.5977-0.0084,5.3525-0.2625,7.4481-1.968c2.0052-1.632,2.7953-4.1237,3.3486-6.5503 c0.1537-0.674,0.3035-1.3513,0.4499-2.0294c0.0664,0.0002,0.1293,0.0073,0.1985,0.0002c2.66-0.2717,5.1024-0.1788,7.7412,0.2856 c2.3106,0.4067,4.5978,0.9695,6.9277,1.2625c2.4469,0.3078,5.006,0.3427,7.4298-0.1765c0.3035,0.3204,0.621,0.6296,0.9379,0.9255 c0.4321,0.4035,0.8646,0.8068,1.2971,1.2099c0.423,0.3943,0.8557,0.7771,1.2887,1.1606c0.1978,0.1752,0.393,0.3537,0.5971,0.5216 c0.2449,0.2015,0.4953,0.3782,0.7583,0.5616c0.5479,0.3821,1.1031,0.5382,1.7574,0.5511c0.5166,0.0101,1.005-0.3996,1.2519-0.8123 c0.2784-0.4651,0.2953-0.9344,0.141-1.4478c-0.3117-1.037-1.2697-1.779-2.0479-2.4682c-0.394-0.3488-0.789-0.6945-1.1921-1.0325 c-0.2638-0.2213-0.5264-0.4496-0.7906-0.6776c3.4825-2.0229,4.7034-5.6052,6.7804-8.8226c2.5964-4.0223,7.2596-3.2187,11.4041-3.579 C272.9615,300.575,272.9109,297.7741,271.0793,297.4138z M277.9698,205.4048c-1.1314-5.8533-2.8553-11.597-5.2945-17.039 c-0.8105-1.808-3.9643-0.8775-3.3775,1.1004c2.8987,9.7702,5.1113,19.5447,5.6397,29.7559 c0.5119,9.891-0.4249,19.8372-2.8193,29.4494c-1.4183,5.6933-3.5734,11.0763-5.4126,16.6286 c-0.7201,2.1744,2.577,3.1461,3.6319,1.3173c2.6271-4.5548,4.3354-9.7442,5.7468-14.7933 c1.4067-5.0316,2.4072-10.1791,3.0164-15.3673C280.3179,226.0912,279.9502,215.65,277.9698,205.4048z" style="fill: rgb(223, 121, 123);"/></g></svg>