<?xml version="1.0" encoding="UTF-8"?>
<svg xmlns="http://www.w3.org/2000/svg" xmlns:xlink="http://www.w3.org/1999/xlink" height="516.8" preserveAspectRatio="xMidYMid meet" version="1.0" viewBox="-19.4 -15.6 523.9 516.8" width="523.9" zoomAndPan="magnify"><g id="change1_1"><path d="M211.6,317.4c-23.5,23.9-93.8,25.7-116.5,6.5L60.3,220.1l-19-181.3L439.6,35 c32.6,224.6-58.7,268.9-98.8,279.4s-90.7,53.2-96.3,19.6C240.5,310.4,211.6,317.4,211.6,317.4z" fill="#D86964"/></g><g id="change2_1"><path d="M40.2,287.6c-19.6-6.5-27.9-37.9-14.4-56.1c-18.7-9.1-30.9-41.3-8.3-60.5c-23.9-11.8-17.4-34.8-1.7-50 c-19.1-5.7-20.9-34.8-5.2-49.6c-30-44,23.5-87,57.4-60.1c12.2-13.9,44.4-15.7,61.4,2.2c8.7-9.6,30.9-17.4,41.3,4.4 c10-11.3,39.6-14.4,47.9,3.5c6.5-12.2,31.3-22.3,43.5-1.3C276.5,4.9,303.9,1,323,17.9c7-13.5,30.5-18.8,40.9-6.1 c21.8-21.3,50.9-8.3,60.1-1.3c26.5-25.2,80.1,2.2,57,44.4c23.5,17,5.2,33.5-3.9,36.6c23.5,23.1,8.3,40.9-7,44.4 c5.2,10.9,14.4,34.8-3.9,45.3c18.7,16.5,7,44-10,50.5c9.6,42.6,1.7,59.2-30.5,65.7c7.8,28.7-29.6,41.8-59.2,37 c-10.4,35.2-53.5,24.4-69.2,4.4c0.9,5.2-2.6,19.6-11.3,21.8c10.4,13.9,10.9,33.9-6.1,43.1c26.5,22.6,5.2,41.8-6.1,64 c-11.3,22.2-19.6,33.5-27.7,32.6s-6.7-9.6-8.4-20.9s-12.6-29.2-22.6-41.8c-10-12.6-17-33.9,0.9-49.6c-19.6-18.3-13.9-51.4-2.6-70.5 c11.3-19.1,67-38.7,91.8-16.5c5.7-11.3,27-19.6,42.2-13.5c3.9-31.3,22.2-35.2,33.1-27.9c0.4-15.2,12.2-30.5,34.4-27.9 c-27.4-23.9-16.1-54-2.2-64.4c-7-17.4-16.5-40.9,10-64c-7-4.4-17-16.5-9.1-38.3c-12.6,16.5-40.5,27-62.2,10 c-17,25.2-50.9,24.8-72.7,13.1c-14.8,24.8-47.9,24.8-67.9,7.8c-13.5,11.7-39.6,23.1-67-8.3c-13.5,11.7-41.8,7-53.5-15.2 c-3,3-8.7,6.5-17,2.6c7.8,5.7,11.7,27.4,5.2,37c17.8,21.8,14.4,43.1,0,59.1c13.9,17.4,17,33.6,5.2,51.8 c11.3,11.7,16.1,32.2,4.4,50.5c27,26.1,23,97,7.4,97C55.8,370.3,13.6,313.7,40.2,287.6z" fill="#FD9490"/></g><g id="change3_1"><path d="M268.6,202.9c0.5,1.3-0.1,2.8-1.4,3.3c-0.3,0.1-0.6,0.2-1,0.2c-1,0-1.9-0.6-2.3-1.6 c-6.7-16.3-20-28.7-37.5-35c-18.1-6.5-38.4-5.3-54.4,3.1c-5.6,6.6-12.2,11.3-18.8,13c-3.2,0.8-6.2,1.2-9,1.2 c-5.2,0-9.7-1.4-13.9-4.1c-4.4-2.9-8.4-7.5-12.3-14c-0.8,2.9-1.8,5.9-3,8.7c-0.4,0.9-1.3,1.5-2.3,1.5c-0.3,0-0.7-0.1-1-0.2 c-1.3-0.6-1.8-2-1.3-3.3c2-4.6,3.3-9.4,4-14.1c0-0.2,0-0.4,0.1-0.5c2-15.4-2.6-30.7-9-40.3c-4.5-6.7-9.8-10.5-14.5-10.4 c-1.4,0-2.5-1.1-2.6-2.4c0-1.4,1.1-2.5,2.4-2.6c0.1,0,0.3,0,0.4,0c6.4,0,13,4.5,18.4,12.6c6.9,10.3,11.8,26.7,9.9,43.3 c4.5,8.9,8.8,14.5,13.6,17.7c5.2,3.5,11.2,4.2,18.8,2.2c15.2-3.9,33.5-28.4,28.7-59.3c-0.2-1.4,0.7-2.7,2.1-2.9 c1.4-0.2,2.7,0.7,2.9,2.1c0.7,4.7,1,9.5,0.7,14.1c6-5.5,13.9-7.3,17.8-5.6c1.3,0.6,1.8,2,1.3,3.3c-0.6,1.3-2,1.8-3.3,1.3 c-2.4-1.1-11.4,1.4-16,9.2c-0.2,0.4-0.5,0.6-0.8,0.8c-1.3,6.9-3.7,13.6-7,19.7c-0.2,0.4-0.4,0.8-0.7,1.2c15.7-5.8,33.9-5.8,50.5,0.1 C247,171.8,261.3,185.2,268.6,202.9z M214.3,152c0.6,0,1.2-0.2,1.7-0.6c4.3-3.8,7.6-8.2,10-13.6c8.1-0.1,23.6,3.5,26.1,31.4 c0.1,1.3,1.2,2.3,2.5,2.3c0.1,0,0.2,0,0.2,0c1.4-0.1,2.4-1.3,2.3-2.7c-1.2-12.9-5.2-22.6-11.9-28.8c-5.7-5.2-12.1-6.9-17.4-7.1 c1.8-5.7,2.9-12.6,3.5-21c0.1-1.4-0.9-2.6-2.3-2.7c-1.4-0.1-2.6,0.9-2.7,2.3c-1.5,21.3-6.6,29.8-13.7,36.2c-1,0.9-1.1,2.5-0.2,3.5 C212.9,151.7,213.6,152,214.3,152z M287.5,179.5c3.5-5.1,5.4-11.6,5.5-18.8c0.1-6.5-1.3-13.1-3.9-19.1c0.2-7.3,4.1-17.2,11.3-17.8 c1.4-0.1,2.4-1.3,2.3-2.7c-0.1-1.4-1.3-2.4-2.7-2.3c-3.8,0.3-7.8,2.8-10.8,6.7c-1.5,2-3.2,4.9-4.2,8.8c-5.3-7.8-12.6-13.2-21.1-15.4 c-1.3-0.4-2.7,0.4-3.1,1.8c-0.4,1.3,0.4,2.7,1.8,3.1c9.6,2.6,15.5,9.1,18.8,14.2c4.3,6.7,6.7,14.9,6.5,22.7 c-0.2,13.1-7.1,22.6-18.4,25.2c-1.4,0.3-2.2,1.7-1.9,3c0.3,1.2,1.3,1.9,2.4,1.9c0.2,0,0.4,0,0.6-0.1 C277.8,189.1,283.6,185.2,287.5,179.5z M400.4,147.5c-9.4-7.8-20.4-10.9-32.5-9.2c-8.1,1.1-16.7,4.5-24.5,9.7 c-0.1-2.8-0.4-5.7-1-8.6c-3.5-17.9-16.2-35.6-28.3-39.4c-1.3-0.4-2.7,0.3-3.2,1.6s0.3,2.7,1.6,3.2c9.3,2.9,21.5,17.9,24.9,35.6 c0.7,3.6,1.1,7.8,0.8,12.1c0,0.2,0,0.3,0,0.5c-0.7,8.8-4.4,18.4-14.4,26.5c-1.1,0.9-1.2,2.5-0.3,3.5c0.5,0.6,1.2,0.9,1.9,0.9 c0.6,0,1.1-0.2,1.6-0.6c9.4-7.7,14.8-17.7,16.1-29.1c8-5.9,17-9.9,25.4-11c10.7-1.5,20.3,1.3,28.6,8.1c1.1,0.9,2.7,0.7,3.5-0.3 C401.6,150,401.4,148.4,400.4,147.5z M342.5,97.7c7.3,4.4,7.5,14.9,3.5,22.4c-0.6,1.2-0.2,2.7,1,3.4c0.4,0.2,0.8,0.3,1.2,0.3 c0.9,0,1.8-0.5,2.2-1.3c1.9-3.6,3-7.8,3.1-11.9c6.3-1,13.6-1,20.3,0c8,1.2,14.3,3.6,17.8,6.8c0.5,0.5,1.1,0.7,1.7,0.7 c0.7,0,1.3-0.3,1.8-0.8c1-1,0.9-2.6-0.1-3.6c-8.4-7.9-27.6-10.2-41.9-8.1c-0.9-4.9-3.5-9.3-8.1-12.1c-1.2-0.7-2.7-0.3-3.5,0.8 C341,95.5,341.4,97,342.5,97.7z M250.3,241.7c-2.9-13-9-22.3-18.1-27.7c-13.7-8.1-32.3-6.3-49.9-2.1c2.7-1.9,5.5-3.9,8.2-6.1 c1.1-0.9,1.2-2.5,0.4-3.5c-0.9-1.1-2.5-1.2-3.5-0.4c-9.8,7.9-19.4,13.5-29.1,16.9l-1.1,0.3c-0.2,0-0.3,0.1-0.4,0.2 c-7.9,2.6-15.9,3.7-23.9,3.4c-15.4-0.6-27.9-6.6-37-10.9l0,0c-1.3-0.6-2.8-0.1-3.3,1.2c-0.6,1.3-0.1,2.8,1.2,3.3l0,0 c9.8,4.6,24.1,11.4,41.9,11.4c7.1,0,14.7-1.1,22.8-3.7c0.1,0,0.2,0,0.2-0.1l1.6-0.5c21.6-6.7,51.2-15.9,69.3-5.1 c7.9,4.7,13,12.6,15.7,24.2c-4.4,1-8.3,2.8-10.8,4.8c-1.1,0.9-1.2,2.5-0.3,3.5c0.5,0.6,1.2,0.9,1.9,0.9c0.6,0,1.1-0.2,1.6-0.6 c5.7-4.7,18.7-5.5,20.4-4c1,1,2.6,1,3.6,0s1-2.6,0-3.6C259.2,241.2,253.7,241.4,250.3,241.7z M200.9,253c5.3-2.7,10.4-6.1,15.1-10.4 c1-0.9,1.1-2.5,0.1-3.5c-0.9-1-2.5-1.1-3.5-0.1c-7.3,6.7-16,11.1-24.1,13.9c-0.2,0-0.3,0.1-0.4,0.1c-8.2,2.8-15.9,4-21.2,4.6 c-15.5,1.6-30.6-0.5-37.5-5.3c-1.1-0.8-2.7-0.5-3.5,0.6s-0.5,2.7,0.6,3.5c6.2,4.3,17.4,6.8,30,6.8c3.5,0,7.2-0.2,10.9-0.6 c5.6-0.6,13.6-1.9,22.2-4.8c14.1-1.1,27.9,3.4,36.1,11.6c6.1,6.2,8.8,13.9,7.9,23.1c-0.1,1.4,0.9,2.6,2.3,2.7c0.1,0,0.2,0,0.2,0 c1.3,0,2.4-1,2.5-2.3c1-10.6-2.3-19.9-9.4-27.1C222.4,258.9,212.1,254.3,200.9,253z M206.7,297.7c-13.4-7-13.3-13.4-13.2-21.6 c0-0.7,0-1.5,0-2.2c0-1.4-1.1-2.5-2.5-2.5s-2.5,1.1-2.5,2.5c0,0.7,0,1.4,0,2.2c-0.1,3.9-0.1,8,1.5,12.1c-18.7,11.3-38.1,14.4-56.4,9 c-16.6-5-28.8-16-34.7-24.7c-0.8-1.1-2.3-1.4-3.5-0.7c-1.1,0.8-1.4,2.3-0.7,3.5c8.3,12.2,22.2,22.1,37.4,26.7 c5.4,1.6,11.9,2.8,19.4,2.8c11.7,0,25.6-3,40.8-12.2c2.4,3.3,6.1,6.5,12.1,9.6c0.4,0.2,0.8,0.3,1.2,0.3c0.9,0,1.8-0.5,2.2-1.4 C208.4,299.9,208,298.3,206.7,297.7z M350.9,217.3c-21.8,2.2-35.4,13.1-40.6,32.4c-2.4-4.3-5.5-8.2-9.2-11.4 c-8.2-7.2-18.1-10.3-28-8.8c-1.4,0.2-2.3,1.5-2.1,2.9c0.2,1.4,1.5,2.3,2.9,2.1c8.4-1.3,16.9,1.4,23.9,7.6c8.3,7.4,13.3,18.5,13,29.2 c0,1.4,1,2.5,2.4,2.6h0.1c1.4,0,2.5-1.1,2.5-2.4c0.1-4.6-0.6-9.2-2-13.6c1.5-10.4,5.3-18.6,11.2-24.4c6.2-6.1,15.1-9.8,26.4-11 c1.4-0.1,2.4-1.4,2.2-2.7S352.3,217.2,350.9,217.3z M391.7,161.2c-1-0.9-2.6-0.8-3.5,0.2l-10.8,12c-7.3-4.8-12.1-17-12.2-17.1 c-0.5-1.3-2-1.9-3.2-1.4c-1.3,0.5-1.9,2-1.4,3.2c0.2,0.6,5.4,13.7,14.1,19.5c-4.9,9.1-11.6,16.3-20,21.3c-7.7,4.7-16.9,7.6-27.3,8.6 c-19.1,1.9-38.6-3.1-49.4-7.9c-1.3-0.6-2.8,0-3.3,1.3c-0.6,1.3,0,2.8,1.3,3.3c10.1,4.5,25.9,8.8,42.7,8.8c3.1,0,6.1-0.1,9.2-0.4 c24-2.4,42.1-14.3,52.2-34.4l11.9-13.3C392.8,163.8,392.7,162.2,391.7,161.2z M134.4,97.8c6.3,3.6,11.7,13.4,14,25.8 c2.7,14.3,0.6,27.7-5.5,35c-0.9,1.1-0.7,2.7,0.3,3.5c0.5,0.4,1,0.6,1.6,0.6c0.7,0,1.4-0.3,1.9-0.9c8.3-10.1,8.8-26.8,6.5-39.1 c-2.6-14-8.8-24.9-16.5-29.2c-1.2-0.7-2.7-0.3-3.4,1C132.8,95.6,133.2,97.1,134.4,97.8z" fill="#9E3030"/></g><g id="change4_1"><path d="M89.8,353.4c0.7,1.2,0.2,2.7-1,3.4c-0.4,0.2-0.8,0.3-1.2,0.3c-0.9,0-1.8-0.5-2.2-1.3 c-7.5-14.1-15.1-36.8-22.6-67.4c-3.4,0.9-7.3,1.7-11.8,2.2c-0.1,0-0.2,0-0.3,0c-1.3,0-2.3-0.9-2.5-2.2c-0.2-1.4,0.8-2.6,2.2-2.8 c3.1-0.4,7-1,11.1-2.1c-3.5-14.7-6.8-30.8-10-47.6c-1.9,0.1-3.8,0.2-5.6,0.2c-5.3,0-10.1-0.6-13.4-2.1c-1.3-0.6-1.8-2.1-1.2-3.3 c0.6-1.3,2.1-1.8,3.3-1.2c3.5,1.6,9.5,1.9,15.9,1.5c-2.1-11.7-4.1-23.7-5.9-36c-0.8-5.6-1.6-11.2-2.4-16.7c-6.1,0-12.5-0.5-16.8-2 c-1.3-0.4-2-1.9-1.6-3.2s1.9-2,3.2-1.6c3.3,1.1,8.7,1.7,14.5,1.7c-2.3-17.4-4.1-34-5.4-49.1c-1.9,0.1-3.8,0.2-5.5,0.2 c-2.7,0-5.2-0.1-7.2-0.4c-1.4-0.2-2.3-1.5-2.1-2.8c0.2-1.4,1.5-2.3,2.8-2.1c3.1,0.4,7.2,0.5,11.6,0.2c-2.7-34.8-2.5-61.6,0.9-74.5 c0.4-1.3,1.7-2.1,3.1-1.8c1.3,0.4,2.1,1.7,1.8,3.1c-3.2,12.3-3.4,38.7-0.7,72.8c8.1-0.9,16.1-2.8,19.7-5.2c1.1-0.8,2.7-0.5,3.5,0.6 s0.5,2.7-0.6,3.5c-4.5,3.1-13.4,5.1-22.1,6.1c1.3,15.3,3.1,31.9,5.4,49.4c8.9-0.4,17.8-1.9,20.9-4.1c1.1-0.8,2.7-0.6,3.5,0.5 s0.6,2.7-0.5,3.5c-5,3.7-16.8,4.7-21.6,5c-0.5,0-1,0.1-1.6,0.1c0.7,5.3,1.5,10.7,2.3,16.1c1.9,12.4,3.9,24.5,6,36.2 c7.9-1,15.5-2.9,18.9-5c1.2-0.7,2.7-0.4,3.5,0.8c0.7,1.2,0.4,2.7-0.8,3.5c-3.9,2.4-12.1,4.6-20.6,5.7c3.1,16.6,6.3,32.3,9.7,46.6 c5.3-2,10.3-5,13.3-9.4c0.8-1.2,2.3-1.5,3.5-0.7c1.1,0.8,1.5,2.3,0.7,3.5c-2.6,3.8-7.4,8.3-16.3,11.6 C74.8,316.4,82.5,339.7,89.8,353.4z M473.8,93.8c-4.6-4.6-18.9-7.3-23.2-8c-0.3-0.1-0.7-0.1-1.1-0.2c-0.1-0.7-0.1-1.5-0.2-2.3 c-0.1-1-0.1-2-0.2-3c0-0.5-0.1-1.1-0.1-1.6c-0.1-1.7-0.3-3.3-0.4-5c0-0.2,0-0.3,0-0.5c-0.1-1.6-0.3-3.1-0.4-4.7 c0-0.3-0.1-0.6-0.1-0.9s-0.1-0.6-0.1-1c9.9-0.9,17.9-3.6,22.3-7c1.1-0.8,1.3-2.4,0.5-3.5s-2.4-1.3-3.5-0.5c-3.1,2.4-10.1,5.1-19.8,6 c-0.4-3.3-0.7-6.6-1.1-10c0-0.3-0.1-0.5-0.1-0.8c-0.2-1.5-0.4-2.9-0.6-4.4c-0.1-0.5-0.1-1-0.2-1.5c-0.2-1.3-0.3-2.6-0.5-3.9 c-0.1-0.5-0.1-1-0.2-1.5c-0.2-1.8-0.5-3.5-0.7-5.3c-0.2-1.3-1.3-2.2-2.6-2.1c-0.1,0-0.2,0-0.3,0c-0.1,0-0.2,0-0.3,0 c-1.2,0.3-2.1,1.5-1.9,2.8s0.4,2.7,0.6,4c0.1,0.4,0.1,0.8,0.2,1.1c0.1,1,0.3,2.1,0.4,3.1c0,0.3,0.1,0.7,0.1,1c0.2,1.3,0.3,2.6,0.5,4 c0,0.2,0.1,0.4,0.1,0.7c0.1,1.1,0.3,2.3,0.4,3.4c0,0.3,0.1,0.6,0.1,1c0.3,2.7,0.6,5.4,0.9,8.1c0,0.1,0,0.2,0,0.3s0,0.1,0,0.2 c-5,0.1-10.5-0.3-16.4-1.4c-1.4-0.3-2.7,0.6-2.9,2c-0.3,1.4,0.6,2.7,2,2.9c5.5,1,10.8,1.5,15.7,1.5c0.7,0,1.4,0,2.1,0 c0.6,6.1,1.1,12,1.5,17.9c-6.2-0.7-14.7-1.2-19.8,0.6c-1.3,0.5-2,1.9-1.5,3.2c0.5,1.3,1.9,2,3.2,1.5c3.4-1.2,10.3-1.2,18.5-0.2 c0.5,8.5,0.9,16.8,1,24.8c-7.4-4-13.4-5.7-13.8-5.8c-1.3-0.4-2.7,0.4-3.1,1.7c-0.4,1.3,0.4,2.7,1.7,3.1c0.1,0,7.1,2,15.2,6.8 c0.1,18.5-0.9,35.8-3,51.8c-10-1.7-19.5-3.9-19.6-4c-1.4-0.3-2.7,0.5-3,1.9c-0.3,1.3,0.5,2.7,1.9,3c0.7,0.2,10.1,2.4,20.1,4.1 c-2.7,18.2-6,34.6-11.6,49.5c-2.5-0.2-5.6-0.4-7.4-0.7c-1.4-0.3-2.7,0.6-3,2s0.6,2.7,2,3c1.5,0.3,4.3,0.7,6.5,0.9 c-4.3,14-18.1,36.3-30.5,49.5c-6.4-4.7-11.9-10.5-12.3-14.2c-0.2-1.4-1.4-2.4-2.8-2.2c-1.4,0.2-2.4,1.4-2.2,2.8 c0.8,6.2,7.8,13.8,13.1,17.7c-5.2,8.4-26,20.3-40.4,23.8c-1.6-4.4-3.5-10.6-3.4-16.7c0-1.4-1.1-2.5-2.5-2.5l0,0 c-1.4,0-2.5,1.1-2.5,2.5c-0.1,6.7,1.2,13.1,2.9,18c-1.8,0.6-3.4,1-5.7,1c-16.4,0.6-32.4,1.4-46.7,3.4c0.3-4.5,1.6-8.6,3.7-11.1 c0.9-1,0.8-2.6-0.3-3.5c-1-0.9-2.6-0.8-3.5,0.3c-3.5,4-4.9,9.9-5,15.2c-5.2,0.9-10.2,1.9-14.8,3.3c-20.8,6-32.1,16.6-34.6,32.4 c-3.1,20.1-0.2,34.3,3.6,47.3c-8.7-2.8-15.9-6.5-18.8-9.8c-0.9-1.1-2.5-1.2-3.5-0.3c-1,0.9-1.2,2.5-0.3,3.5 c3.9,4.5,13,9.1,24.3,12.3c0.1,0.4,0.2,0.7,0.3,1.1c4.6,15.2,9,29.6,5.3,52.6c-0.2,1.4,0.7,2.7,2.1,2.9c0.1,0,0.3,0,0.4,0 c1.2,0,2.3-0.9,2.5-2.1c3.7-23.1-0.5-38.5-4.9-53c5.5,1.2,10.6,1.9,14.7,1.9c3.1,0,5.7-0.3,7.6-1c1.3-0.5,2-1.9,1.5-3.2 c-0.5-1.3-1.9-2-3.2-1.5c-4.1,1.4-12.7,0.8-22.4-1.7c-4.1-13.8-7.5-27.5-4.3-48.2c2.2-13.9,12-22.9,31-28.4c4.2-1.2,8.8-2.2,13.7-3 l0,0c0.3,2.6,1.5,9,5.2,11.7c0.4,0.3,0.9,0.5,1.4,0.5c0.8,0,1.6-0.4,2.1-1.1c0.8-1.1,0.5-2.7-0.6-3.5s-2.5-3.7-3.1-8.2 c0-0.1,0-0.1,0-0.2c14.5-2.1,31-2.9,47-3.4c2.1-0.1,4.7-0.3,7.5-0.8c3.2,6.1,7.3,10.5,11.1,13.7c0.5,0.4,1,0.6,1.6,0.6 c0.7,0,1.4-0.3,1.9-0.9c0.9-1.1,0.7-2.7-0.3-3.5c-3.1-2.5-6.4-6.1-9.1-10.8c5.3-1.3,11.4-3.4,18.1-6.8c9.5-4.8,18.4-11.4,26.5-19.5 c7.8,4.6,14.5,6.6,17.9,6.6c0.2,0,0.3,0,0.5,0c1.4-0.1,2.4-1.3,2.4-2.7c-0.1-1.4-1.3-2.4-2.7-2.4c-2.4,0.2-8.1-1.8-14.5-5.3 c1.3-1.4,2.6-2.9,3.9-4.5c11-13.2,20-29.3,26.9-48.1c0.7,0,1.4,0,2.1,0c4.7,0,9.4-0.3,12.8-1.2c1.3-0.3,2.2-1.7,1.8-3 c-0.3-1.3-1.7-2.2-3-1.8c-3,0.7-7.5,1.1-12,1c3.6-10.6,6.5-21.9,8.8-34.1c0.9-4.9,1.7-9.8,2.4-14.9c4.3,0.6,8.4,1,11.7,1 c0.9,0,1.8,0,2.5-0.1c1.4-0.1,2.4-1.3,2.3-2.7s-1.3-2.4-2.7-2.3c-3.2,0.3-8-0.2-13.1-0.9c1.9-15.4,2.8-31.9,2.9-49.3 c3,2.2,6,4.7,8.6,7.7c0.5,0.6,1.2,0.8,1.9,0.8c0.6,0,1.2-0.2,1.7-0.6c1-0.9,1.1-2.5,0.2-3.5c-3.8-4.3-8.2-7.8-12.4-10.5 c-0.1-8.8-0.4-17.8-1-27.1c11.4,1.9,18.6,4.8,20.5,6.6c0.5,0.5,1.1,0.7,1.8,0.7c0.6,0,1.3-0.2,1.8-0.7 C474.8,96.4,474.8,94.8,473.8,93.8z M214.3,56.8c0-0.6,0.1-1.2,0.2-1.8c5.3,0.2,10.7,0.2,16.1,0.2c14.3,0,28.8-0.5,43.3-1.6 c2.8,13.4,2.5,26.6,2.5,26.8c0,1.4,1.1,2.5,2.4,2.6h0.1c1.4,0,2.5-1.1,2.5-2.4s0.3-12.6-2.1-25.4c-0.1-0.7-0.3-1.3-0.4-2 c4.5-0.4,9.1-0.8,13.6-1.3c16.2-1.7,32.3-4,48.5-7c4.3,7.4,7.6,15,7.7,19.6c0,1.4,1.1,2.5,2.5,2.5l0,0c1.4,0,2.5-1.2,2.5-2.6 c-0.1-5-3.2-12.8-7.5-20.5c16.9-3.3,33.8-7.3,50.5-11.9c6.3,5.7,13.9,14.4,18.2,26.5c0.4,1,1.3,1.7,2.4,1.7c0.3,0,0.6,0,0.8-0.1 c1.3-0.5,2-1.9,1.5-3.2c-3.8-10.8-10.1-19.6-17.2-26.5c4.1-1.2,8.3-2.4,12.4-3.7c1.3-0.4,2.1-1.8,1.7-3.1c-0.4-1.3-1.8-2.1-3.1-1.7 c-5.1,1.6-10.2,3.1-15.3,4.5c-9.6-8-20.1-12.7-27.6-14.4c-1.4-0.3-2.7,0.6-3,1.9c-0.3,1.4,0.6,2.7,1.9,3c7.2,1.6,15.4,5.6,22.7,11.2 c-16.1,4.4-32.3,8.1-48.5,11.2c-4.7-7.4-10.2-14.1-14.9-17.2c-1.2-0.8-2.7-0.4-3.5,0.7c-0.8,1.2-0.4,2.7,0.7,3.5 c3.8,2.5,8.3,7.8,12.4,13.9c-15.4,2.8-30.8,5-46.1,6.6c-4.7,0.5-9.5,0.9-14.2,1.3c-2.8-10.7-7.1-18.5-12.8-23.1 c-1.1-0.9-2.7-0.7-3.5,0.4s-0.7,2.7,0.4,3.5c5.4,4.3,8.8,11.7,10.9,19.6c-19.7,1.6-39,2-58,1.5c1.2-9.1,3.1-15.9,5.2-18.2 c0.9-1,0.8-2.6-0.2-3.5s-2.6-0.8-3.5,0.2c-1.8,2-4.8,7.3-6.5,21.4c-6.7-0.2-13.3-0.6-19.9-1.1c-11.9-0.9-23.6-2.1-35-3.8 c4.1-10.6,8.6-18.2,12.6-21.1c1.1-0.8,1.4-2.4,0.5-3.5c-0.8-1.1-2.4-1.4-3.5-0.5c-6.3,4.6-11.5,16.1-14.7,24.4 c-12.5-1.9-24.5-4.3-35.6-7.1c-2.9-0.7-5.8-1.5-8.6-2.3c4.9-6.3,11.3-11.4,19.4-14.1c1.3-0.4,2-1.8,1.6-3.2c-0.4-1.3-1.8-2-3.2-1.6 c-9.8,3.2-17.4,9.6-23,17.4c-12.1-3.6-22.2-7.5-28.9-11.3c-1.2-0.7-2.7-0.2-3.4,1c-0.7,1.2-0.2,2.7,1,3.4C76,30.2,86,34.1,97.8,37.7 c-5.1,8.5-8.1,18.1-9.3,26.4c-0.2,1.4,0.8,2.6,2.1,2.8c0.1,0,0.2,0,0.4,0c1.2,0,2.3-0.9,2.5-2.2c1.2-8.1,4.2-17.5,9.3-25.6 c3.4,1,6.8,1.9,10.4,2.8c11,2.7,22.8,5.1,35.1,7c-4,11.7-6.7,24-7,31.5c0,1.4,1.1,2.5,2.4,2.6c0,0,0,0,0.1,0c1.4,0,2.5-1.1,2.5-2.4 c0.2-7.1,3-19.5,7-30.8c11.8,1.7,24,3.1,36.4,4c6.5,0.5,13.1,0.8,19.7,1.1c0,0.5-0.1,1.1-0.1,1.6c-0.9,12-0.6,24.4,0.9,30.9 c0.3,1.2,1.3,1.9,2.4,1.9c0.2,0,0.4,0,0.6-0.1c1.4-0.3,2.2-1.7,1.9-3C213.8,80.3,213.4,68.2,214.3,56.8z M285.5,357.8 c-12.1,2.8-29.7-3.4-33.1-7.5c-0.9-1.1-2.5-1.2-3.5-0.3c-1.1,0.9-1.2,2.5-0.3,3.5c2.5,3,8.6,6,15.9,8c3.3,0.9,8.7,2,14.5,2 c2.6,0,5.2-0.2,7.8-0.8c1.4-0.3,2.2-1.7,1.9-3C288.2,358.3,286.8,357.5,285.5,357.8z" fill="#A94744"/></g></svg>