<svg xmlns="http://www.w3.org/2000/svg" xmlns:xlink="http://www.w3.org/1999/xlink" preserveAspectRatio="xMidYMid meet" version="1.0" viewBox="-10.6 -3.7 379.3 274.0" zoomAndPan="magnify" style="fill: rgb(0, 0, 0);" original_string_length="6753"><g id="__id33_st2ai59nls"><path d="M138.0438,188.3781c-0.1797,0.2574-0.3821,0.4934-0.5708,0.7424l0.0352,0.0253 c-6.6304,10.5939-37.656,40.8852-95.7505,0.3553c-52.3655-36.533-44.4458-68.4083-34.4746-86.6637 c0.6304-1.4282,1.3853-2.7969,2.2869-4.0895c0.1682-0.2411,0.3582-0.4622,0.5344-0.6957c0.1487-0.2365,0.3003-0.4823,0.4475-0.7119 l0.064,0.0461c14.4968-17.9141,53.2109-13.2933,87.8301,10.8588C133.9229,132.9961,151.6517,168.8729,138.0438,188.3781z M330.4063,25.232l-0.0164,0.0297c-0.2275-0.1293-0.4465-0.2706-0.6799-0.3921c-17.6875-9.2055-44.7092,7.7014-60.3542,37.7621 c-15.2668,29.3339-14.0513,60.3426,2.4512,70.3792l-0.0295,0.0543c0.2065,0.0982,0.4268,0.1984,0.6392,0.2971 c0.2136,0.1209,0.4187,0.2535,0.6372,0.3672c1.1721,0.61,2.3875,1.0976,3.6355,1.4819 c16.1978,6.4277,43.2568,10.1398,66.3499-34.2312C368.6585,51.7548,339.9149,29.6298,330.4063,25.232z M239.6024,128.3969 l-0.021-0.0036c0.0308-0.1606,0.0703-0.3185,0.0952-0.4809c1.8872-12.3088-13.5415-24.8875-34.4609-28.0952 c-20.4133-3.1301-38.5039,3.8221-41.1208,15.5973l-0.0381-0.0065c-0.0166,0.1419-0.0315,0.2923-0.0471,0.4377 c-0.0286,0.1506-0.0659,0.2985-0.0891,0.4506c-0.125,0.8156-0.1692,1.6323-0.1455,2.4474 c-0.5444,10.8695,2.7004,27.6153,33.5784,32.35C231.6095,156.3465,238.9134,134.9033,239.6024,128.3969z M243.6532,190.8082 c-31.1526-3.7476-58.166,6.7498-61.4172,23.5688l-0.0581-0.008c-0.0161,0.2022-0.0295,0.4163-0.0449,0.6234 c-0.0337,0.2149-0.0813,0.4263-0.1074,0.6432c-0.1399,1.1628-0.1567,2.3242-0.071,3.4812 c-0.1628,15.4611,5.7798,39.1423,52.9028,44.8111c52.2778,6.2889,62.0469-24.4266,62.6948-33.6939l-0.032-0.0044 c0.0369-0.2293,0.0872-0.4549,0.115-0.6865C299.7464,211.9909,275.5782,194.6486,243.6532,190.8082z M192.9041,16.2119 l-0.0278,0.0058c-0.0317-0.179-0.051-0.3592-0.0908-0.5374c-3.0112-13.5058-28.0217-19.4221-55.8623-13.2142 c-27.1672,6.0576-46.9783,21.4203-45.1231,34.7095l-0.051,0.0106c0.0417,0.1532,0.0886,0.3145,0.1323,0.4711 c0.0303,0.1676,0.0479,0.3365,0.085,0.5035c0.1995,0.8947,0.502,1.7537,0.8892,2.5803 c4.0771,11.4167,15.5186,27.1512,56.613,17.9882C195.0582,48.5637,194.8861,23.2107,192.9041,16.2119z" style="fill: rgb(222, 121, 122);"/></g><g id="__id34_st2ai59nls"><path d="M313.0609,84.0304c-8.7996,21.1896-23.9863,32.1248-32.5962,25.4509 c-7.4294-5.7586-7.2883-23.0144-0.5588-39.2192s18.8538-28.4844,28.1765-27.2861 C318.8873,44.3646,321.8602,62.8409,313.0609,84.0304z M241.118,204.5504c-17.6392-1.3868-34.083,2.0432-37.0808,8.4099 c-3.4744,7.3787,11.9739,15.7502,35.0388,17.5636c23.0652,1.8134,39.6318-4.0411,37.353-11.8721 C274.463,211.8949,258.7572,205.9373,241.118,204.5504z M136.8497,10.5151c-14.2376,3.7349-26.2866,10.6681-26.9956,16.1278 c-0.8215,6.3275,13.502,8.2867,32.1189,3.4029c18.6172-4.8838,30.1345-13.6219,26.3125-18.7312 C164.9879,6.906,151.0872,6.7802,136.8497,10.5151z M95.5894,122.6458c-16.9038-14.6008-36.6362-22.8964-45.0647-17.9465 c-9.7683,5.7366-0.9863,26.5795,21.1172,45.6714s44.002,24.7493,48.2568,14.2507 C123.5704,155.5626,112.4935,137.2465,95.5894,122.6458z M228.7144,121.3007c-0.8279-5.5794-11.5518-11.36-24.0498-13.5677 c-12.498-2.2077-24.5535-0.4508-27.2427,4.5073c-3.1167,5.7462,7.2163,13.4609,23.5588,16.3476 C217.3233,131.4747,229.6739,127.7669,228.7144,121.3007z" style="fill: rgb(201, 79, 82);"/></g><g id="__id35_st2ai59nls"><path d="M42.1571,135.27c2.1299,2.7928-2.3093,6.1436-4.3508,3.287c-4.1331-5.7827-8.5649-11.4544-10.8806-18.272 c-2.335-6.8734-2.4937-14.2784,0.8708-20.8377c1.6033-3.1255,6.4597-0.3872,4.75,2.678c-2.7651,4.9568-2.3132,11.3069-0.4534,16.486 C34.2996,124.7566,38.2313,130.1235,42.1571,135.27z M46.9176,142.0574c-3.5139,0-3.4578,5.4511,0.0549,5.4511 C50.4867,147.5085,50.4303,142.0574,46.9176,142.0574z M217.5731,238.3493c-9.395-1.148-17.9521-7.5101-22.2146-15.8742 c-0.6682-1.3103-2.1357-2.0645-3.5659-1.4662c-1.2927,0.5407-2.1223,2.2406-1.4668,3.5661 c2.519,5.0889,6.2854,9.4979,10.8821,12.8337c4.7603,3.4549,10.0466,5.3119,15.7761,6.3611 C220.4061,244.3963,221.0907,238.7792,217.5731,238.3493z M226.9898,241.1317c-3.5186,0-3.3264,5.4494,0.1775,5.4494 C230.6856,246.5811,230.4935,241.1317,226.9898,241.1317z M237.8924,242.5538c-3.5183,0-3.3262,5.4494,0.1777,5.4494 C241.5885,248.0032,241.3963,242.5538,237.8924,242.5538z M328.9447,60.7053c-2.0742,15.4932-6.9883,29.9517-15.8477,42.9258 c-1.9526,2.8596,2.156,6.4151,4.166,3.5182c9.3755-13.5105,15.4375-29.398,17.0496-45.7942 C334.6124,58.3043,329.3553,57.636,328.9447,60.7053z M306.7684,116.5129c-0.1396-0.1997-0.2788-0.3995-0.4187-0.5992 c-0.3269-0.3509-0.7183-0.6001-1.1748-0.7474c-0.2283-0.0419-0.4568-0.0839-0.6853-0.1258c-0.4912-0.024-0.9556,0.076-1.3931,0.3002 c-0.6179,0.3089-1.2358,0.6171-1.8535,0.9263c-0.3425,0.1535-0.6221,0.3786-0.8376,0.6754 c-0.2542,0.2482-0.4329,0.5461-0.5369,0.8938c-0.1289,0.3391-0.168,0.6844-0.1169,1.036c-0.009,0.3669,0.0759,0.7154,0.2546,1.0455 c0.1362,0.2022,0.272,0.4045,0.4082,0.6067c0.3206,0.3567,0.7075,0.6127,1.1609,0.7681c0.228,0.0459,0.4556,0.0919,0.6836,0.1379 c0.4902,0.0328,0.9565-0.059,1.3984-0.2755c0.6462-0.3229,1.2927-0.6466,1.9392-0.9698c0.3398-0.1595,0.6147-0.3896,0.8254-0.6902 c0.2498-0.2527,0.4233-0.5538,0.5208-0.9031c0.123-0.3413,0.1558-0.6873,0.0986-1.038 C307.044,117.1869,306.953,116.8399,306.7684,116.5129z M197.8358,140.5465c1.7341,0.1451,3.25-1.3641,2.9866-3.1162 c-0.2717-1.8046-1.8918-2.1942-3.3948-2.5524c-3.7075-0.8836-7.3066-2.2439-10.7205-3.9338 c-4.5344-2.2446-8.7205-5.12-12.4109-8.5845c-2.5508-2.395-6.1335,1.7844-3.5325,4.1535 c6.0054,5.4703,13.0725,9.7441,20.7883,12.3179C193.5204,139.4875,195.7498,140.372,197.8358,140.5465z M206.5872,141.344 c1.8511,0.0027,3.7014-0.0067,5.5522-0.0177c0.2749,0.006,0.5505,0.0122,0.8259,0.0182c0.6814,0.0151,1.4729-0.4059,1.918-0.8994 c0.4387-0.4871,0.7527-1.2681,0.6978-1.9327c-0.1228-1.4872-1.3088-2.6583-2.8318-2.6159c-0.1814,0.005-0.3633,0.0092-0.5452,0.0135 c-1.8003-0.025-3.6008-0.0159-5.4016-0.0131c-0.717,0.001-1.4219,0.2271-1.9575,0.7215c-0.4905,0.4536-0.8755,1.2137-0.8738,1.8943 c0.0027,0.7051,0.2048,1.4462,0.7217,1.9574C205.1956,140.9678,205.8592,141.343,206.5872,141.344z M164.2711,27.5213 c-1.613-0.3613-2.6255,0.8726-3.6765,1.8589c-2.6223,2.4609-5.7761,4.4528-9.0923,5.8353 c-3.7793,1.5753-7.7925,2.4424-11.8872,2.5074c-1.4707,0.0233-2.814,0.9113-2.9487,2.4826 c-0.1177,1.3696,1.0034,2.9505,2.4824,2.9489c7.7073-0.0092,15.3401-2.432,21.6201-6.9138c0.7397-0.528,1.4565-1.0867,2.1504-1.6737 c0.9888-0.8368,2.5691-1.9548,3.1777-3.1346C166.8983,29.8805,165.9706,27.9021,164.2711,27.5213z M169.2669,20.7042 c-3.5115,0-3.5566,5.4513-0.0413,5.4513C172.7369,26.1555,172.7821,20.7042,169.2669,20.7042z" style="fill: rgb(248, 197, 190);"/></g></svg>